<?xml version="1.0" encoding="UTF-8"?>
<svg version="1.1" xmlns="http://www.w3.org/2000/svg" width="1024" height="1024">
<path d="M0 0 C1.29113205 -0.00701431 2.5822641 -0.01402863 3.91252136 -0.02125549 C8.06147754 -0.04067324 12.21037797 -0.04568997 16.359375 -0.046875 C17.06603931 -0.04731686 17.77270363 -0.04775871 18.50078201 -0.04821396 C39.84664366 -0.05521616 60.9257054 0.24912441 82.109375 3.203125 C83.43989785 3.3821599 84.7704657 3.5608607 86.10107422 3.73925781 C104.6391509 6.25702583 122.93864425 9.7310895 141.109375 14.203125 C142.16753418 14.46319336 143.22569336 14.72326172 144.31591797 14.99121094 C206.57539978 30.53467821 266.3639466 58.18867023 318.109375 96.203125 C319.17027344 96.98042969 320.23117187 97.75773437 321.32421875 98.55859375 C324.27308078 100.74795912 327.19641124 102.966247 330.109375 105.203125 C330.64594727 105.61353027 331.18251953 106.02393555 331.73535156 106.44677734 C341.17126112 113.68278753 350.22140581 121.30573471 359.109375 129.203125 C360.08519531 130.06550781 361.06101562 130.92789063 362.06640625 131.81640625 C369.95207879 138.94201397 377.46045327 146.45009778 384.984375 153.953125 C385.53075623 154.49682739 386.07713745 155.04052979 386.64007568 155.60070801 C392.68251618 161.62068084 398.59320364 167.69029624 404.109375 174.203125 C405.05825378 175.28659652 406.00872421 176.36867661 406.9609375 177.44921875 C414.76144926 186.39191353 422.03348377 195.67925601 429.109375 205.203125 C429.65770996 205.94111328 430.20604492 206.67910156 430.77099609 207.43945312 C449.82449174 233.20224137 465.73907905 260.58080714 480.109375 289.203125 C480.7588208 290.48799805 480.7588208 290.48799805 481.42138672 291.79882812 C508.64685607 346.00277288 523.69760953 406.93903409 529.109375 467.203125 C529.19525879 468.1497702 529.28114258 469.09641541 529.36962891 470.07174683 C530.04621787 478.08843185 530.28318873 486.05061093 530.3125 494.09375 C530.32302147 496.03044807 530.32302147 496.03044807 530.33375549 498.00627136 C530.35317324 502.15522754 530.35818997 506.30412797 530.359375 510.453125 C530.35981686 511.15978931 530.36025871 511.86645363 530.36071396 512.59453201 C530.36771616 533.94039366 530.06337559 555.0194554 527.109375 576.203125 C526.9303401 577.53364785 526.7516393 578.8642157 526.57324219 580.19482422 C524.05547417 598.7329009 520.5814105 617.03239425 516.109375 635.203125 C515.84930664 636.26128418 515.58923828 637.31944336 515.32128906 638.40966797 C499.77782179 700.66914978 472.12382977 760.4576966 434.109375 812.203125 C433.33207031 813.26402344 432.55476562 814.32492187 431.75390625 815.41796875 C429.56454088 818.36683078 427.346253 821.29016124 425.109375 824.203125 C424.69896973 824.73969727 424.28856445 825.27626953 423.86572266 825.82910156 C416.62971247 835.26501112 409.00676529 844.31515581 401.109375 853.203125 C400.24699219 854.17894531 399.38460937 855.15476562 398.49609375 856.16015625 C391.37048603 864.04582879 383.86240222 871.55420327 376.359375 879.078125 C375.81567261 879.62450623 375.27197021 880.17088745 374.71179199 880.73382568 C368.69181916 886.77626618 362.62220376 892.68695364 356.109375 898.203125 C355.02590348 899.15200378 353.94382339 900.10247421 352.86328125 901.0546875 C343.92058647 908.85519926 334.63324399 916.12723377 325.109375 923.203125 C324.37138672 923.75145996 323.63339844 924.29979492 322.87304688 924.86474609 C297.11025863 943.91824174 269.73169286 959.83282905 241.109375 974.203125 C239.82450195 974.8525708 239.82450195 974.8525708 238.51367188 975.51513672 C184.30972712 1002.74060607 123.37346591 1017.79135953 63.109375 1023.203125 C62.1627298 1023.28900879 61.21608459 1023.37489258 60.24075317 1023.46337891 C52.22406815 1024.13996787 44.26188907 1024.37693873 36.21875 1024.40625 C34.92761795 1024.41326431 33.6364859 1024.42027863 32.30622864 1024.42750549 C28.15727246 1024.44692324 24.00837203 1024.45193997 19.859375 1024.453125 C18.79937853 1024.45378778 18.79937853 1024.45378778 17.71796799 1024.45446396 C-3.62789366 1024.46146616 -24.7069554 1024.15712559 -45.890625 1021.203125 C-47.22114785 1021.0240901 -48.5517157 1020.8453893 -49.88232422 1020.66699219 C-68.4204009 1018.14922417 -86.71989425 1014.6751605 -104.890625 1010.203125 C-105.94878418 1009.94305664 -107.00694336 1009.68298828 -108.09716797 1009.41503906 C-170.35664978 993.87157179 -230.1451966 966.21757977 -281.890625 928.203125 C-282.95152344 927.42582031 -284.01242187 926.64851562 -285.10546875 925.84765625 C-288.05433078 923.65829088 -290.97766124 921.440003 -293.890625 919.203125 C-294.42719727 918.79271973 -294.96376953 918.38231445 -295.51660156 917.95947266 C-304.95251112 910.72346247 -314.00265581 903.10051529 -322.890625 895.203125 C-323.86644531 894.34074219 -324.84226562 893.47835937 -325.84765625 892.58984375 C-333.73332879 885.46423603 -341.24170327 877.95615222 -348.765625 870.453125 C-349.31200623 869.90942261 -349.85838745 869.36572021 -350.42132568 868.80554199 C-356.46376618 862.78556916 -362.37445364 856.71595376 -367.890625 850.203125 C-368.83950378 849.11965348 -369.78997421 848.03757339 -370.7421875 846.95703125 C-378.54269926 838.01433647 -385.81473377 828.72699399 -392.890625 819.203125 C-393.43895996 818.46513672 -393.98729492 817.72714844 -394.55224609 816.96679688 C-413.60574174 791.20400863 -429.52032905 763.82544286 -443.890625 735.203125 C-444.5400708 733.91825195 -444.5400708 733.91825195 -445.20263672 732.60742188 C-472.42810607 678.40347712 -487.47885953 617.46721591 -492.890625 557.203125 C-492.97650879 556.2564798 -493.06239258 555.30983459 -493.15087891 554.33450317 C-493.82746787 546.31781815 -494.06443873 538.35563907 -494.09375 530.3125 C-494.10427147 528.37580193 -494.10427147 528.37580193 -494.11500549 526.39997864 C-494.13442324 522.25102246 -494.13943997 518.10212203 -494.140625 513.953125 C-494.14106686 513.24646069 -494.14150871 512.53979637 -494.14196396 511.81171799 C-494.14896616 490.46585634 -493.84462559 469.3867946 -490.890625 448.203125 C-490.7115901 446.87260215 -490.5328893 445.5420343 -490.35449219 444.21142578 C-487.83672417 425.6733491 -484.3626605 407.37385575 -479.890625 389.203125 C-479.50052246 387.61588623 -479.50052246 387.61588623 -479.10253906 385.99658203 C-463.55907179 323.73710022 -435.90507977 263.9485534 -397.890625 212.203125 C-397.11332031 211.14222656 -396.33601563 210.08132812 -395.53515625 208.98828125 C-393.34579088 206.03941922 -391.127503 203.11608876 -388.890625 200.203125 C-388.48021973 199.66655273 -388.06981445 199.12998047 -387.64697266 198.57714844 C-380.41096247 189.14123888 -372.78801529 180.09109419 -364.890625 171.203125 C-364.02824219 170.22730469 -363.16585937 169.25148437 -362.27734375 168.24609375 C-355.15173603 160.36042121 -347.64365222 152.85204673 -340.140625 145.328125 C-339.59692261 144.78174377 -339.05322021 144.23536255 -338.49304199 143.67242432 C-332.47306916 137.62998382 -326.40345376 131.71929636 -319.890625 126.203125 C-318.80715348 125.25424622 -317.72507339 124.30377579 -316.64453125 123.3515625 C-307.70183647 115.55105074 -298.41449399 108.27901623 -288.890625 101.203125 C-288.15263672 100.65479004 -287.41464844 100.10645508 -286.65429688 99.54150391 C-260.89150863 80.48800826 -233.51294286 64.57342095 -204.890625 50.203125 C-203.60575195 49.5536792 -203.60575195 49.5536792 -202.29492188 48.89111328 C-148.09097712 21.66564393 -87.15471591 6.61489047 -26.890625 1.203125 C-25.9439798 1.11724121 -24.99733459 1.03135742 -24.02200317 0.94287109 C-16.00531815 0.26628213 -8.04313907 0.02931127 0 0 Z " fill="#FEFEFE" transform="translate(493.890625,-0.203125)"/>
<path d="M0 0 C1.10927856 -0.00145523 2.21855713 -0.00291046 3.3614502 -0.00440979 C5.7014428 -0.00275342 8.04144658 0.00877838 10.38134766 0.02954102 C13.95652699 0.05849476 17.53022254 0.05014336 21.10546875 0.03710938 C23.38281968 0.04334724 25.66016595 0.05173855 27.9375 0.0625 C29.00327271 0.05956436 30.06904541 0.05662872 31.16711426 0.05360413 C37.4275666 0.13291452 42.25564601 0.55462899 47.0859375 4.9765625 C50.30909882 9.35085286 52.82994058 13.9946434 55.234375 18.85546875 C55.58420441 19.55945297 55.93403381 20.26343719 56.29446411 20.98875427 C59.4867315 27.45520347 62.49939382 33.99585767 65.45263672 40.57421875 C67.0521763 44.13615238 68.66326058 47.69286542 70.2734375 51.25 C70.61179626 51.99798859 70.95015503 52.74597717 71.29876709 53.51663208 C75.30675832 62.36556454 79.38915596 71.18001082 83.46875 79.99609375 C89.01072997 91.97731408 94.5199888 103.9721897 99.96875 115.99609375 C105.77597777 128.81006543 111.65321346 141.59066089 117.55712891 154.36035156 C123.21842743 166.60606481 128.84678423 178.86623978 134.44696045 191.14001465 C139.7752654 202.8157736 145.14534009 214.47180706 150.53125 226.12109375 C156.35911646 238.72669964 162.14407518 251.35048134 167.87677002 263.99963379 C173.00529607 275.31242751 178.19392106 286.59668532 183.40625 297.87109375 C189.14103487 310.27578699 194.85577911 322.68914341 200.53125 335.12109375 C205.95596755 347.00198568 211.39089422 358.87808589 216.84375 370.74609375 C217.1939621 371.50839294 217.54417419 372.27069214 217.90499878 373.05609131 C221.93269835 381.82158791 225.9685772 390.58326282 230.015625 399.33984375 C230.39337067 400.15721008 230.77111633 400.97457642 231.16030884 401.81671143 C231.53811493 402.63419861 231.91592102 403.45168579 232.30517578 404.29394531 C233.06804655 405.94465559 233.83090463 407.59537174 234.59375 409.24609375 C234.97142517 410.06331909 235.34910034 410.88054443 235.73822021 411.72253418 C241.16007881 423.45784976 246.53737188 435.21243822 251.8710022 446.98809814 C256.34018116 456.85376806 260.86452127 466.69270366 265.41845703 476.51953125 C269.11829337 484.50418088 272.79807783 492.49800105 276.46875 500.49609375 C276.91882416 501.47491516 276.91882416 501.47491516 277.37799072 502.47351074 C279.13828895 506.30485845 280.87430843 510.14625483 282.59375 513.99609375 C283.20536987 515.32858154 283.20536987 515.32858154 283.8293457 516.68798828 C285.92831845 521.45662003 287.08175249 525.17659435 286.46875 530.49609375 C284.21621896 533.47265262 281.86994937 535.04995313 278.46875 536.49609375 C276.30664253 536.75336266 276.30664253 536.75336266 273.92800903 536.76351929 C273.0224527 536.77204926 272.11689636 536.78057922 271.18389893 536.78936768 C270.19782654 536.7884613 269.21175415 536.78755493 268.19580078 536.78662109 C266.62930283 536.79669693 266.62930283 536.79669693 265.03115845 536.80697632 C261.57541153 536.82598971 258.11985848 536.8298822 254.6640625 536.83203125 C252.2627657 536.83845674 249.8614697 536.84518491 247.46017456 536.85220337 C242.42476588 536.86418443 237.38942584 536.86788332 232.35400391 536.86669922 C225.90203574 536.86649596 219.45050771 536.89380189 212.99864388 536.92824364 C208.03838072 536.95048182 203.07822401 536.9545377 198.11791611 536.95347977 C195.73927162 536.95584022 193.3606244 536.96468862 190.98202896 536.9801445 C187.65453522 536.99974177 184.32799744 536.99399037 181.00048828 536.98193359 C180.01846436 536.99317261 179.03644043 537.00441162 178.0246582 537.01599121 C172.34364717 536.96368866 168.91692953 536.39482551 164.46875 532.49609375 C162.8727879 530.10507361 161.5990394 527.92656933 160.34375 525.37109375 C159.96524902 524.62794922 159.58674805 523.88480469 159.19677734 523.11914062 C154.62273377 514.01894922 150.42315243 504.73467283 146.19926453 495.46856689 C142.22252948 486.75207731 138.18581841 478.06324589 134.15625 469.37109375 C133.54450928 468.05076645 133.54450928 468.05076645 132.92041016 466.70376587 C126.89943589 453.70908077 120.8425594 440.73173108 114.75512695 427.76806641 C109.14550141 415.82034161 103.58558185 403.84986178 98.03515625 391.87451172 C95.99332413 387.47069737 93.94829413 383.06837173 91.90332031 378.66601562 C87.58087288 369.36070925 83.26282563 360.05340384 78.953125 350.7421875 C71.22666224 334.0510392 63.48832341 317.36612705 55.67053223 300.7175293 C49.22754173 286.99664805 42.8430886 273.2490136 36.46875 259.49609375 C34.47792293 255.20190676 32.4863321 250.90807468 30.49404907 246.61456299 C29.66904234 244.83616907 28.84464817 243.05749103 28.02026367 241.27880859 C25.65794572 236.18687105 23.28796196 231.09941269 20.875 226.03125 C20.49448486 225.23098389 20.11396973 224.43071777 19.72192383 223.60620117 C19.035191 222.1658715 18.34517227 220.72710164 17.65112305 219.2902832 C15.46875 214.71526729 15.46875 214.71526729 15.46875 212.49609375 C14.80875 212.49609375 14.14875 212.49609375 13.46875 212.49609375 C13.07175903 213.76876099 13.07175903 213.76876099 12.66674805 215.06713867 C11.42068204 218.63367566 9.92738169 221.94989973 8.30078125 225.359375 C7.9895784 226.01514023 7.67837555 226.67090546 7.35774231 227.34654236 C6.68631205 228.76124908 6.01349134 230.17529656 5.3394165 231.58874512 C3.5132673 235.4196874 1.69918247 239.25631757 -0.11328125 243.09375 C-0.4853772 243.88151825 -0.85747314 244.6692865 -1.24084473 245.48092651 C-4.8778044 253.19931695 -8.39891095 260.96818263 -11.90625 268.74609375 C-18.09908067 282.46602916 -24.50473554 296.07851088 -30.96899414 309.67236328 C-37.06107391 322.48460588 -43.06068794 335.33656064 -49.01318359 348.21435547 C-51.55408755 353.70725207 -54.10597779 359.19504221 -56.65625 364.68359375 C-60.45864374 372.86984794 -64.25549925 381.05863757 -68.046875 389.25 C-75.77333776 405.9411483 -83.51167659 422.62606045 -91.32946777 439.2746582 C-98.61730066 454.7947012 -105.83288545 470.34798888 -113.03656006 485.90727234 C-116.02010226 492.3510944 -119.01329489 498.79033546 -122.01318359 505.2265625 C-123.48428945 508.39495259 -124.9404454 511.56986448 -126.39453125 514.74609375 C-127.27297828 516.64213991 -128.15185801 518.53798568 -129.03125 520.43359375 C-129.41627686 521.2855835 -129.80130371 522.13757324 -130.19799805 523.01538086 C-132.96175755 528.92492226 -136.02026716 532.82210519 -141.53125 536.49609375 C-143.56751633 536.75336266 -143.56751633 536.75336266 -145.94500732 536.76351929 C-146.84774384 536.77204926 -147.75048035 536.78057922 -148.68057251 536.78936768 C-149.66866913 536.7884613 -150.65676575 536.78755493 -151.67480469 536.78662109 C-152.71738434 536.79333832 -153.75996399 536.80005554 -154.83413696 536.80697632 C-158.29051444 536.82601745 -161.74669829 536.82988391 -165.203125 536.83203125 C-167.60345541 536.83845596 -170.00378502 536.84518407 -172.40411377 536.85220337 C-177.44130264 536.86419218 -182.47842286 536.86788264 -187.515625 536.86669922 C-193.96640279 536.86649618 -200.41673929 536.89377623 -206.86741257 536.92824364 C-211.82771826 536.95049823 -216.78791762 536.95453716 -221.74826813 536.95347977 C-224.1260861 536.95583874 -226.50390687 536.96467885 -228.88167572 536.9801445 C-232.21146863 536.99977031 -235.54030848 536.99397855 -238.87011719 536.98193359 C-239.85011688 536.99317261 -240.83011658 537.00441162 -241.83981323 537.01599121 C-247.91844098 536.96020063 -251.56967515 536.0845072 -256.53125 532.49609375 C-258.27453742 529.00951891 -258.10171603 525.31516257 -256.94140625 521.61523438 C-256.03632867 519.45647279 -255.05010672 517.35361939 -254.03125 515.24609375 C-253.19757135 513.45849434 -252.36426818 511.67071979 -251.53125 509.8828125 C-251.05816406 508.87911621 -250.58507812 507.87541992 -250.09765625 506.84130859 C-248.36413413 503.13920135 -246.66261158 499.42349726 -244.96875 495.703125 C-244.65386124 495.01168396 -244.33897247 494.32024292 -244.01454163 493.60784912 C-243.35773876 492.16556088 -242.70096546 490.72325919 -242.04421997 489.28094482 C-232.89955258 469.21849285 -223.66948758 449.19483913 -214.45837402 429.1628418 C-211.96141688 423.7324502 -209.4648546 418.30187728 -206.96875 412.87109375 C-206.44003296 411.72084717 -206.44003296 411.72084717 -205.90063477 410.54736328 C-200.45302684 398.69454549 -195.02690866 386.83203172 -189.60961914 374.96533203 C-183.88190026 362.42133003 -178.10536975 349.90022763 -172.31863403 337.38336182 C-167.1829655 326.2721422 -162.08411347 315.14520286 -157.03125 303.99609375 C-151.60125177 292.01483934 -146.11380468 280.06112128 -140.59375 268.12109375 C-134.85896542 255.71640115 -129.14410678 243.30309582 -123.46875 230.87109375 C-118.02508858 218.94765394 -112.56798658 207.03053003 -107.09375 195.12109375 C-106.74159424 194.35490723 -106.38943848 193.5887207 -106.02661133 192.79931641 C-103.1711369 186.58688016 -100.31477975 180.37484988 -97.45837402 174.1628418 C-94.96141688 168.7324502 -92.4648546 163.30187728 -89.96875 157.87109375 C-89.61627197 157.1042627 -89.26379395 156.33743164 -88.90063477 155.54736328 C-83.45302684 143.69454549 -78.02690866 131.83203172 -72.60961914 119.96533203 C-67.63987155 109.08132655 -62.63648482 98.2131998 -57.61587524 87.35256958 C-51.8347594 74.84678671 -46.06852281 62.33469033 -40.36550903 49.7930603 C-39.73024626 48.39608042 -39.09457068 46.99928818 -38.45846558 45.60269165 C-35.2417508 38.53901626 -32.06915283 31.46152105 -29.00976562 24.32788086 C-22.49983767 9.23063028 -17.30525854 -0.18240934 0 0 Z " fill="#17181D" transform="translate(497.53125,199.50390625)"/>
<path d="M0 0 C52.8 0 105.6 0 160 0 C154.60412822 11.39128487 149.20055804 22.74588396 143.55249023 34.00854492 C142.86134394 35.39055407 142.17037595 36.77265239 141.47956848 38.15483093 C139.63897318 41.8363034 137.79594943 45.51655486 135.95241809 49.19655776 C134.01312453 53.06880782 132.07616237 56.94222381 130.13893127 60.81550598 C126.48591588 68.1184535 122.83086621 75.42038082 119.17504698 82.72192508 C115.00644001 91.04788347 110.84015935 99.37500519 106.67405403 107.70221555 C98.11858667 124.80275408 89.56026292 141.90186159 81 159 C80.34 159 79.68 159 79 159 C68.69725723 138.41784031 58.39678426 117.83454615 48.09903717 97.24988651 C43.31792308 87.69282195 38.5360575 78.13613477 33.75244141 68.58032227 C29.5846707 60.25472566 25.41829092 51.92843479 21.25360346 43.60129541 C19.04692357 39.18924309 16.83953281 34.7775496 14.63047791 30.36668587 C12.55383699 26.22016104 10.47904858 22.07271477 8.40571404 17.92453575 C7.64206422 16.39751259 6.87772212 14.87083541 6.11265755 13.34452057 C5.07298477 11.27010724 4.03574735 9.19449471 2.99914551 7.11854553 C2.41657234 5.95432099 1.83399918 4.79009645 1.23377228 3.59059238 C0 1 0 1 0 0 Z " fill="#65FEFF" transform="translate(432,688)"/>
</svg>
