<?xml version="1.0" encoding="UTF-8"?>
<svg xmlns="http://www.w3.org/2000/svg" xmlns:xlink="http://www.w3.org/1999/xlink" width="300px" height="151px" viewBox="0 0 299 151" version="1.1">
<g id="surface1">
<path style=" stroke:none;fill-rule:nonzero;fill:rgb(18.823529%,18.823529%,22.352941%);fill-opacity:1;" d="M 114.359375 52.703125 C 114.515625 52.699219 114.515625 52.699219 114.675781 52.699219 C 114.933594 52.710938 115.179688 52.730469 115.4375 52.757812 C 115.976562 52.8125 116.511719 52.816406 117.054688 52.816406 C 117.160156 52.816406 117.269531 52.816406 117.382812 52.816406 C 117.6875 52.816406 117.988281 52.816406 118.289062 52.816406 C 118.621094 52.816406 118.949219 52.816406 119.28125 52.816406 C 119.863281 52.816406 120.445312 52.816406 121.023438 52.816406 C 121.894531 52.816406 122.765625 52.816406 123.632812 52.816406 C 125.117188 52.816406 126.597656 52.816406 128.082031 52.816406 C 129.582031 52.816406 131.085938 52.816406 132.589844 52.816406 C 132.730469 52.816406 132.730469 52.816406 132.875 52.816406 C 133.359375 52.816406 133.84375 52.816406 134.328125 52.816406 C 135.320312 52.816406 136.3125 52.820312 137.304688 52.820312 C 137.453125 52.820312 137.453125 52.820312 137.605469 52.820312 C 139.160156 52.820312 140.714844 52.820312 142.269531 52.820312 C 142.375 52.820312 142.480469 52.820312 142.589844 52.820312 C 143.015625 52.820312 143.441406 52.820312 143.871094 52.820312 C 149.085938 52.820312 154.300781 52.820312 159.519531 52.824219 C 160.738281 52.824219 161.960938 52.824219 163.179688 52.824219 C 163.40625 52.824219 163.628906 52.824219 163.851562 52.824219 C 164.300781 52.824219 164.75 52.824219 165.199219 52.824219 C 165.648438 52.824219 166.097656 52.824219 166.546875 52.824219 C 171.742188 52.828125 176.9375 52.828125 182.132812 52.828125 C 182.484375 52.832031 182.835938 52.832031 183.1875 52.832031 C 188.609375 52.832031 194.035156 52.832031 199.457031 52.832031 C 199.574219 52.832031 199.691406 52.832031 199.8125 52.832031 C 201.691406 52.832031 203.570312 52.832031 205.449219 52.835938 C 210.867188 52.835938 216.285156 52.835938 221.699219 52.835938 C 221.8125 52.835938 221.921875 52.835938 222.039062 52.835938 C 224.375 52.839844 226.710938 52.839844 229.046875 52.839844 C 230.140625 52.839844 231.234375 52.839844 232.328125 52.839844 C 232.4375 52.839844 232.542969 52.839844 232.65625 52.839844 C 236.125 52.84375 239.59375 52.84375 243.058594 52.84375 C 246.554688 52.84375 250.046875 52.84375 253.542969 52.84375 C 254.027344 52.84375 254.507812 52.847656 254.992188 52.847656 C 255.085938 52.847656 255.183594 52.847656 255.28125 52.847656 C 256.777344 52.847656 258.273438 52.847656 259.773438 52.847656 C 261.246094 52.84375 262.71875 52.847656 264.195312 52.847656 C 265.058594 52.847656 265.921875 52.847656 266.785156 52.847656 C 267.359375 52.847656 267.933594 52.847656 268.507812 52.847656 C 268.832031 52.847656 269.15625 52.847656 269.484375 52.847656 C 274.390625 52.832031 279.347656 54.21875 283.363281 57.105469 C 283.417969 57.144531 283.472656 57.183594 283.527344 57.222656 C 284.527344 57.929688 285.414062 58.722656 286.289062 59.578125 C 286.390625 59.675781 286.496094 59.773438 286.597656 59.871094 C 287.3125 60.570312 287.9375 61.320312 288.542969 62.121094 C 288.597656 62.195312 288.597656 62.195312 288.65625 62.269531 C 288.695312 62.320312 288.730469 62.371094 288.769531 62.421875 C 289.039062 62.773438 289.324219 63.097656 289.628906 63.421875 C 290.542969 64.398438 291.273438 65.472656 291.960938 66.621094 C 291.996094 66.679688 292.03125 66.738281 292.066406 66.800781 C 294.933594 71.570312 295.707031 77.429688 294.378906 82.804688 C 293.335938 86.84375 291.3125 90.148438 288.484375 93.164062 C 288.429688 93.222656 288.371094 93.28125 288.316406 93.34375 C 287.859375 93.816406 287.347656 94.21875 286.839844 94.625 C 286.761719 94.691406 286.683594 94.753906 286.601562 94.820312 C 283.125 97.648438 278.824219 99.292969 274.402344 99.84375 C 274.34375 99.851562 274.28125 99.859375 274.21875 99.867188 C 273.425781 99.964844 272.625 99.949219 271.824219 99.945312 C 271.65625 99.945312 271.484375 99.945312 271.3125 99.945312 C 270.84375 99.945312 270.371094 99.945312 269.902344 99.945312 C 269.386719 99.945312 268.875 99.945312 268.359375 99.945312 C 267.457031 99.949219 266.554688 99.949219 265.648438 99.949219 C 264.675781 99.949219 263.699219 99.949219 262.726562 99.949219 C 262.632812 99.949219 262.632812 99.949219 262.539062 99.949219 C 262.222656 99.949219 261.90625 99.949219 261.589844 99.949219 C 259.285156 99.949219 256.980469 99.949219 254.675781 99.949219 C 252.335938 99.949219 250 99.949219 247.664062 99.949219 C 247.515625 99.949219 247.363281 99.949219 247.214844 99.949219 C 246.617188 99.949219 246.015625 99.949219 245.414062 99.949219 C 238.804688 99.953125 232.199219 99.953125 225.589844 99.953125 C 225.507812 99.953125 225.421875 99.953125 225.335938 99.953125 C 224.914062 99.953125 224.492188 99.953125 224.070312 99.953125 C 220.527344 99.953125 216.984375 99.953125 213.441406 99.953125 C 211.746094 99.953125 210.046875 99.953125 208.351562 99.953125 C 208.226562 99.953125 208.226562 99.953125 208.097656 99.953125 C 204.035156 99.953125 199.976562 99.957031 195.914062 99.957031 C 195.785156 99.957031 195.785156 99.957031 195.652344 99.957031 C 190.132812 99.957031 184.613281 99.957031 179.089844 99.957031 C 178.636719 99.957031 178.1875 99.957031 177.734375 99.957031 C 177.007812 99.957031 176.28125 99.957031 175.554688 99.957031 C 175.421875 99.957031 175.421875 99.957031 175.285156 99.957031 C 175.101562 99.957031 174.921875 99.957031 174.738281 99.957031 C 173.464844 99.957031 172.1875 99.957031 170.914062 99.957031 C 170.457031 99.957031 170 99.957031 169.546875 99.957031 C 160.929688 99.957031 152.316406 99.957031 143.699219 99.957031 C 143.609375 99.957031 143.519531 99.957031 143.425781 99.957031 C 140.59375 99.960938 137.757812 99.960938 134.925781 99.960938 C 132.019531 99.960938 129.109375 99.960938 126.203125 99.960938 C 126.070312 99.960938 126.070312 99.960938 125.933594 99.960938 C 120.324219 99.960938 114.71875 99.964844 109.113281 99.964844 C 109.027344 99.964844 108.9375 99.964844 108.851562 99.964844 C 105.046875 99.964844 101.242188 99.964844 97.441406 99.964844 C 95.910156 99.964844 94.378906 99.964844 92.847656 99.964844 C 92.59375 99.964844 92.34375 99.964844 92.089844 99.964844 C 88.207031 99.964844 84.328125 99.964844 80.449219 99.964844 C 80.363281 99.964844 80.28125 99.964844 80.195312 99.964844 C 78.847656 99.964844 77.503906 99.964844 76.15625 99.964844 C 72.335938 99.96875 68.515625 99.96875 64.695312 99.96875 C 64.578125 99.96875 64.578125 99.96875 64.457031 99.96875 C 62.765625 99.96875 61.074219 99.96875 59.382812 99.96875 C 58.707031 99.96875 58.03125 99.96875 57.355469 99.96875 C 57.246094 99.96875 57.246094 99.96875 57.132812 99.96875 C 54.800781 99.96875 52.464844 99.96875 50.132812 99.96875 C 47.835938 99.96875 45.535156 99.96875 43.238281 99.96875 C 42.921875 99.96875 42.605469 99.96875 42.292969 99.96875 C 42.230469 99.96875 42.167969 99.96875 42.105469 99.96875 C 41.074219 99.96875 40.046875 99.96875 39.015625 99.96875 C 38.125 99.96875 37.230469 99.96875 36.339844 99.96875 C 35.832031 99.96875 35.328125 99.96875 34.820312 99.96875 C 31.011719 99.976562 31.011719 99.976562 29.167969 99.660156 C 29.035156 99.640625 28.902344 99.617188 28.769531 99.597656 C 24.515625 98.925781 20.289062 96.785156 17.160156 93.84375 C 16.964844 93.667969 16.769531 93.496094 16.566406 93.328125 C 16.285156 93.089844 16.050781 92.824219 15.8125 92.542969 C 15.613281 92.3125 15.40625 92.089844 15.195312 91.863281 C 14.820312 91.453125 14.484375 91.027344 14.148438 90.585938 C 13.898438 90.253906 13.636719 89.949219 13.355469 89.644531 C 11.5 87.636719 10.128906 85.269531 9.144531 82.730469 C 9.101562 82.625 9.058594 82.523438 9.015625 82.417969 C 8.394531 80.800781 8.066406 79.046875 7.863281 77.332031 C 7.851562 77.230469 7.839844 77.128906 7.828125 77.023438 C 7.316406 71.691406 8.960938 66.167969 12.253906 61.957031 C 12.300781 61.894531 12.351562 61.832031 12.398438 61.765625 C 13.367188 60.535156 14.425781 59.382812 15.636719 58.386719 C 15.710938 58.324219 15.785156 58.261719 15.859375 58.195312 C 16.902344 57.320312 18.023438 56.585938 19.203125 55.914062 C 19.265625 55.878906 19.332031 55.84375 19.398438 55.804688 C 21.398438 54.675781 23.578125 53.882812 25.820312 53.382812 C 25.9375 53.355469 25.9375 53.355469 26.054688 53.328125 C 26.328125 53.269531 26.605469 53.21875 26.882812 53.171875 C 27 53.148438 27.117188 53.125 27.238281 53.101562 C 28.8125 52.820312 30.394531 52.855469 31.988281 52.859375 C 32.421875 52.859375 32.855469 52.859375 33.289062 52.859375 C 34.046875 52.855469 34.804688 52.855469 35.5625 52.855469 C 36.691406 52.859375 37.816406 52.855469 38.945312 52.855469 C 40.84375 52.855469 42.742188 52.851562 44.636719 52.851562 C 46.515625 52.851562 48.394531 52.851562 50.273438 52.851562 C 50.390625 52.851562 50.507812 52.851562 50.628906 52.851562 C 51.222656 52.847656 51.816406 52.847656 52.410156 52.847656 C 53.617188 52.847656 54.824219 52.847656 56.03125 52.84375 C 56.09375 52.84375 56.152344 52.84375 56.214844 52.84375 C 59.085938 52.84375 61.957031 52.84375 64.828125 52.839844 C 65.148438 52.839844 65.464844 52.839844 65.78125 52.839844 C 65.84375 52.839844 65.90625 52.839844 65.972656 52.839844 C 66.671875 52.839844 67.375 52.839844 68.074219 52.839844 C 68.136719 52.839844 68.199219 52.839844 68.265625 52.839844 C 71.199219 52.839844 74.136719 52.835938 77.074219 52.835938 C 77.265625 52.835938 77.457031 52.835938 77.644531 52.835938 C 80.457031 52.832031 83.269531 52.832031 86.078125 52.828125 C 86.261719 52.828125 86.445312 52.828125 86.628906 52.828125 C 87.710938 52.828125 88.796875 52.828125 89.882812 52.828125 C 92.707031 52.824219 95.527344 52.824219 98.351562 52.820312 C 100.121094 52.820312 101.890625 52.820312 103.660156 52.820312 C 104.78125 52.820312 105.902344 52.820312 107.023438 52.820312 C 107.769531 52.820312 108.515625 52.816406 109.265625 52.816406 C 109.691406 52.816406 110.117188 52.816406 110.542969 52.816406 C 110.933594 52.816406 111.320312 52.816406 111.707031 52.816406 C 111.847656 52.816406 111.988281 52.816406 112.128906 52.816406 C 112.316406 52.816406 112.503906 52.816406 112.695312 52.816406 C 112.800781 52.816406 112.90625 52.816406 113.011719 52.816406 C 113.46875 52.796875 113.898438 52.699219 114.359375 52.703125 Z M 114.359375 52.703125 "/>
<path style=" stroke:none;fill-rule:nonzero;fill:rgb(18.823529%,18.823529%,22.352941%);fill-opacity:1;" d="M 118.410156 53.535156 C 118.277344 53.582031 118.277344 53.582031 118.136719 53.628906 C 118.136719 67.761719 118.136719 81.894531 118.136719 96.457031 C 117.824219 96.5625 117.621094 96.546875 117.292969 96.523438 C 117.179688 96.519531 117.066406 96.511719 116.949219 96.507812 C 116.714844 96.492188 116.476562 96.476562 116.238281 96.460938 C 116.125 96.457031 116.015625 96.449219 115.898438 96.445312 C 115.792969 96.4375 115.691406 96.433594 115.585938 96.425781 C 115.292969 96.429688 115.292969 96.429688 115.09375 96.640625 C 114.785156 96.867188 114.625 96.867188 114.25 96.867188 C 114.191406 96.867188 114.128906 96.867188 114.070312 96.871094 C 113.871094 96.871094 113.671875 96.867188 113.472656 96.867188 C 113.328125 96.867188 113.1875 96.867188 113.042969 96.867188 C 112.644531 96.871094 112.246094 96.867188 111.847656 96.867188 C 111.414062 96.863281 110.984375 96.867188 110.550781 96.867188 C 109.792969 96.867188 109.035156 96.863281 108.273438 96.863281 C 107.148438 96.859375 106.019531 96.859375 104.890625 96.859375 C 102.875 96.859375 100.859375 96.855469 98.847656 96.851562 C 97.082031 96.847656 95.316406 96.847656 93.550781 96.84375 C 93.4375 96.84375 93.320312 96.84375 93.199219 96.84375 C 92.722656 96.84375 92.25 96.84375 91.773438 96.84375 C 90.445312 96.84375 89.117188 96.839844 87.792969 96.839844 C 87.730469 96.839844 87.671875 96.839844 87.609375 96.839844 C 85.679688 96.835938 83.753906 96.835938 81.824219 96.832031 C 81.730469 96.832031 81.730469 96.832031 81.636719 96.832031 C 80.621094 96.828125 79.605469 96.828125 78.589844 96.828125 C 74.566406 96.820312 70.546875 96.816406 66.523438 96.8125 C 66.269531 96.8125 66.015625 96.8125 65.761719 96.8125 C 65.699219 96.8125 65.636719 96.8125 65.574219 96.8125 C 64.878906 96.808594 64.183594 96.808594 63.488281 96.808594 C 63.394531 96.808594 63.394531 96.808594 63.296875 96.808594 C 59.925781 96.804688 56.554688 96.800781 53.183594 96.796875 C 52.828125 96.796875 52.472656 96.796875 52.117188 96.796875 C 51.878906 96.796875 51.644531 96.792969 51.40625 96.792969 C 49.644531 96.792969 47.882812 96.789062 46.121094 96.789062 C 44.117188 96.785156 42.109375 96.785156 40.105469 96.78125 C 38.984375 96.777344 37.863281 96.777344 36.742188 96.777344 C 35.988281 96.777344 35.238281 96.773438 34.488281 96.773438 C 34.0625 96.769531 33.636719 96.769531 33.207031 96.769531 C 26.722656 96.777344 20.488281 95.273438 15.726562 90.601562 C 15.6875 90.558594 15.644531 90.519531 15.601562 90.476562 C 15.304688 90.183594 15.007812 89.890625 14.710938 89.597656 C 14.609375 89.496094 14.507812 89.398438 14.40625 89.296875 C 13.796875 88.695312 13.226562 88.082031 12.710938 87.398438 C 12.667969 87.339844 12.625 87.285156 12.582031 87.226562 C 11.359375 85.597656 10.398438 83.816406 9.691406 81.90625 C 9.667969 81.84375 9.648438 81.785156 9.625 81.722656 C 7.84375 76.964844 8.199219 71.566406 10.246094 66.957031 C 10.414062 66.59375 10.597656 66.234375 10.789062 65.878906 C 10.882812 65.703125 10.976562 65.523438 11.070312 65.34375 C 12.300781 63.03125 14.265625 60.71875 16.304688 59.078125 C 16.390625 59.007812 16.476562 58.9375 16.566406 58.867188 C 16.695312 58.765625 16.695312 58.765625 16.824219 58.660156 C 16.898438 58.601562 16.972656 58.539062 17.050781 58.476562 C 21.792969 54.589844 27.40625 53.503906 33.375 53.511719 C 33.804688 53.511719 34.238281 53.511719 34.667969 53.511719 C 35.421875 53.507812 36.175781 53.507812 36.929688 53.507812 C 38.050781 53.507812 39.171875 53.507812 40.292969 53.507812 C 42.175781 53.503906 44.0625 53.503906 45.949219 53.503906 C 47.816406 53.503906 49.683594 53.5 51.550781 53.5 C 51.667969 53.5 51.78125 53.5 51.902344 53.5 C 52.492188 53.5 53.085938 53.5 53.675781 53.496094 C 57.792969 53.492188 61.910156 53.492188 66.027344 53.488281 C 66.214844 53.488281 66.40625 53.488281 66.59375 53.488281 C 66.847656 53.488281 67.101562 53.488281 67.351562 53.488281 C 67.921875 53.488281 68.492188 53.488281 69.0625 53.488281 C 69.1875 53.488281 69.316406 53.488281 69.441406 53.488281 C 72.359375 53.484375 75.277344 53.484375 78.195312 53.480469 C 78.386719 53.480469 78.574219 53.480469 78.765625 53.480469 C 81.621094 53.480469 84.476562 53.476562 87.332031 53.472656 C 87.511719 53.472656 87.511719 53.472656 87.695312 53.472656 C 88.773438 53.472656 89.851562 53.472656 90.933594 53.472656 C 93.625 53.46875 96.316406 53.46875 99.003906 53.464844 C 100.878906 53.464844 102.753906 53.464844 104.628906 53.460938 C 105.742188 53.460938 106.855469 53.460938 107.96875 53.460938 C 108.714844 53.460938 109.457031 53.460938 110.199219 53.457031 C 110.625 53.457031 111.046875 53.457031 111.472656 53.457031 C 111.859375 53.457031 112.246094 53.457031 112.628906 53.457031 C 112.769531 53.457031 112.90625 53.457031 113.046875 53.457031 C 113.777344 53.457031 114.503906 53.4375 115.238281 53.375 C 116.308594 53.285156 117.351562 53.363281 118.410156 53.535156 Z M 118.410156 53.535156 "/>
<path style=" stroke:none;fill-rule:nonzero;fill:rgb(0%,0%,0%);fill-opacity:1;" d="M 114.359375 52.703125 C 114.515625 52.699219 114.515625 52.699219 114.675781 52.699219 C 114.933594 52.710938 115.179688 52.730469 115.4375 52.757812 C 115.976562 52.8125 116.511719 52.816406 117.054688 52.816406 C 117.160156 52.816406 117.269531 52.816406 117.382812 52.816406 C 117.6875 52.816406 117.988281 52.816406 118.289062 52.816406 C 118.621094 52.816406 118.949219 52.816406 119.28125 52.816406 C 119.863281 52.816406 120.445312 52.816406 121.023438 52.816406 C 121.894531 52.816406 122.765625 52.816406 123.632812 52.816406 C 125.117188 52.816406 126.597656 52.816406 128.082031 52.816406 C 129.582031 52.816406 131.085938 52.816406 132.589844 52.816406 C 132.730469 52.816406 132.730469 52.816406 132.875 52.816406 C 133.359375 52.816406 133.84375 52.816406 134.328125 52.816406 C 135.320312 52.816406 136.3125 52.820312 137.304688 52.820312 C 137.453125 52.820312 137.453125 52.820312 137.605469 52.820312 C 139.160156 52.820312 140.714844 52.820312 142.269531 52.820312 C 142.375 52.820312 142.480469 52.820312 142.589844 52.820312 C 143.015625 52.820312 143.441406 52.820312 143.871094 52.820312 C 149.085938 52.820312 154.300781 52.820312 159.519531 52.824219 C 160.738281 52.824219 161.960938 52.824219 163.179688 52.824219 C 163.40625 52.824219 163.628906 52.824219 163.851562 52.824219 C 164.300781 52.824219 164.75 52.824219 165.199219 52.824219 C 165.648438 52.824219 166.097656 52.824219 166.546875 52.824219 C 171.742188 52.828125 176.9375 52.828125 182.132812 52.828125 C 182.484375 52.832031 182.835938 52.832031 183.1875 52.832031 C 188.609375 52.832031 194.035156 52.832031 199.457031 52.832031 C 199.574219 52.832031 199.691406 52.832031 199.8125 52.832031 C 201.691406 52.832031 203.570312 52.832031 205.449219 52.835938 C 210.867188 52.835938 216.285156 52.835938 221.699219 52.835938 C 221.8125 52.835938 221.921875 52.835938 222.039062 52.835938 C 224.375 52.839844 226.710938 52.839844 229.046875 52.839844 C 230.140625 52.839844 231.234375 52.839844 232.328125 52.839844 C 232.4375 52.839844 232.542969 52.839844 232.65625 52.839844 C 236.125 52.84375 239.59375 52.84375 243.058594 52.84375 C 246.554688 52.84375 250.046875 52.84375 253.542969 52.84375 C 254.027344 52.84375 254.507812 52.847656 254.992188 52.847656 C 255.085938 52.847656 255.183594 52.847656 255.28125 52.847656 C 256.777344 52.847656 258.273438 52.847656 259.773438 52.847656 C 261.246094 52.84375 262.71875 52.847656 264.195312 52.847656 C 265.058594 52.847656 265.921875 52.847656 266.785156 52.847656 C 267.359375 52.847656 267.933594 52.847656 268.507812 52.847656 C 268.832031 52.847656 269.15625 52.847656 269.484375 52.847656 C 274.390625 52.832031 279.347656 54.21875 283.363281 57.105469 C 283.417969 57.144531 283.472656 57.183594 283.527344 57.222656 C 284.527344 57.929688 285.414062 58.722656 286.289062 59.578125 C 286.390625 59.675781 286.496094 59.773438 286.597656 59.871094 C 287.3125 60.570312 287.9375 61.320312 288.542969 62.121094 C 288.597656 62.195312 288.597656 62.195312 288.65625 62.269531 C 288.695312 62.320312 288.730469 62.371094 288.769531 62.421875 C 289.039062 62.773438 289.324219 63.097656 289.628906 63.421875 C 290.542969 64.398438 291.273438 65.472656 291.960938 66.621094 C 291.996094 66.679688 292.03125 66.738281 292.066406 66.800781 C 294.933594 71.570312 295.707031 77.429688 294.378906 82.804688 C 293.335938 86.84375 291.3125 90.148438 288.484375 93.164062 C 288.429688 93.222656 288.371094 93.28125 288.316406 93.34375 C 287.859375 93.816406 287.347656 94.21875 286.839844 94.625 C 286.761719 94.691406 286.683594 94.753906 286.601562 94.820312 C 283.125 97.648438 278.824219 99.292969 274.402344 99.84375 C 274.34375 99.851562 274.28125 99.859375 274.21875 99.867188 C 273.425781 99.964844 272.625 99.949219 271.824219 99.945312 C 271.65625 99.945312 271.484375 99.945312 271.3125 99.945312 C 270.84375 99.945312 270.371094 99.945312 269.902344 99.945312 C 269.386719 99.945312 268.875 99.945312 268.359375 99.945312 C 267.457031 99.949219 266.554688 99.949219 265.648438 99.949219 C 264.675781 99.949219 263.699219 99.949219 262.726562 99.949219 C 262.632812 99.949219 262.632812 99.949219 262.539062 99.949219 C 262.222656 99.949219 261.90625 99.949219 261.589844 99.949219 C 259.285156 99.949219 256.980469 99.949219 254.675781 99.949219 C 252.335938 99.949219 250 99.949219 247.664062 99.949219 C 247.515625 99.949219 247.363281 99.949219 247.214844 99.949219 C 246.617188 99.949219 246.015625 99.949219 245.414062 99.949219 C 238.804688 99.953125 232.199219 99.953125 225.589844 99.953125 C 225.507812 99.953125 225.421875 99.953125 225.335938 99.953125 C 224.914062 99.953125 224.492188 99.953125 224.070312 99.953125 C 220.527344 99.953125 216.984375 99.953125 213.441406 99.953125 C 211.746094 99.953125 210.046875 99.953125 208.351562 99.953125 C 208.226562 99.953125 208.226562 99.953125 208.097656 99.953125 C 204.035156 99.953125 199.976562 99.957031 195.914062 99.957031 C 195.785156 99.957031 195.785156 99.957031 195.652344 99.957031 C 190.132812 99.957031 184.613281 99.957031 179.089844 99.957031 C 178.636719 99.957031 178.1875 99.957031 177.734375 99.957031 C 177.007812 99.957031 176.28125 99.957031 175.554688 99.957031 C 175.421875 99.957031 175.421875 99.957031 175.285156 99.957031 C 175.101562 99.957031 174.921875 99.957031 174.738281 99.957031 C 173.464844 99.957031 172.1875 99.957031 170.914062 99.957031 C 170.457031 99.957031 170 99.957031 169.546875 99.957031 C 160.929688 99.957031 152.316406 99.957031 143.699219 99.957031 C 143.609375 99.957031 143.519531 99.957031 143.425781 99.957031 C 140.59375 99.960938 137.757812 99.960938 134.925781 99.960938 C 132.019531 99.960938 129.109375 99.960938 126.203125 99.960938 C 126.070312 99.960938 126.070312 99.960938 125.933594 99.960938 C 120.324219 99.960938 114.71875 99.964844 109.113281 99.964844 C 109.027344 99.964844 108.9375 99.964844 108.851562 99.964844 C 105.046875 99.964844 101.242188 99.964844 97.441406 99.964844 C 95.910156 99.964844 94.378906 99.964844 92.847656 99.964844 C 92.59375 99.964844 92.34375 99.964844 92.089844 99.964844 C 88.207031 99.964844 84.328125 99.964844 80.449219 99.964844 C 80.363281 99.964844 80.28125 99.964844 80.195312 99.964844 C 78.847656 99.964844 77.503906 99.964844 76.15625 99.964844 C 72.335938 99.96875 68.515625 99.96875 64.695312 99.96875 C 64.578125 99.96875 64.578125 99.96875 64.457031 99.96875 C 62.765625 99.96875 61.074219 99.96875 59.382812 99.96875 C 58.707031 99.96875 58.03125 99.96875 57.355469 99.96875 C 57.246094 99.96875 57.246094 99.96875 57.132812 99.96875 C 54.800781 99.96875 52.464844 99.96875 50.132812 99.96875 C 47.835938 99.96875 45.535156 99.96875 43.238281 99.96875 C 42.921875 99.96875 42.605469 99.96875 42.292969 99.96875 C 42.230469 99.96875 42.167969 99.96875 42.105469 99.96875 C 41.074219 99.96875 40.046875 99.96875 39.015625 99.96875 C 38.125 99.96875 37.230469 99.96875 36.339844 99.96875 C 35.832031 99.96875 35.328125 99.96875 34.820312 99.96875 C 31.011719 99.976562 31.011719 99.976562 29.167969 99.660156 C 29.035156 99.640625 28.902344 99.617188 28.769531 99.597656 C 24.515625 98.925781 20.289062 96.785156 17.160156 93.84375 C 16.964844 93.667969 16.769531 93.496094 16.566406 93.328125 C 16.285156 93.089844 16.050781 92.824219 15.8125 92.542969 C 15.613281 92.3125 15.40625 92.089844 15.195312 91.863281 C 14.820312 91.453125 14.484375 91.027344 14.148438 90.585938 C 13.898438 90.253906 13.636719 89.949219 13.355469 89.644531 C 11.5 87.636719 10.128906 85.269531 9.144531 82.730469 C 9.101562 82.625 9.058594 82.523438 9.015625 82.417969 C 8.394531 80.800781 8.066406 79.046875 7.863281 77.332031 C 7.851562 77.230469 7.839844 77.128906 7.828125 77.023438 C 7.316406 71.691406 8.960938 66.167969 12.253906 61.957031 C 12.300781 61.894531 12.351562 61.832031 12.398438 61.765625 C 13.367188 60.535156 14.425781 59.382812 15.636719 58.386719 C 15.710938 58.324219 15.785156 58.261719 15.859375 58.195312 C 16.902344 57.320312 18.023438 56.585938 19.203125 55.914062 C 19.265625 55.878906 19.332031 55.84375 19.398438 55.804688 C 21.398438 54.675781 23.578125 53.882812 25.820312 53.382812 C 25.9375 53.355469 25.9375 53.355469 26.054688 53.328125 C 26.328125 53.269531 26.605469 53.21875 26.882812 53.171875 C 27 53.148438 27.117188 53.125 27.238281 53.101562 C 28.8125 52.820312 30.394531 52.855469 31.988281 52.859375 C 32.421875 52.859375 32.855469 52.859375 33.289062 52.859375 C 34.046875 52.855469 34.804688 52.855469 35.5625 52.855469 C 36.691406 52.859375 37.816406 52.855469 38.945312 52.855469 C 40.84375 52.855469 42.742188 52.851562 44.636719 52.851562 C 46.515625 52.851562 48.394531 52.851562 50.273438 52.851562 C 50.390625 52.851562 50.507812 52.851562 50.628906 52.851562 C 51.222656 52.847656 51.816406 52.847656 52.410156 52.847656 C 53.617188 52.847656 54.824219 52.847656 56.03125 52.84375 C 56.09375 52.84375 56.152344 52.84375 56.214844 52.84375 C 59.085938 52.84375 61.957031 52.84375 64.828125 52.839844 C 65.148438 52.839844 65.464844 52.839844 65.78125 52.839844 C 65.84375 52.839844 65.90625 52.839844 65.972656 52.839844 C 66.671875 52.839844 67.375 52.839844 68.074219 52.839844 C 68.136719 52.839844 68.199219 52.839844 68.265625 52.839844 C 71.199219 52.839844 74.136719 52.835938 77.074219 52.835938 C 77.265625 52.835938 77.457031 52.835938 77.644531 52.835938 C 80.457031 52.832031 83.269531 52.832031 86.078125 52.828125 C 86.261719 52.828125 86.445312 52.828125 86.628906 52.828125 C 87.710938 52.828125 88.796875 52.828125 89.882812 52.828125 C 92.707031 52.824219 95.527344 52.824219 98.351562 52.820312 C 100.121094 52.820312 101.890625 52.820312 103.660156 52.820312 C 104.78125 52.820312 105.902344 52.820312 107.023438 52.820312 C 107.769531 52.820312 108.515625 52.816406 109.265625 52.816406 C 109.691406 52.816406 110.117188 52.816406 110.542969 52.816406 C 110.933594 52.816406 111.320312 52.816406 111.707031 52.816406 C 111.847656 52.816406 111.988281 52.816406 112.128906 52.816406 C 112.316406 52.816406 112.503906 52.816406 112.695312 52.816406 C 112.800781 52.816406 112.90625 52.816406 113.011719 52.816406 C 113.46875 52.796875 113.898438 52.699219 114.359375 52.703125 Z M 115.242188 53.375 C 114.441406 53.445312 113.644531 53.457031 112.84375 53.457031 C 112.699219 53.457031 112.554688 53.457031 112.410156 53.457031 C 112.015625 53.457031 111.621094 53.457031 111.226562 53.457031 C 110.796875 53.457031 110.367188 53.457031 109.933594 53.460938 C 109.183594 53.460938 108.429688 53.460938 107.675781 53.460938 C 106.554688 53.460938 105.433594 53.460938 104.316406 53.460938 C 102.429688 53.464844 100.542969 53.464844 98.660156 53.464844 C 95.964844 53.46875 93.269531 53.46875 90.574219 53.472656 C 89.496094 53.472656 88.414062 53.472656 87.332031 53.472656 C 87.210938 53.472656 87.089844 53.472656 86.964844 53.472656 C 84.167969 53.476562 81.371094 53.480469 78.574219 53.480469 C 78.386719 53.480469 78.195312 53.480469 78.007812 53.480469 C 75.089844 53.484375 72.171875 53.484375 69.25 53.488281 C 69.125 53.488281 69 53.488281 68.871094 53.488281 C 68.300781 53.488281 67.730469 53.488281 67.164062 53.488281 C 66.910156 53.488281 66.65625 53.488281 66.40625 53.488281 C 66.214844 53.488281 66.027344 53.488281 65.835938 53.488281 C 61.664062 53.492188 57.492188 53.496094 53.320312 53.496094 C 52.730469 53.5 52.140625 53.5 51.550781 53.5 C 51.433594 53.5 51.316406 53.5 51.199219 53.5 C 49.332031 53.5 47.46875 53.503906 45.601562 53.503906 C 43.726562 53.503906 41.851562 53.503906 39.976562 53.507812 C 38.863281 53.507812 37.75 53.507812 36.636719 53.507812 C 35.890625 53.507812 35.144531 53.507812 34.402344 53.511719 C 33.976562 53.511719 33.554688 53.511719 33.128906 53.511719 C 29.972656 53.492188 29.972656 53.492188 26.847656 53.914062 C 26.753906 53.933594 26.664062 53.953125 26.566406 53.972656 C 23.6875 54.601562 20.773438 55.722656 18.378906 57.472656 C 18.292969 57.535156 18.292969 57.535156 18.207031 57.597656 C 17.433594 58.15625 16.703125 58.742188 16 59.394531 C 15.878906 59.5 15.757812 59.601562 15.636719 59.707031 C 15.011719 60.25 14.429688 60.84375 13.894531 61.472656 C 13.757812 61.632812 13.617188 61.792969 13.472656 61.949219 C 10.046875 65.800781 8.230469 70.992188 8.503906 76.140625 C 8.769531 79.726562 9.796875 83.109375 11.796875 86.117188 C 11.851562 86.203125 11.851562 86.203125 11.910156 86.289062 C 12.789062 87.597656 13.839844 88.746094 14.953125 89.851562 C 15.121094 90.023438 15.289062 90.191406 15.457031 90.363281 C 16.175781 91.085938 16.921875 91.730469 17.738281 92.339844 C 17.816406 92.398438 17.894531 92.453125 17.972656 92.515625 C 21.933594 95.433594 26.769531 96.746094 31.644531 96.746094 C 31.789062 96.746094 31.933594 96.746094 32.082031 96.746094 C 32.480469 96.746094 32.878906 96.746094 33.277344 96.75 C 33.714844 96.75 34.148438 96.75 34.582031 96.75 C 35.445312 96.753906 36.308594 96.753906 37.171875 96.753906 C 38.203125 96.757812 39.234375 96.757812 40.269531 96.761719 C 42.761719 96.765625 45.257812 96.769531 47.753906 96.773438 C 48.933594 96.773438 50.113281 96.773438 51.292969 96.777344 C 55.269531 96.78125 59.242188 96.789062 63.21875 96.792969 C 63.535156 96.792969 63.851562 96.792969 64.167969 96.792969 C 64.230469 96.792969 64.292969 96.792969 64.359375 96.796875 C 64.996094 96.796875 65.628906 96.796875 66.265625 96.796875 C 66.394531 96.796875 66.523438 96.796875 66.648438 96.796875 C 70.75 96.804688 74.851562 96.808594 78.953125 96.816406 C 81.898438 96.820312 84.847656 96.828125 87.792969 96.832031 C 87.855469 96.832031 87.917969 96.832031 87.976562 96.832031 C 89.367188 96.832031 90.757812 96.835938 92.148438 96.835938 C 92.621094 96.835938 93.097656 96.835938 93.574219 96.839844 C 93.691406 96.839844 93.808594 96.839844 93.925781 96.839844 C 95.8125 96.839844 97.699219 96.84375 99.585938 96.847656 C 101.480469 96.851562 103.375 96.855469 105.269531 96.855469 C 106.394531 96.855469 107.523438 96.859375 108.648438 96.863281 C 109.398438 96.863281 110.152344 96.863281 110.902344 96.863281 C 111.332031 96.863281 111.761719 96.863281 112.1875 96.867188 C 112.578125 96.867188 112.96875 96.867188 113.359375 96.867188 C 113.5 96.867188 113.640625 96.867188 113.78125 96.867188 C 113.96875 96.871094 114.160156 96.871094 114.347656 96.867188 C 114.453125 96.867188 114.558594 96.867188 114.667969 96.867188 C 114.945312 96.851562 114.945312 96.851562 115.105469 96.636719 C 115.300781 96.457031 115.300781 96.457031 115.542969 96.421875 C 115.636719 96.429688 115.726562 96.433594 115.824219 96.441406 C 115.929688 96.445312 116.03125 96.453125 116.140625 96.457031 C 116.253906 96.464844 116.367188 96.472656 116.480469 96.480469 C 116.726562 96.492188 116.96875 96.503906 117.210938 96.515625 C 117.273438 96.519531 117.335938 96.519531 117.398438 96.523438 C 118.019531 96.554688 118.636719 96.558594 119.257812 96.558594 C 119.367188 96.558594 119.480469 96.558594 119.59375 96.558594 C 119.886719 96.558594 120.175781 96.558594 120.46875 96.558594 C 120.792969 96.558594 121.117188 96.558594 121.441406 96.558594 C 122.007812 96.558594 122.578125 96.558594 123.144531 96.558594 C 123.992188 96.558594 124.84375 96.558594 125.691406 96.558594 C 127.140625 96.558594 128.585938 96.558594 130.035156 96.554688 C 131.5 96.554688 132.96875 96.554688 134.433594 96.554688 C 134.574219 96.554688 134.574219 96.554688 134.714844 96.554688 C 135.09375 96.554688 135.472656 96.554688 135.847656 96.554688 C 140 96.550781 144.148438 96.550781 148.296875 96.546875 C 148.453125 96.546875 148.453125 96.546875 148.617188 96.546875 C 148.828125 96.546875 149.039062 96.546875 149.25 96.546875 C 151.476562 96.546875 153.703125 96.546875 155.925781 96.546875 C 163.070312 96.542969 170.210938 96.539062 177.351562 96.535156 C 177.691406 96.535156 178.03125 96.535156 178.375 96.535156 C 179.058594 96.535156 179.742188 96.535156 180.425781 96.53125 C 181.226562 96.53125 182.027344 96.53125 182.828125 96.53125 C 183.054688 96.53125 183.285156 96.53125 183.515625 96.53125 C 190.875 96.527344 198.238281 96.523438 205.597656 96.523438 C 210.890625 96.519531 216.183594 96.519531 221.476562 96.515625 C 221.585938 96.515625 221.691406 96.515625 221.804688 96.515625 C 224.195312 96.515625 226.585938 96.511719 228.976562 96.511719 C 229.832031 96.511719 230.6875 96.511719 231.542969 96.511719 C 231.753906 96.507812 231.96875 96.507812 232.179688 96.507812 C 235.566406 96.507812 238.953125 96.507812 242.339844 96.503906 C 245.753906 96.503906 249.164062 96.503906 252.578125 96.5 C 253.046875 96.5 253.519531 96.5 253.992188 96.5 C 254.128906 96.5 254.128906 96.5 254.273438 96.5 C 255.734375 96.5 257.195312 96.496094 258.65625 96.496094 C 260.097656 96.5 261.535156 96.496094 262.976562 96.496094 C 263.816406 96.496094 264.660156 96.492188 265.503906 96.496094 C 266.0625 96.496094 266.625 96.496094 267.1875 96.492188 C 267.503906 96.492188 267.820312 96.492188 268.136719 96.492188 C 271.101562 96.5 273.957031 96.199219 276.78125 95.265625 C 276.871094 95.238281 276.871094 95.238281 276.964844 95.207031 C 280.046875 94.179688 282.792969 92.402344 285.101562 90.140625 C 285.175781 90.070312 285.253906 89.996094 285.332031 89.917969 C 286.300781 88.976562 287.25 88.046875 288.027344 86.9375 C 288.066406 86.886719 288.101562 86.835938 288.140625 86.78125 C 291.15625 82.542969 292.511719 77.210938 291.683594 72.050781 C 290.976562 68.066406 289.214844 64.15625 286.28125 61.304688 C 286.105469 61.128906 285.941406 60.949219 285.78125 60.761719 C 285.1875 60.074219 284.53125 59.503906 283.820312 58.9375 C 283.746094 58.875 283.671875 58.8125 283.59375 58.75 C 282.992188 58.257812 282.363281 57.8125 281.71875 57.378906 C 281.59375 57.292969 281.59375 57.292969 281.464844 57.207031 C 278.617188 55.351562 275.128906 54.195312 271.75 53.902344 C 271.675781 53.894531 271.601562 53.886719 271.523438 53.878906 C 270.402344 53.78125 269.273438 53.796875 268.148438 53.800781 C 267.828125 53.800781 267.507812 53.800781 267.1875 53.796875 C 266.625 53.796875 266.0625 53.796875 265.5 53.796875 C 264.660156 53.800781 263.816406 53.796875 262.976562 53.796875 C 261.542969 53.796875 260.105469 53.796875 258.671875 53.796875 C 257.21875 53.796875 255.761719 53.796875 254.308594 53.796875 C 254.21875 53.796875 254.125 53.796875 254.03125 53.796875 C 253.5625 53.796875 253.09375 53.796875 252.625 53.796875 C 251.664062 53.796875 250.703125 53.796875 249.746094 53.796875 C 249.648438 53.796875 249.550781 53.796875 249.453125 53.796875 C 247.945312 53.796875 246.441406 53.796875 244.9375 53.796875 C 244.835938 53.796875 244.734375 53.796875 244.628906 53.796875 C 244.214844 53.796875 243.800781 53.796875 243.390625 53.796875 C 238.339844 53.796875 233.289062 53.792969 228.242188 53.792969 C 227.058594 53.792969 225.878906 53.792969 224.695312 53.789062 C 224.480469 53.789062 224.261719 53.789062 224.046875 53.789062 C 223.613281 53.789062 223.179688 53.789062 222.742188 53.789062 C 222.308594 53.789062 221.871094 53.789062 221.4375 53.789062 C 216.410156 53.789062 211.378906 53.785156 206.351562 53.785156 C 206.011719 53.785156 205.671875 53.785156 205.332031 53.785156 C 200.082031 53.785156 194.832031 53.78125 189.585938 53.78125 C 189.472656 53.78125 189.359375 53.78125 189.242188 53.78125 C 187.421875 53.78125 185.601562 53.78125 183.78125 53.78125 C 178.539062 53.78125 173.296875 53.78125 168.050781 53.777344 C 167.945312 53.777344 167.835938 53.777344 167.726562 53.777344 C 165.464844 53.777344 163.203125 53.777344 160.941406 53.773438 C 159.882812 53.773438 158.820312 53.773438 157.761719 53.773438 C 157.605469 53.773438 157.605469 53.773438 157.445312 53.773438 C 154.089844 53.773438 150.734375 53.773438 147.375 53.773438 C 143.996094 53.773438 140.613281 53.773438 137.230469 53.769531 C 136.761719 53.769531 136.292969 53.769531 135.828125 53.769531 C 135.691406 53.769531 135.691406 53.769531 135.550781 53.769531 C 134.101562 53.769531 132.652344 53.769531 131.199219 53.769531 C 129.773438 53.769531 128.347656 53.769531 126.921875 53.765625 C 126.085938 53.765625 125.25 53.765625 124.414062 53.769531 C 123.859375 53.769531 123.300781 53.769531 122.746094 53.765625 C 122.433594 53.765625 122.117188 53.765625 121.804688 53.765625 C 120.363281 53.773438 118.988281 53.675781 117.570312 53.433594 C 116.792969 53.304688 116.023438 53.304688 115.242188 53.375 Z M 115.242188 53.375 "/>
<path style=" stroke:none;fill-rule:nonzero;fill:rgb(98.823529%,99.215686%,99.215686%);fill-opacity:1;" d="M 29.113281 64.484375 C 29.207031 64.480469 29.304688 64.480469 29.402344 64.476562 C 29.496094 64.476562 29.589844 64.476562 29.683594 64.476562 C 29.769531 64.476562 29.855469 64.472656 29.941406 64.472656 C 30.253906 64.535156 30.34375 64.636719 30.539062 64.882812 C 30.65625 65.089844 30.757812 65.289062 30.855469 65.5 C 30.902344 65.589844 30.902344 65.589844 30.945312 65.683594 C 31.039062 65.878906 31.132812 66.078125 31.226562 66.273438 C 31.292969 66.410156 31.355469 66.546875 31.421875 66.683594 C 31.585938 67.027344 31.75 67.371094 31.910156 67.710938 C 32.09375 68.09375 32.277344 68.476562 32.460938 68.859375 C 32.550781 69.046875 32.640625 69.238281 32.730469 69.425781 C 32.984375 69.957031 33.246094 70.484375 33.511719 71.011719 C 33.730469 71.441406 33.921875 71.875 34.09375 72.324219 C 34.3125 72.84375 34.574219 73.339844 34.832031 73.839844 C 35.1875 74.546875 35.535156 75.253906 35.871094 75.96875 C 36.160156 76.574219 36.449219 77.179688 36.753906 77.777344 C 37.210938 78.6875 37.652344 79.609375 38.089844 80.53125 C 38.175781 80.710938 38.257812 80.886719 38.34375 81.066406 C 38.453125 81.292969 38.558594 81.523438 38.667969 81.75 C 38.699219 81.816406 38.730469 81.886719 38.765625 81.953125 C 38.847656 82.140625 38.847656 82.140625 38.953125 82.457031 C 38.867188 82.65625 38.867188 82.65625 38.769531 82.820312 C 38.191406 82.839844 37.613281 82.851562 37.035156 82.863281 C 36.839844 82.863281 36.644531 82.871094 36.445312 82.875 C 36.164062 82.886719 35.882812 82.890625 35.597656 82.894531 C 35.511719 82.898438 35.425781 82.898438 35.332031 82.902344 C 35.085938 82.90625 34.890625 82.894531 34.65625 82.820312 C 34.4375 82.605469 34.320312 82.367188 34.199219 82.089844 C 34.160156 82.015625 34.121094 81.945312 34.082031 81.871094 C 34.054688 81.808594 34.027344 81.75 34 81.6875 C 33.964844 81.621094 33.933594 81.550781 33.902344 81.480469 C 33.871094 81.410156 33.835938 81.339844 33.804688 81.265625 C 33.730469 81.109375 33.65625 80.953125 33.585938 80.796875 C 33.550781 80.722656 33.511719 80.644531 33.476562 80.566406 C 33.246094 80.082031 33.003906 79.601562 32.761719 79.121094 C 32.5 78.601562 32.238281 78.078125 31.972656 77.554688 C 31.945312 77.492188 31.914062 77.433594 31.882812 77.375 C 31.449219 76.503906 31.023438 75.628906 30.605469 74.75 C 30.363281 74.238281 30.113281 73.730469 29.855469 73.222656 C 29.609375 72.742188 29.410156 72.269531 29.261719 71.746094 C 28.996094 71.878906 28.964844 72.046875 28.847656 72.3125 C 28.804688 72.414062 28.757812 72.511719 28.710938 72.613281 C 28.664062 72.722656 28.617188 72.828125 28.570312 72.9375 C 28.238281 73.664062 27.90625 74.382812 27.527344 75.082031 C 27.273438 75.554688 27.035156 76.023438 26.816406 76.515625 C 26.359375 77.550781 25.859375 78.570312 25.347656 79.582031 C 25.117188 80.035156 24.890625 80.492188 24.664062 80.945312 C 24.394531 81.488281 24.394531 81.488281 24.261719 81.753906 C 24.183594 81.910156 24.105469 82.066406 24.03125 82.222656 C 23.792969 82.71875 23.792969 82.71875 23.589844 82.820312 C 23.460938 82.832031 23.332031 82.832031 23.203125 82.835938 C 23.125 82.835938 23.042969 82.835938 22.960938 82.835938 C 22.875 82.835938 22.789062 82.835938 22.699219 82.835938 C 22.609375 82.835938 22.523438 82.835938 22.429688 82.835938 C 22.242188 82.839844 22.054688 82.839844 21.867188 82.839844 C 21.582031 82.839844 21.292969 82.839844 21.003906 82.839844 C 20.824219 82.84375 20.640625 82.84375 20.460938 82.84375 C 20.371094 82.84375 20.285156 82.84375 20.195312 82.84375 C 20.078125 82.84375 20.078125 82.84375 19.953125 82.84375 C 19.847656 82.84375 19.847656 82.84375 19.742188 82.84375 C 19.566406 82.820312 19.566406 82.820312 19.382812 82.636719 C 19.398438 82.078125 19.695312 81.585938 19.9375 81.09375 C 19.984375 81 20.03125 80.90625 20.078125 80.808594 C 20.210938 80.535156 20.347656 80.257812 20.480469 79.984375 C 20.515625 79.914062 20.554688 79.839844 20.589844 79.765625 C 20.824219 79.292969 21.0625 78.824219 21.296875 78.351562 C 21.734375 77.492188 22.152344 76.625 22.558594 75.75 C 23.175781 74.433594 23.808594 73.121094 24.449219 71.8125 C 24.488281 71.730469 24.527344 71.652344 24.566406 71.566406 C 24.605469 71.488281 24.644531 71.410156 24.683594 71.328125 C 24.761719 71.171875 24.835938 71.015625 24.914062 70.859375 C 24.949219 70.785156 24.984375 70.710938 25.023438 70.632812 C 25.425781 69.808594 25.824219 68.976562 26.21875 68.144531 C 27.957031 64.484375 27.957031 64.484375 29.113281 64.484375 Z M 29.113281 64.484375 "/>
<path style=" stroke:none;fill-rule:nonzero;fill:rgb(99.607843%,88.235294%,66.27451%);fill-opacity:1;" d="M 46.632812 70.101562 C 47.449219 70.101562 48.261719 70.101562 49.101562 70.101562 C 49.511719 71.128906 49.511719 71.128906 49.65625 71.535156 C 49.707031 71.671875 49.707031 71.671875 49.753906 71.808594 C 49.789062 71.90625 49.824219 72 49.859375 72.101562 C 49.894531 72.203125 49.933594 72.304688 49.96875 72.414062 C 50.089844 72.746094 50.207031 73.078125 50.324219 73.414062 C 50.46875 73.816406 50.613281 74.21875 50.753906 74.621094 C 50.816406 74.796875 50.878906 74.96875 50.941406 75.140625 C 51.191406 75.851562 51.445312 76.558594 51.703125 77.269531 C 51.730469 77.351562 51.761719 77.4375 51.792969 77.523438 C 51.90625 77.839844 52.019531 78.15625 52.132812 78.46875 C 52.210938 78.679688 52.285156 78.890625 52.359375 79.101562 C 52.382812 79.160156 52.40625 79.222656 52.429688 79.285156 C 52.578125 79.699219 52.578125 79.699219 52.578125 79.800781 C 51.882812 79.800781 51.1875 79.800781 50.472656 79.800781 C 50.066406 78.78125 50.066406 78.78125 49.90625 78.285156 C 49.824219 77.964844 49.824219 77.964844 49.652344 77.695312 C 49.378906 77.6875 49.113281 77.6875 48.839844 77.6875 C 48.761719 77.6875 48.679688 77.6875 48.597656 77.6875 C 48.335938 77.6875 48.074219 77.691406 47.816406 77.691406 C 47.640625 77.691406 47.464844 77.691406 47.289062 77.691406 C 46.855469 77.691406 46.425781 77.695312 45.992188 77.695312 C 45.773438 78.199219 45.773438 78.199219 45.59375 78.71875 C 45.574219 78.777344 45.554688 78.835938 45.539062 78.894531 C 45.515625 78.964844 45.496094 79.035156 45.472656 79.109375 C 45.402344 79.335938 45.332031 79.566406 45.261719 79.800781 C 44.566406 79.800781 43.875 79.800781 43.160156 79.800781 C 43.46875 78.773438 43.46875 78.773438 43.621094 78.351562 C 43.652344 78.253906 43.6875 78.160156 43.722656 78.0625 C 43.761719 77.960938 43.796875 77.859375 43.835938 77.757812 C 43.875 77.652344 43.914062 77.542969 43.953125 77.433594 C 44.054688 77.144531 44.160156 76.859375 44.265625 76.570312 C 44.351562 76.332031 44.4375 76.09375 44.523438 75.855469 C 45.222656 73.933594 45.921875 72.015625 46.632812 70.101562 Z M 46.632812 70.101562 "/>
<path style=" stroke:none;fill-rule:nonzero;fill:rgb(98.431373%,87.058824%,65.882353%);fill-opacity:1;" d="M 200.726562 70.730469 C 200.8125 70.730469 200.902344 70.730469 200.992188 70.730469 C 201.132812 70.734375 201.132812 70.734375 201.277344 70.734375 C 201.378906 70.734375 201.476562 70.734375 201.578125 70.734375 C 201.730469 70.734375 201.730469 70.734375 201.882812 70.738281 C 202.128906 70.738281 202.378906 70.738281 202.625 70.742188 C 203.261719 72.496094 203.894531 74.253906 204.519531 76.011719 C 204.585938 76.195312 204.652344 76.382812 204.71875 76.566406 C 204.8125 76.828125 204.90625 77.089844 205 77.351562 C 205.027344 77.429688 205.054688 77.507812 205.085938 77.589844 C 205.277344 78.132812 205.277344 78.132812 205.277344 78.335938 C 204.644531 78.335938 204.007812 78.335938 203.355469 78.335938 C 203.28125 78.097656 203.207031 77.859375 203.128906 77.617188 C 203.105469 77.542969 203.082031 77.464844 203.054688 77.390625 C 202.898438 76.894531 202.898438 76.894531 202.898438 76.691406 C 201.964844 76.691406 201.027344 76.691406 200.066406 76.691406 C 200.035156 76.902344 200.003906 77.113281 199.972656 77.332031 C 199.867188 77.671875 199.734375 78 199.609375 78.335938 C 199.003906 78.335938 198.402344 78.335938 197.777344 78.335938 C 197.898438 77.792969 198.023438 77.300781 198.21875 76.785156 C 198.242188 76.71875 198.269531 76.648438 198.292969 76.582031 C 198.375 76.359375 198.457031 76.140625 198.539062 75.921875 C 198.597656 75.769531 198.652344 75.617188 198.710938 75.464844 C 198.828125 75.148438 198.945312 74.832031 199.0625 74.515625 C 199.238281 74.042969 199.414062 73.570312 199.585938 73.097656 C 199.667969 72.878906 199.75 72.65625 199.832031 72.4375 C 199.882812 72.292969 199.9375 72.152344 199.988281 72.011719 C 200.0625 71.8125 200.132812 71.617188 200.207031 71.421875 C 200.246094 71.308594 200.289062 71.195312 200.332031 71.082031 C 200.464844 70.742188 200.464844 70.742188 200.726562 70.730469 Z M 200.726562 70.730469 "/>
<path style=" stroke:none;fill-rule:nonzero;fill:rgb(99.607843%,88.235294%,66.27451%);fill-opacity:1;" d="M 68.253906 73.414062 C 68.777344 73.988281 68.957031 74.683594 68.953125 75.449219 C 68.953125 75.59375 68.953125 75.59375 68.953125 75.742188 C 68.953125 75.847656 68.953125 75.949219 68.953125 76.054688 C 68.953125 76.164062 68.953125 76.269531 68.953125 76.382812 C 68.953125 76.722656 68.949219 77.0625 68.949219 77.40625 C 68.949219 77.636719 68.949219 77.867188 68.949219 78.097656 C 68.945312 78.667969 68.945312 79.234375 68.945312 79.800781 C 68.371094 79.800781 67.796875 79.800781 67.207031 79.800781 C 67.160156 79.394531 67.160156 79.394531 67.113281 78.976562 C 67.023438 78.976562 66.933594 78.976562 66.839844 78.976562 C 66.707031 79.109375 66.707031 79.109375 66.582031 79.28125 C 66.234375 79.710938 65.839844 79.917969 65.285156 79.984375 C 64.578125 80.042969 63.984375 79.925781 63.378906 79.542969 C 62.929688 79.082031 62.847656 78.605469 62.8125 77.980469 C 62.824219 77.4375 62.972656 76.984375 63.246094 76.519531 C 64.09375 75.738281 65.359375 75.667969 66.457031 75.546875 C 66.71875 75.503906 66.890625 75.453125 67.113281 75.316406 C 67.113281 74.84375 67.113281 74.84375 66.90625 74.4375 C 66.390625 74.003906 65.929688 73.984375 65.285156 74.035156 C 64.679688 74.148438 64.105469 74.316406 63.550781 74.585938 C 63.550781 74.160156 63.550781 73.738281 63.550781 73.304688 C 65.0625 72.824219 66.847656 72.414062 68.253906 73.414062 Z M 68.253906 73.414062 "/>
<path style=" stroke:none;fill-rule:nonzero;fill:rgb(100%,88.627451%,66.666667%);fill-opacity:1;" d="M 98.210938 72.988281 C 98.695312 73.253906 98.929688 73.5625 99.105469 74.085938 C 99.386719 75.226562 99.332031 76.378906 99.316406 77.546875 C 99.316406 77.765625 99.316406 77.984375 99.3125 78.203125 C 99.3125 78.738281 99.304688 79.269531 99.300781 79.800781 C 98.699219 79.800781 98.09375 79.800781 97.472656 79.800781 C 97.46875 79.359375 97.46875 79.359375 97.460938 78.910156 C 97.457031 78.621094 97.453125 78.335938 97.449219 78.046875 C 97.445312 77.847656 97.441406 77.652344 97.441406 77.453125 C 97.4375 77.164062 97.433594 76.878906 97.425781 76.59375 C 97.425781 76.503906 97.425781 76.417969 97.425781 76.328125 C 97.410156 75.648438 97.308594 75.054688 96.914062 74.492188 C 96.554688 74.246094 96.257812 74.195312 95.828125 74.21875 C 95.351562 74.375 95.105469 74.636719 94.820312 75.042969 C 94.601562 75.542969 94.605469 76.027344 94.601562 76.566406 C 94.597656 76.660156 94.597656 76.75 94.59375 76.847656 C 94.589844 77.140625 94.585938 77.4375 94.582031 77.730469 C 94.578125 77.929688 94.574219 78.132812 94.570312 78.332031 C 94.5625 78.820312 94.554688 79.3125 94.546875 79.800781 C 93.941406 79.800781 93.339844 79.800781 92.71875 79.800781 C 92.71875 77.566406 92.71875 75.332031 92.71875 73.027344 C 93.320312 73.027344 93.925781 73.027344 94.546875 73.027344 C 94.605469 73.332031 94.667969 73.632812 94.730469 73.945312 C 95.023438 73.875 95.023438 73.875 95.203125 73.59375 C 95.875 72.746094 97.25 72.609375 98.210938 72.988281 Z M 98.210938 72.988281 "/>
<path style=" stroke:none;fill-rule:nonzero;fill:rgb(98.039216%,87.058824%,65.490196%);fill-opacity:1;" d="M 171.890625 73.453125 C 172.527344 74.078125 172.679688 74.71875 172.691406 75.589844 C 172.679688 76.457031 172.519531 77.039062 171.9375 77.691406 C 171.863281 77.753906 171.792969 77.816406 171.71875 77.878906 C 171.679688 77.929688 171.636719 77.976562 171.59375 78.027344 C 171.066406 78.472656 170.472656 78.472656 169.816406 78.46875 C 169.730469 78.46875 169.644531 78.472656 169.558594 78.472656 C 168.835938 78.472656 168.226562 78.316406 167.640625 77.886719 C 166.871094 77.0625 166.734375 76.328125 166.757812 75.226562 C 166.789062 74.5625 167.003906 74.0625 167.46875 73.582031 C 167.574219 73.488281 167.679688 73.394531 167.789062 73.304688 C 167.871094 73.222656 167.871094 73.222656 167.957031 73.136719 C 169.082031 72.511719 170.886719 72.695312 171.890625 73.453125 Z M 171.890625 73.453125 "/>
<path style=" stroke:none;fill-rule:nonzero;fill:rgb(98.431373%,87.058824%,65.490196%);fill-opacity:1;" d="M 221.300781 73.367188 C 221.792969 73.761719 222.105469 74.234375 222.191406 74.859375 C 222.203125 75.101562 222.210938 75.34375 222.210938 75.585938 C 222.210938 75.648438 222.210938 75.710938 222.214844 75.777344 C 222.214844 76.617188 221.882812 77.257812 221.3125 77.855469 C 220.421875 78.523438 219.363281 78.523438 218.304688 78.402344 C 217.640625 78.265625 217.140625 77.929688 216.761719 77.375 C 216.226562 76.519531 216.210938 75.558594 216.394531 74.578125 C 216.625 73.902344 217.113281 73.332031 217.75 73.007812 C 218.890625 72.636719 220.300781 72.6875 221.300781 73.367188 Z M 221.300781 73.367188 "/>
<path style=" stroke:none;fill-rule:nonzero;fill:rgb(98.039216%,86.666667%,65.490196%);fill-opacity:1;" d="M 163.917969 70.617188 C 164 70.613281 164.078125 70.613281 164.160156 70.613281 C 164.722656 70.617188 165.160156 70.722656 165.683594 70.925781 C 165.683594 71.4375 165.683594 71.949219 165.683594 72.480469 C 165.414062 72.390625 165.140625 72.296875 164.863281 72.207031 C 164.863281 72.144531 164.863281 72.085938 164.863281 72.023438 C 164.613281 72.015625 164.367188 72.007812 164.117188 72.003906 C 164.050781 72.003906 163.980469 72 163.90625 72 C 163.453125 71.992188 163.15625 72.050781 162.757812 72.296875 C 162.632812 72.402344 162.632812 72.402344 162.632812 72.6875 C 162.675781 73.128906 162.785156 73.207031 163.125 73.488281 C 163.398438 73.632812 163.679688 73.753906 163.964844 73.875 C 164.714844 74.214844 165.488281 74.582031 165.886719 75.347656 C 165.976562 75.648438 165.984375 75.914062 165.988281 76.226562 C 165.988281 76.335938 165.992188 76.441406 165.992188 76.554688 C 165.917969 77.253906 165.519531 77.621094 165.015625 78.066406 C 164.179688 78.675781 162.835938 78.601562 161.84375 78.519531 C 161.722656 78.492188 161.597656 78.460938 161.476562 78.429688 C 161.476562 78.367188 161.476562 78.308594 161.476562 78.246094 C 161.410156 78.25 161.339844 78.253906 161.265625 78.257812 C 161.019531 78.246094 161.019531 78.246094 160.746094 78.0625 C 160.714844 77.890625 160.714844 77.890625 160.71875 77.683594 C 160.722656 77.609375 160.722656 77.535156 160.722656 77.460938 C 160.726562 77.382812 160.726562 77.308594 160.730469 77.226562 C 160.730469 77.148438 160.730469 77.070312 160.734375 76.992188 C 160.738281 76.800781 160.742188 76.605469 160.746094 76.414062 C 161.019531 76.535156 161.289062 76.65625 161.570312 76.78125 C 161.570312 76.839844 161.570312 76.902344 161.570312 76.964844 C 161.953125 77.054688 162.316406 77.074219 162.707031 77.078125 C 162.824219 77.082031 162.941406 77.082031 163.0625 77.085938 C 163.421875 77.054688 163.640625 76.972656 163.945312 76.78125 C 164.082031 76.507812 164.085938 76.351562 164.039062 76.050781 C 163.640625 75.507812 163.007812 75.324219 162.394531 75.132812 C 162.394531 75.074219 162.394531 75.011719 162.394531 74.949219 C 162.324219 74.941406 162.257812 74.933594 162.191406 74.921875 C 161.652344 74.789062 161.164062 74.367188 160.878906 73.894531 C 160.636719 73.320312 160.636719 72.597656 160.804688 72.003906 C 161.066406 71.484375 161.542969 71.058594 162.066406 70.824219 C 162.675781 70.636719 163.289062 70.621094 163.917969 70.617188 Z M 163.917969 70.617188 "/>
<path style=" stroke:none;fill-rule:nonzero;fill:rgb(100%,88.627451%,66.666667%);fill-opacity:1;" d="M 81.5625 70.101562 C 82.195312 70.101562 82.828125 70.101562 83.480469 70.101562 C 83.484375 70.34375 83.488281 70.585938 83.488281 70.839844 C 83.496094 71.640625 83.503906 72.445312 83.511719 73.246094 C 83.519531 73.734375 83.523438 74.21875 83.527344 74.707031 C 83.53125 75.175781 83.535156 75.644531 83.542969 76.113281 C 83.542969 76.292969 83.546875 76.472656 83.546875 76.652344 C 83.550781 76.902344 83.550781 77.152344 83.554688 77.402344 C 83.554688 77.515625 83.554688 77.515625 83.554688 77.632812 C 83.53125 77.964844 83.53125 77.964844 83.664062 78.246094 C 83.921875 78.261719 84.175781 78.269531 84.433594 78.273438 C 84.511719 78.277344 84.589844 78.277344 84.667969 78.28125 C 84.914062 78.285156 85.160156 78.292969 85.40625 78.296875 C 85.574219 78.300781 85.742188 78.304688 85.910156 78.308594 C 86.320312 78.320312 86.730469 78.328125 87.140625 78.335938 C 87.140625 78.820312 87.140625 79.304688 87.140625 79.800781 C 85.300781 79.800781 83.457031 79.800781 81.5625 79.800781 C 81.5625 76.601562 81.5625 73.398438 81.5625 70.101562 Z M 81.5625 70.101562 "/>
<path style=" stroke:none;fill-rule:nonzero;fill:rgb(99.215686%,87.843137%,66.27451%);fill-opacity:1;" d="M 151.785156 70.285156 C 152.328125 70.285156 152.871094 70.285156 153.433594 70.285156 C 153.460938 71.945312 153.492188 73.605469 153.523438 75.316406 C 153.886719 74.742188 154.246094 74.167969 154.621094 73.578125 C 155.078125 72.9375 155.078125 72.9375 155.3125 72.863281 C 155.394531 72.867188 155.476562 72.871094 155.5625 72.875 C 155.652344 72.878906 155.742188 72.878906 155.832031 72.882812 C 155.972656 72.890625 155.972656 72.890625 156.113281 72.898438 C 156.253906 72.902344 156.253906 72.902344 156.398438 72.90625 C 156.628906 72.914062 156.859375 72.925781 157.089844 72.9375 C 156.703125 73.539062 156.28125 74.097656 155.824219 74.644531 C 155.574219 74.949219 155.378906 75.210938 155.261719 75.589844 C 155.320312 75.660156 155.320312 75.660156 155.378906 75.734375 C 155.816406 76.269531 156.226562 76.816406 156.632812 77.375 C 156.6875 77.449219 156.738281 77.523438 156.796875 77.597656 C 156.84375 77.667969 156.894531 77.738281 156.945312 77.808594 C 156.992188 77.871094 157.035156 77.933594 157.082031 77.996094 C 157.179688 78.152344 157.179688 78.152344 157.179688 78.335938 C 156.515625 78.488281 155.816406 78.597656 155.167969 78.335938 C 154.570312 77.777344 154.195312 77.015625 153.828125 76.289062 C 153.707031 76.039062 153.707031 76.039062 153.523438 75.773438 C 153.492188 76.621094 153.464844 77.464844 153.433594 78.335938 C 152.886719 78.335938 152.34375 78.335938 151.785156 78.335938 C 151.785156 75.679688 151.785156 73.023438 151.785156 70.285156 Z M 151.785156 70.285156 "/>
<path style=" stroke:none;fill-rule:nonzero;fill:rgb(97.254902%,86.27451%,65.098039%);fill-opacity:1;" d="M 180.863281 73.304688 C 181.320312 73.738281 181.515625 74.320312 181.535156 74.9375 C 181.535156 75.101562 181.53125 75.261719 181.53125 75.425781 C 181.53125 75.511719 181.527344 75.597656 181.527344 75.6875 C 181.527344 75.960938 181.523438 76.234375 181.519531 76.507812 C 181.519531 76.691406 181.515625 76.878906 181.515625 77.066406 C 181.511719 77.519531 181.507812 77.972656 181.503906 78.429688 C 180.960938 78.429688 180.417969 78.429688 179.855469 78.429688 C 179.8125 78.113281 179.8125 78.113281 179.765625 77.789062 C 179.683594 77.859375 179.605469 77.929688 179.519531 78.003906 C 179.015625 78.453125 178.507812 78.464844 177.855469 78.453125 C 177.382812 78.414062 177.136719 78.273438 176.816406 77.9375 C 176.484375 77.4375 176.394531 77.007812 176.472656 76.414062 C 176.664062 75.804688 177.015625 75.457031 177.550781 75.125 C 177.820312 75.015625 178.0625 75.007812 178.355469 74.992188 C 178.667969 74.972656 178.917969 74.960938 179.21875 74.859375 C 179.429688 74.855469 179.644531 74.855469 179.855469 74.859375 C 179.757812 74.363281 179.757812 74.363281 179.398438 74.035156 C 179.09375 74.003906 178.792969 74.023438 178.484375 74.035156 C 178.421875 74.039062 178.355469 74.042969 178.289062 74.042969 C 177.796875 74.085938 177.449219 74.257812 177.023438 74.492188 C 177.023438 74.070312 177.023438 73.648438 177.023438 73.210938 C 178.234375 72.785156 179.753906 72.488281 180.863281 73.304688 Z M 180.863281 73.304688 "/>
<path style=" stroke:none;fill-rule:nonzero;fill:rgb(100%,88.627451%,66.666667%);fill-opacity:1;" d="M 56.050781 70.925781 C 56.054688 71.007812 56.054688 71.007812 56.054688 71.089844 C 56.066406 71.335938 56.074219 71.582031 56.085938 71.828125 C 56.089844 71.914062 56.089844 72 56.09375 72.085938 C 56.097656 72.210938 56.097656 72.210938 56.105469 72.335938 C 56.109375 72.410156 56.109375 72.488281 56.113281 72.566406 C 56.125 72.773438 56.125 72.773438 56.324219 72.9375 C 56.558594 72.964844 56.785156 72.984375 57.023438 72.996094 C 57.121094 73 57.121094 73 57.21875 73.003906 C 57.378906 73.015625 57.539062 73.023438 57.695312 73.027344 C 57.695312 73.453125 57.695312 73.875 57.695312 74.308594 C 57.59375 74.316406 57.488281 74.320312 57.378906 74.328125 C 57.242188 74.335938 57.109375 74.34375 56.972656 74.351562 C 56.867188 74.355469 56.867188 74.355469 56.761719 74.359375 C 56.425781 74.351562 56.425781 74.351562 56.140625 74.492188 C 56.132812 74.714844 56.125 74.9375 56.125 75.160156 C 56.125 75.261719 56.125 75.261719 56.121094 75.363281 C 56.121094 75.507812 56.121094 75.652344 56.121094 75.792969 C 56.121094 76.011719 56.117188 76.230469 56.113281 76.445312 C 56.113281 76.585938 56.113281 76.726562 56.113281 76.863281 C 56.113281 76.929688 56.109375 76.992188 56.109375 77.058594 C 56.113281 77.589844 56.238281 77.984375 56.539062 78.421875 C 56.765625 78.566406 56.945312 78.546875 57.210938 78.539062 C 57.371094 78.53125 57.53125 78.527344 57.695312 78.519531 C 57.695312 78.941406 57.695312 79.367188 57.695312 79.800781 C 56.804688 80.070312 55.910156 80.101562 55.046875 79.710938 C 54.515625 79.292969 54.308594 78.808594 54.222656 78.152344 C 54.207031 77.871094 54.203125 77.585938 54.195312 77.304688 C 54.195312 77.222656 54.191406 77.140625 54.191406 77.058594 C 54.183594 76.71875 54.179688 76.375 54.171875 76.035156 C 54.167969 75.785156 54.160156 75.535156 54.15625 75.285156 C 54.15625 75.207031 54.152344 75.128906 54.152344 75.046875 C 54.179688 74.695312 54.179688 74.695312 54.039062 74.402344 C 53.886719 74.378906 53.730469 74.363281 53.578125 74.351562 C 53.425781 74.335938 53.277344 74.324219 53.125 74.308594 C 53.125 73.886719 53.125 73.464844 53.125 73.027344 C 53.359375 73.007812 53.59375 72.988281 53.832031 72.964844 C 54.035156 72.960938 54.035156 72.960938 54.132812 72.847656 C 54.152344 72.601562 54.167969 72.355469 54.183594 72.109375 C 54.1875 72.039062 54.191406 71.96875 54.195312 71.898438 C 54.203125 71.726562 54.214844 71.554688 54.222656 71.382812 C 54.457031 71.304688 54.695312 71.230469 54.929688 71.152344 C 54.996094 71.132812 55.0625 71.109375 55.132812 71.085938 C 55.199219 71.066406 55.261719 71.046875 55.328125 71.023438 C 55.390625 71.003906 55.449219 70.984375 55.507812 70.964844 C 55.683594 70.925781 55.683594 70.925781 56.050781 70.925781 Z M 56.050781 70.925781 "/>
<path style=" stroke:none;fill-rule:nonzero;fill:rgb(98.039216%,87.058824%,65.490196%);fill-opacity:1;" d="M 191.46875 72.792969 C 191.558594 72.796875 191.644531 72.796875 191.738281 72.796875 C 192.375 72.816406 192.878906 72.898438 193.390625 73.304688 C 193.464844 73.355469 193.535156 73.410156 193.613281 73.464844 C 194.023438 74.054688 194.070312 74.714844 194.058594 75.414062 C 194.054688 75.5 194.054688 75.582031 194.054688 75.667969 C 194.054688 75.933594 194.050781 76.199219 194.046875 76.464844 C 194.046875 76.648438 194.042969 76.828125 194.042969 77.011719 C 194.039062 77.453125 194.035156 77.894531 194.03125 78.335938 C 193.488281 78.335938 192.945312 78.335938 192.382812 78.335938 C 192.339844 78.066406 192.339844 78.066406 192.292969 77.789062 C 192.210938 77.859375 192.128906 77.929688 192.046875 78.003906 C 191.632812 78.375 191.242188 78.453125 190.691406 78.453125 C 190.589844 78.453125 190.492188 78.453125 190.386719 78.453125 C 190.019531 78.421875 189.761719 78.347656 189.476562 78.109375 C 189.074219 77.625 189.023438 77.226562 189.058594 76.605469 C 189.121094 76.085938 189.222656 75.796875 189.648438 75.460938 C 189.914062 75.316406 189.914062 75.316406 190.097656 75.316406 C 190.097656 75.257812 190.097656 75.195312 190.097656 75.132812 C 190.851562 75.042969 191.605469 74.953125 192.382812 74.859375 C 192.277344 74.226562 192.277344 74.226562 191.925781 74.035156 C 191.171875 73.941406 190.339844 74.023438 189.730469 74.492188 C 189.671875 74.492188 189.613281 74.492188 189.550781 74.492188 C 189.550781 74.070312 189.550781 73.648438 189.550781 73.210938 C 190.214844 72.910156 190.742188 72.78125 191.46875 72.792969 Z M 191.46875 72.792969 "/>
<path style=" stroke:none;fill-rule:nonzero;fill:rgb(100%,88.627451%,66.666667%);fill-opacity:1;" d="M 75.34375 73.027344 C 75.34375 73.453125 75.34375 73.875 75.34375 74.308594 C 75.167969 74.265625 74.988281 74.21875 74.808594 74.171875 C 74.148438 74.023438 73.5625 73.910156 72.921875 74.160156 C 72.6875 74.300781 72.6875 74.300781 72.511719 74.492188 C 72.480469 74.808594 72.480469 74.808594 72.601562 75.132812 C 73.089844 75.542969 73.667969 75.730469 74.265625 75.9375 C 74.769531 76.113281 75.300781 76.320312 75.5625 76.820312 C 75.832031 77.421875 75.808594 78.132812 75.601562 78.75 C 75.0625 79.492188 74.386719 79.800781 73.496094 79.957031 C 72.476562 80.070312 71.578125 79.933594 70.589844 79.710938 C 70.589844 79.257812 70.589844 78.804688 70.589844 78.335938 C 70.699219 78.378906 70.8125 78.421875 70.925781 78.460938 C 71.769531 78.742188 72.660156 78.933594 73.515625 78.613281 C 73.785156 78.425781 73.859375 78.335938 73.933594 78.023438 C 73.859375 77.695312 73.6875 77.523438 73.425781 77.332031 C 73.035156 77.148438 72.625 77.019531 72.21875 76.882812 C 71.609375 76.667969 71.078125 76.417969 70.742188 75.835938 C 70.542969 75.128906 70.523438 74.574219 70.824219 73.886719 C 71.140625 73.367188 71.671875 73.136719 72.230469 72.949219 C 73.234375 72.710938 74.351562 72.773438 75.34375 73.027344 Z M 75.34375 73.027344 "/>
<path style=" stroke:none;fill-rule:nonzero;fill:rgb(98.039216%,87.058824%,65.490196%);fill-opacity:1;" d="M 186.933594 72.816406 C 187.433594 73.046875 187.742188 73.375 188.007812 73.855469 C 188.128906 74.265625 188.109375 74.667969 188.105469 75.09375 C 188.105469 75.1875 188.105469 75.277344 188.105469 75.375 C 188.101562 75.667969 188.101562 75.964844 188.097656 76.261719 C 188.097656 76.460938 188.097656 76.664062 188.09375 76.863281 C 188.09375 77.355469 188.089844 77.84375 188.085938 78.335938 C 187.542969 78.335938 187 78.335938 186.441406 78.335938 C 186.4375 78.085938 186.433594 77.832031 186.429688 77.574219 C 186.425781 77.328125 186.421875 77.082031 186.417969 76.835938 C 186.414062 76.667969 186.410156 76.496094 186.410156 76.328125 C 186.40625 76.082031 186.402344 75.839844 186.394531 75.59375 C 186.394531 75.519531 186.394531 75.441406 186.394531 75.363281 C 186.382812 74.941406 186.355469 74.648438 186.074219 74.308594 C 185.738281 74.199219 185.421875 74.164062 185.070312 74.21875 C 184.847656 74.390625 184.734375 74.519531 184.613281 74.769531 C 184.597656 75.042969 184.589844 75.3125 184.582031 75.585938 C 184.582031 75.667969 184.578125 75.75 184.578125 75.832031 C 184.570312 76.089844 184.566406 76.351562 184.558594 76.609375 C 184.554688 76.785156 184.550781 76.960938 184.546875 77.136719 C 184.539062 77.566406 184.53125 77.996094 184.519531 78.429688 C 183.945312 78.429688 183.375 78.429688 182.78125 78.429688 C 182.78125 76.617188 182.78125 74.804688 182.78125 72.9375 C 183.355469 72.9375 183.929688 72.9375 184.519531 72.9375 C 184.550781 73.148438 184.582031 73.359375 184.613281 73.578125 C 184.667969 73.527344 184.726562 73.472656 184.785156 73.421875 C 184.859375 73.355469 184.933594 73.285156 185.011719 73.21875 C 185.085938 73.152344 185.160156 73.085938 185.238281 73.015625 C 185.699219 72.621094 186.367188 72.65625 186.933594 72.816406 Z M 186.933594 72.816406 "/>
<path style=" stroke:none;fill-rule:nonzero;fill:rgb(98.431373%,87.058824%,65.882353%);fill-opacity:1;" d="M 234.199219 72.890625 C 234.609375 73.042969 234.84375 73.316406 235.085938 73.667969 C 235.304688 74.167969 235.292969 74.636719 235.285156 75.171875 C 235.285156 75.265625 235.285156 75.355469 235.285156 75.449219 C 235.285156 75.734375 235.28125 76.023438 235.28125 76.3125 C 235.277344 76.507812 235.277344 76.703125 235.277344 76.898438 C 235.273438 77.378906 235.273438 77.859375 235.269531 78.335938 C 234.726562 78.335938 234.183594 78.335938 233.621094 78.335938 C 233.617188 77.96875 233.617188 77.96875 233.613281 77.59375 C 233.609375 77.359375 233.601562 77.121094 233.597656 76.882812 C 233.59375 76.714844 233.59375 76.550781 233.589844 76.386719 C 233.585938 76.148438 233.582031 75.910156 233.578125 75.671875 C 233.578125 75.601562 233.578125 75.527344 233.574219 75.453125 C 233.5625 75.007812 233.507812 74.691406 233.257812 74.308594 C 232.917969 74.199219 232.601562 74.164062 232.25 74.21875 C 232.027344 74.390625 231.917969 74.519531 231.792969 74.769531 C 231.777344 75.042969 231.769531 75.3125 231.765625 75.585938 C 231.761719 75.667969 231.761719 75.75 231.757812 75.832031 C 231.753906 76.089844 231.746094 76.351562 231.742188 76.609375 C 231.738281 76.785156 231.734375 76.960938 231.730469 77.136719 C 231.71875 77.566406 231.710938 77.996094 231.703125 78.429688 C 231.128906 78.429688 230.554688 78.429688 229.964844 78.429688 C 229.964844 76.617188 229.964844 74.804688 229.964844 72.9375 C 230.539062 72.9375 231.113281 72.9375 231.703125 72.9375 C 231.730469 73.148438 231.761719 73.359375 231.792969 73.578125 C 231.859375 73.507812 231.925781 73.4375 231.992188 73.367188 C 232.640625 72.75 233.335938 72.710938 234.199219 72.890625 Z M 234.199219 72.890625 "/>
<path style=" stroke:none;fill-rule:nonzero;fill:rgb(98.823529%,87.45098%,65.882353%);fill-opacity:1;" d="M 149.773438 73.121094 C 150.269531 73.605469 150.421875 74.082031 150.433594 74.753906 C 150.433594 74.917969 150.433594 75.085938 150.433594 75.253906 C 150.433594 75.34375 150.433594 75.429688 150.429688 75.523438 C 150.429688 75.800781 150.429688 76.082031 150.425781 76.363281 C 150.425781 76.554688 150.425781 76.746094 150.421875 76.9375 C 150.421875 77.402344 150.417969 77.871094 150.414062 78.335938 C 149.871094 78.335938 149.328125 78.335938 148.769531 78.335938 C 148.765625 78.085938 148.761719 77.832031 148.757812 77.574219 C 148.753906 77.328125 148.75 77.082031 148.746094 76.835938 C 148.742188 76.667969 148.738281 76.496094 148.738281 76.328125 C 148.734375 76.082031 148.730469 75.839844 148.722656 75.59375 C 148.722656 75.519531 148.722656 75.441406 148.722656 75.363281 C 148.710938 74.941406 148.683594 74.648438 148.402344 74.308594 C 148.066406 74.199219 147.75 74.164062 147.398438 74.21875 C 147.175781 74.390625 147.0625 74.519531 146.941406 74.769531 C 146.925781 75.035156 146.917969 75.300781 146.910156 75.566406 C 146.910156 75.644531 146.90625 75.722656 146.90625 75.804688 C 146.898438 76.058594 146.894531 76.3125 146.886719 76.5625 C 146.882812 76.734375 146.878906 76.90625 146.875 77.078125 C 146.867188 77.496094 146.859375 77.917969 146.847656 78.335938 C 146.273438 78.335938 145.703125 78.335938 145.109375 78.335938 C 145.109375 76.554688 145.109375 74.773438 145.109375 72.9375 C 145.683594 72.9375 146.257812 72.9375 146.847656 72.9375 C 146.878906 73.148438 146.910156 73.359375 146.941406 73.578125 C 147.003906 73.507812 147.0625 73.4375 147.128906 73.367188 C 147.851562 72.703125 148.929688 72.605469 149.773438 73.121094 Z M 149.773438 73.121094 "/>
<path style=" stroke:none;fill-rule:nonzero;fill:rgb(99.215686%,87.843137%,66.27451%);fill-opacity:1;" d="M 223.289062 72.9375 C 223.832031 72.9375 224.375 72.9375 224.9375 72.9375 C 224.9375 73.195312 224.9375 73.457031 224.941406 73.722656 C 224.941406 73.972656 224.945312 74.226562 224.949219 74.476562 C 224.953125 74.652344 224.953125 74.824219 224.953125 75 C 224.953125 75.25 224.957031 75.5 224.960938 75.753906 C 224.960938 75.832031 224.960938 75.90625 224.960938 75.988281 C 224.972656 76.390625 224.988281 76.550781 225.246094 76.875 C 225.5625 77.113281 225.734375 77.117188 226.117188 77.09375 C 226.390625 77.039062 226.511719 76.917969 226.671875 76.691406 C 226.824219 76.386719 226.785156 76.042969 226.792969 75.707031 C 226.796875 75.628906 226.796875 75.550781 226.800781 75.46875 C 226.804688 75.214844 226.8125 74.964844 226.816406 74.710938 C 226.820312 74.539062 226.824219 74.367188 226.828125 74.199219 C 226.835938 73.777344 226.847656 73.359375 226.855469 72.9375 C 227.398438 72.9375 227.941406 72.9375 228.5 72.9375 C 228.5 74.71875 228.5 76.5 228.5 78.335938 C 227.957031 78.335938 227.414062 78.335938 226.855469 78.335938 C 226.8125 78.019531 226.8125 78.019531 226.765625 77.695312 C 226.722656 77.734375 226.683594 77.769531 226.640625 77.808594 C 226.585938 77.859375 226.53125 77.910156 226.472656 77.960938 C 226.417969 78.007812 226.363281 78.058594 226.308594 78.109375 C 225.796875 78.492188 225.277344 78.46875 224.660156 78.429688 C 224.144531 78.351562 223.914062 78.179688 223.589844 77.792969 C 223.253906 77.25 223.265625 76.714844 223.273438 76.101562 C 223.273438 76.011719 223.273438 75.921875 223.273438 75.828125 C 223.273438 75.539062 223.277344 75.25 223.277344 74.960938 C 223.28125 74.765625 223.28125 74.570312 223.28125 74.375 C 223.28125 73.894531 223.285156 73.417969 223.289062 72.9375 Z M 223.289062 72.9375 "/>
<path style=" stroke:none;fill-rule:nonzero;fill:rgb(100%,88.627451%,66.666667%);fill-opacity:1;" d="M 101.402344 69.550781 C 102.007812 69.550781 102.609375 69.550781 103.234375 69.550781 C 103.246094 70.40625 103.257812 71.261719 103.269531 72.113281 C 103.273438 72.511719 103.28125 72.90625 103.285156 73.304688 C 103.289062 73.6875 103.296875 74.070312 103.300781 74.453125 C 103.304688 74.597656 103.304688 74.746094 103.308594 74.890625 C 103.308594 75.097656 103.3125 75.300781 103.316406 75.503906 C 103.316406 75.679688 103.316406 75.679688 103.320312 75.859375 C 103.324219 76.300781 103.316406 76.742188 103.304688 77.183594 C 103.300781 77.257812 103.300781 77.332031 103.296875 77.410156 C 103.292969 77.648438 103.285156 77.886719 103.277344 78.125 C 103.273438 78.289062 103.269531 78.449219 103.265625 78.609375 C 103.253906 79.007812 103.242188 79.40625 103.234375 79.800781 C 102.628906 79.800781 102.027344 79.800781 101.402344 79.800781 C 101.402344 76.417969 101.402344 73.035156 101.402344 69.550781 Z M 101.402344 69.550781 "/>
<path style=" stroke:none;fill-rule:nonzero;fill:rgb(100%,88.627451%,66.666667%);fill-opacity:1;" d="M 59.34375 69.550781 C 59.945312 69.550781 60.550781 69.550781 61.171875 69.550781 C 61.171875 72.933594 61.171875 76.316406 61.171875 79.800781 C 60.566406 79.800781 59.964844 79.800781 59.34375 79.800781 C 59.34375 76.417969 59.34375 73.035156 59.34375 69.550781 Z M 59.34375 69.550781 "/>
<path style=" stroke:none;fill-rule:nonzero;fill:rgb(98.039216%,87.058824%,65.490196%);fill-opacity:1;" d="M 136.605469 70.742188 C 137.179688 70.742188 137.753906 70.742188 138.34375 70.742188 C 138.34375 72.792969 138.34375 74.847656 138.34375 76.964844 C 139.28125 76.964844 140.214844 76.964844 141.179688 76.964844 C 141.179688 77.417969 141.179688 77.871094 141.179688 78.335938 C 139.671875 78.335938 138.160156 78.335938 136.605469 78.335938 C 136.605469 75.832031 136.605469 73.324219 136.605469 70.742188 Z M 136.605469 70.742188 "/>
<path style=" stroke:none;fill-rule:nonzero;fill:rgb(97.254902%,86.27451%,65.098039%);fill-opacity:1;" d="M 238.742188 71.289062 C 238.742188 71.804688 238.742188 72.316406 238.742188 72.847656 C 239.136719 72.847656 239.527344 72.847656 239.929688 72.847656 C 239.929688 73.300781 239.929688 73.753906 239.929688 74.21875 C 239.539062 74.21875 239.148438 74.21875 238.742188 74.21875 C 238.773438 75.125 238.804688 76.03125 238.835938 76.964844 C 239.097656 77.050781 239.265625 77.066406 239.539062 77.0625 C 239.667969 77.058594 239.796875 77.058594 239.929688 77.054688 C 239.929688 77.480469 239.929688 77.902344 239.929688 78.335938 C 239.464844 78.492188 239.226562 78.542969 238.753906 78.53125 C 238.648438 78.53125 238.542969 78.527344 238.433594 78.527344 C 238.355469 78.523438 238.277344 78.523438 238.195312 78.519531 C 238.195312 78.460938 238.195312 78.398438 238.195312 78.335938 C 238.113281 78.332031 238.03125 78.328125 237.949219 78.324219 C 237.621094 78.238281 237.496094 78.128906 237.285156 77.867188 C 237.023438 77.40625 236.984375 76.976562 236.988281 76.453125 C 236.988281 76.390625 236.988281 76.324219 236.988281 76.257812 C 236.988281 76.054688 236.992188 75.851562 236.992188 75.648438 C 236.996094 75.511719 236.996094 75.371094 236.996094 75.234375 C 237 74.894531 237 74.558594 237.003906 74.21875 C 236.703125 74.21875 236.402344 74.21875 236.089844 74.21875 C 236.089844 73.796875 236.089844 73.375 236.089844 72.9375 C 236.394531 72.9375 236.695312 72.9375 237.003906 72.9375 C 237.003906 72.546875 237.003906 72.152344 237.003906 71.746094 C 237.226562 71.671875 237.445312 71.59375 237.667969 71.519531 C 237.730469 71.496094 237.792969 71.476562 237.855469 71.453125 C 238.171875 71.347656 238.40625 71.289062 238.742188 71.289062 Z M 238.742188 71.289062 "/>
<path style=" stroke:none;fill-rule:nonzero;fill:rgb(52.941176%,95.686275%,94.509804%);fill-opacity:1;" d="M 117.863281 53.71875 C 117.953125 53.71875 118.042969 53.71875 118.136719 53.71875 C 118.136719 67.824219 118.136719 81.925781 118.136719 96.457031 C 118.046875 96.488281 117.957031 96.515625 117.863281 96.546875 C 117.707031 96.390625 117.761719 96.195312 117.757812 95.988281 C 117.757812 95.917969 117.757812 95.851562 117.757812 95.78125 C 117.757812 95.710938 117.757812 95.636719 117.757812 95.5625 C 117.757812 95.320312 117.757812 95.074219 117.757812 94.832031 C 117.757812 94.65625 117.757812 94.480469 117.757812 94.304688 C 117.757812 93.820312 117.757812 93.335938 117.757812 92.851562 C 117.757812 92.328125 117.757812 91.808594 117.757812 91.285156 C 117.757812 90.261719 117.757812 89.238281 117.757812 88.21875 C 117.757812 87.386719 117.757812 86.554688 117.757812 85.722656 C 117.757812 85.546875 117.757812 85.546875 117.757812 85.367188 C 117.757812 85.125 117.757812 84.886719 117.757812 84.648438 C 117.757812 82.460938 117.757812 80.273438 117.757812 78.085938 C 117.761719 76.089844 117.761719 74.089844 117.757812 72.09375 C 117.757812 69.851562 117.757812 67.605469 117.757812 65.363281 C 117.757812 65.125 117.757812 64.886719 117.757812 64.648438 C 117.757812 64.53125 117.757812 64.414062 117.757812 64.292969 C 117.757812 63.460938 117.757812 62.628906 117.757812 61.800781 C 117.757812 60.789062 117.757812 59.777344 117.757812 58.765625 C 117.757812 58.25 117.757812 57.730469 117.757812 57.214844 C 117.757812 56.742188 117.757812 56.269531 117.757812 55.800781 C 117.757812 55.628906 117.757812 55.457031 117.757812 55.285156 C 117.757812 55.054688 117.757812 54.820312 117.757812 54.589844 C 117.757812 54.523438 117.757812 54.453125 117.757812 54.382812 C 117.761719 53.921875 117.761719 53.921875 117.863281 53.71875 Z M 117.863281 53.71875 "/>
<path style=" stroke:none;fill-rule:nonzero;fill:rgb(19.215686%,98.431373%,98.823529%);fill-opacity:1;" d="M 26.332031 81.265625 C 28.175781 81.265625 30.015625 81.265625 31.910156 81.265625 C 31.707031 81.882812 31.707031 81.882812 31.558594 82.164062 C 31.527344 82.230469 31.496094 82.292969 31.460938 82.359375 C 31.425781 82.425781 31.390625 82.492188 31.355469 82.5625 C 31.320312 82.632812 31.285156 82.703125 31.246094 82.777344 C 31.128906 83.003906 31.011719 83.230469 30.894531 83.457031 C 30.816406 83.605469 30.742188 83.753906 30.664062 83.902344 C 30.203125 84.796875 29.734375 85.6875 29.261719 86.574219 C 29.199219 86.574219 29.140625 86.574219 29.078125 86.574219 C 29.050781 86.527344 29.027344 86.476562 29.003906 86.429688 C 28.519531 85.496094 28.03125 84.566406 27.539062 83.640625 C 27.503906 83.570312 27.464844 83.5 27.425781 83.425781 C 27.238281 83.070312 27.050781 82.71875 26.863281 82.363281 C 26.792969 82.234375 26.726562 82.101562 26.65625 81.972656 C 26.621094 81.910156 26.589844 81.851562 26.558594 81.789062 C 26.332031 81.367188 26.332031 81.367188 26.332031 81.265625 Z M 26.332031 81.265625 "/>
<path style=" stroke:none;fill-rule:nonzero;fill:rgb(97.647059%,86.27451%,65.098039%);fill-opacity:1;" d="M 214.132812 72.828125 C 214.242188 72.828125 214.242188 72.828125 214.355469 72.824219 C 214.425781 72.824219 214.496094 72.824219 214.570312 72.824219 C 214.664062 72.824219 214.664062 72.824219 214.761719 72.824219 C 214.96875 72.847656 214.96875 72.847656 215.519531 73.027344 C 215.519531 73.511719 215.519531 73.996094 215.519531 74.492188 C 215.304688 74.402344 215.09375 74.3125 214.878906 74.21875 C 214.351562 74.144531 213.816406 74.195312 213.324219 74.402344 C 212.917969 74.808594 212.851562 75.160156 212.835938 75.71875 C 212.84375 76.175781 212.902344 76.441406 213.230469 76.78125 C 213.710938 77.0625 214.148438 77.125 214.695312 77.054688 C 214.980469 76.980469 215.242188 76.886719 215.519531 76.78125 C 215.519531 77.234375 215.519531 77.6875 215.519531 78.152344 C 214.992188 78.421875 214.566406 78.476562 213.980469 78.46875 C 213.898438 78.46875 213.816406 78.46875 213.734375 78.464844 C 212.9375 78.445312 212.363281 78.304688 211.773438 77.746094 C 211.132812 77.039062 210.988281 76.34375 211.003906 75.398438 C 211.082031 74.570312 211.417969 73.914062 212.03125 73.355469 C 212.660156 72.894531 213.382812 72.828125 214.132812 72.828125 Z M 214.132812 72.828125 "/>
<path style=" stroke:none;fill-rule:nonzero;fill:rgb(97.254902%,86.27451%,65.098039%);fill-opacity:1;" d="M 208.8125 72.8125 C 208.953125 72.8125 208.953125 72.8125 209.097656 72.8125 C 209.574219 72.816406 209.851562 72.847656 210.304688 73.027344 C 210.304688 73.511719 210.304688 73.996094 210.304688 74.492188 C 210.1875 74.449219 210.066406 74.402344 209.945312 74.355469 C 209.316406 74.148438 208.703125 74.121094 208.085938 74.386719 C 207.777344 74.59375 207.660156 74.875 207.5625 75.226562 C 207.464844 75.820312 207.601562 76.28125 207.929688 76.78125 C 208.253906 77.105469 208.617188 77.070312 209.058594 77.074219 C 209.160156 77.074219 209.261719 77.074219 209.363281 77.078125 C 209.675781 77.054688 209.925781 76.984375 210.214844 76.871094 C 210.21875 77.082031 210.222656 77.292969 210.226562 77.5 C 210.226562 77.617188 210.230469 77.734375 210.230469 77.855469 C 210.214844 78.152344 210.214844 78.152344 210.03125 78.335938 C 209.609375 78.464844 209.167969 78.449219 208.730469 78.453125 C 208.65625 78.453125 208.582031 78.457031 208.503906 78.457031 C 207.742188 78.460938 207.085938 78.292969 206.519531 77.765625 C 205.839844 77.011719 205.769531 76.265625 205.789062 75.285156 C 205.828125 74.554688 206.148438 73.9375 206.683594 73.441406 C 207.394531 72.929688 207.933594 72.789062 208.8125 72.8125 Z M 208.8125 72.8125 "/>
<path style=" stroke:none;fill-rule:nonzero;fill:rgb(100%,88.627451%,66.666667%);fill-opacity:1;" d="M 106.4375 72.957031 C 106.539062 72.964844 106.636719 72.96875 106.742188 72.976562 C 106.84375 72.980469 106.945312 72.984375 107.050781 72.988281 C 107.304688 73 107.554688 73.011719 107.804688 73.027344 C 107.683594 73.289062 107.546875 73.507812 107.371094 73.734375 C 107.324219 73.796875 107.273438 73.859375 107.222656 73.925781 C 107.171875 73.992188 107.121094 74.058594 107.066406 74.128906 C 106.960938 74.265625 106.851562 74.40625 106.746094 74.546875 C 106.554688 74.792969 106.363281 75.039062 106.167969 75.285156 C 106.128906 75.332031 106.089844 75.382812 106.050781 75.433594 C 105.949219 75.566406 105.84375 75.695312 105.738281 75.828125 C 105.589844 76.03125 105.589844 76.03125 105.636719 76.226562 C 105.703125 76.421875 105.785156 76.5625 105.910156 76.734375 C 105.953125 76.792969 105.996094 76.855469 106.039062 76.917969 C 106.085938 76.980469 106.132812 77.046875 106.179688 77.113281 C 106.253906 77.214844 106.253906 77.214844 106.328125 77.316406 C 106.484375 77.535156 106.640625 77.753906 106.796875 77.972656 C 106.964844 78.199219 107.128906 78.429688 107.296875 78.660156 C 107.402344 78.804688 107.507812 78.949219 107.613281 79.09375 C 107.660156 79.160156 107.707031 79.226562 107.757812 79.292969 C 107.800781 79.351562 107.839844 79.410156 107.886719 79.472656 C 107.988281 79.617188 107.988281 79.617188 108.078125 79.800781 C 107.710938 79.828125 107.34375 79.84375 106.976562 79.859375 C 106.871094 79.867188 106.769531 79.875 106.660156 79.882812 C 105.90625 79.902344 105.90625 79.902344 105.59375 79.617188 C 105.425781 79.382812 105.289062 79.144531 105.152344 78.886719 C 105.074219 78.761719 104.996094 78.636719 104.917969 78.515625 C 104.84375 78.398438 104.773438 78.28125 104.703125 78.164062 C 104.316406 77.542969 103.917969 76.929688 103.507812 76.324219 C 103.949219 75.535156 104.425781 74.773438 104.945312 74.03125 C 105.066406 73.851562 105.066406 73.851562 105.171875 73.628906 C 105.496094 73.023438 105.761719 72.9375 106.4375 72.957031 Z M 106.4375 72.957031 "/>
<path style=" stroke:none;fill-rule:nonzero;fill:rgb(99.607843%,88.235294%,66.27451%);fill-opacity:1;" d="M 173.824219 70.285156 C 174.367188 70.285156 174.910156 70.285156 175.46875 70.285156 C 175.46875 72.941406 175.46875 75.597656 175.46875 78.335938 C 174.925781 78.335938 174.382812 78.335938 173.824219 78.335938 C 173.824219 75.679688 173.824219 73.023438 173.824219 70.285156 Z M 173.824219 70.285156 "/>
<path style=" stroke:none;fill-rule:nonzero;fill:rgb(100%,88.627451%,66.666667%);fill-opacity:1;" d="M 88.695312 73.027344 C 89.296875 73.027344 89.902344 73.027344 90.523438 73.027344 C 90.523438 75.265625 90.523438 77.5 90.523438 79.800781 C 89.917969 79.800781 89.316406 79.800781 88.695312 79.800781 C 88.695312 77.566406 88.695312 75.332031 88.695312 73.027344 Z M 88.695312 73.027344 "/>
<path style=" stroke:none;fill-rule:nonzero;fill:rgb(98.039216%,86.666667%,65.490196%);fill-opacity:1;" d="M 142.003906 72.9375 C 142.574219 72.9375 143.148438 72.9375 143.738281 72.9375 C 143.738281 74.75 143.738281 76.5625 143.738281 78.429688 C 143.167969 78.429688 142.59375 78.429688 142.003906 78.429688 C 142.003906 76.617188 142.003906 74.804688 142.003906 72.9375 Z M 142.003906 72.9375 "/>
<path style=" stroke:none;fill-rule:nonzero;fill:rgb(20.392157%,20.392157%,23.137255%);fill-opacity:1;" d="M 219.90625 74.128906 C 220.269531 74.382812 220.46875 74.699219 220.546875 75.132812 C 220.613281 75.761719 220.554688 76.347656 220.179688 76.871094 C 219.761719 77.191406 219.398438 77.203125 218.886719 77.191406 C 218.605469 77.144531 218.515625 77.097656 218.335938 76.882812 C 217.976562 76.265625 217.992188 75.5625 218.078125 74.859375 C 218.191406 74.546875 218.285156 74.449219 218.535156 74.21875 C 218.972656 74.070312 219.453125 74.046875 219.90625 74.128906 Z M 219.90625 74.128906 "/>
<path style=" stroke:none;fill-rule:nonzero;fill:rgb(20.392157%,20%,23.137255%);fill-opacity:1;" d="M 170.347656 74.128906 C 170.683594 74.371094 170.859375 74.652344 170.988281 75.042969 C 171.042969 75.683594 170.992188 76.199219 170.714844 76.78125 C 170.476562 77.058594 170.28125 77.132812 169.914062 77.175781 C 169.160156 77.207031 169.160156 77.207031 168.898438 77.039062 C 168.449219 76.515625 168.488281 75.921875 168.492188 75.265625 C 168.527344 74.835938 168.609375 74.640625 168.882812 74.308594 C 169.355469 74.078125 169.832031 74.027344 170.347656 74.128906 Z M 170.347656 74.128906 "/>
<path style=" stroke:none;fill-rule:nonzero;fill:rgb(22.352941%,21.960784%,24.313725%);fill-opacity:1;" d="M 47.730469 71.929688 C 47.789062 71.929688 47.851562 71.929688 47.914062 71.929688 C 47.953125 72.089844 47.953125 72.089844 47.992188 72.253906 C 48.082031 72.617188 48.1875 72.976562 48.300781 73.332031 C 48.320312 73.394531 48.339844 73.453125 48.359375 73.515625 C 48.472656 73.878906 48.589844 74.242188 48.703125 74.601562 C 48.730469 74.679688 48.753906 74.761719 48.78125 74.839844 C 48.832031 74.996094 48.878906 75.152344 48.929688 75.304688 C 49.101562 75.84375 49.101562 75.84375 49.101562 76.050781 C 48.257812 76.050781 47.410156 76.050781 46.542969 76.050781 C 46.84375 74.835938 46.84375 74.835938 47.03125 74.351562 C 47.324219 73.558594 47.527344 72.746094 47.730469 71.929688 Z M 47.730469 71.929688 "/>
<path style=" stroke:none;fill-rule:nonzero;fill:rgb(20.392157%,20.392157%,23.137255%);fill-opacity:1;" d="M 67.023438 76.597656 C 67.101562 77.664062 67.101562 77.664062 66.828125 78.066406 C 66.503906 78.441406 66.148438 78.621094 65.652344 78.65625 C 65.378906 78.644531 65.195312 78.589844 64.964844 78.433594 C 64.699219 78.105469 64.660156 77.941406 64.691406 77.527344 C 64.773438 77.183594 64.90625 77.066406 65.195312 76.871094 C 65.496094 76.777344 65.796875 76.730469 66.109375 76.691406 C 66.179688 76.679688 66.25 76.667969 66.324219 76.660156 C 66.558594 76.628906 66.789062 76.597656 67.023438 76.597656 Z M 67.023438 76.597656 "/>
<path style=" stroke:none;fill-rule:nonzero;fill:rgb(100%,88.627451%,66.666667%);fill-opacity:1;" d="M 90.339844 69.734375 C 90.601562 69.941406 90.617188 70.011719 90.695312 70.359375 C 90.730469 70.738281 90.652344 70.972656 90.429688 71.289062 C 90.03125 71.542969 89.613281 71.535156 89.152344 71.472656 C 88.636719 71.210938 88.636719 71.210938 88.511719 70.832031 C 88.488281 70.441406 88.476562 70.15625 88.695312 69.824219 C 89.21875 69.507812 89.78125 69.496094 90.339844 69.734375 Z M 90.339844 69.734375 "/>
<path style=" stroke:none;fill-rule:nonzero;fill:rgb(22.352941%,21.568627%,23.921569%);fill-opacity:1;" d="M 201.4375 72.113281 C 201.621094 72.449219 201.726562 72.800781 201.835938 73.167969 C 202.007812 73.722656 202.1875 74.277344 202.378906 74.828125 C 202.441406 75.042969 202.441406 75.042969 202.441406 75.316406 C 201.839844 75.316406 201.234375 75.316406 200.613281 75.316406 C 200.714844 74.496094 200.714844 74.496094 200.851562 74.113281 C 200.878906 74.03125 200.90625 73.949219 200.9375 73.863281 C 200.980469 73.738281 200.980469 73.738281 201.023438 73.613281 C 201.285156 72.878906 201.285156 72.878906 201.4375 72.113281 Z M 201.4375 72.113281 "/>
<path style=" stroke:none;fill-rule:nonzero;fill:rgb(97.254902%,86.27451%,65.098039%);fill-opacity:1;" d="M 143.28125 70.375 C 143.695312 70.5625 143.695312 70.5625 143.832031 70.832031 C 143.867188 71.214844 143.871094 71.410156 143.660156 71.738281 C 143.386719 72.007812 143.21875 72.042969 142.84375 72.0625 C 142.585938 72.058594 142.421875 72.058594 142.207031 71.921875 C 141.984375 71.679688 141.910156 71.46875 141.855469 71.148438 C 141.910156 70.832031 141.910156 70.832031 142.082031 70.5625 C 142.484375 70.300781 142.816406 70.304688 143.28125 70.375 Z M 143.28125 70.375 "/>
<path style=" stroke:none;fill-rule:nonzero;fill:rgb(23.529412%,23.137255%,25.098039%);fill-opacity:1;" d="M 192.476562 75.773438 C 192.519531 76.335938 192.425781 76.609375 192.109375 77.054688 C 191.832031 77.234375 191.605469 77.265625 191.277344 77.265625 C 191.15625 77.269531 191.15625 77.269531 191.035156 77.273438 C 190.96875 77.261719 190.898438 77.25 190.828125 77.238281 C 190.601562 76.898438 190.605469 76.726562 190.648438 76.324219 C 190.800781 76.066406 190.933594 75.980469 191.222656 75.894531 C 191.640625 75.804688 192.042969 75.75 192.476562 75.773438 Z M 192.476562 75.773438 "/>
<path style=" stroke:none;fill-rule:nonzero;fill:rgb(21.960784%,21.568627%,23.921569%);fill-opacity:1;" d="M 179.855469 75.773438 C 179.886719 76.359375 179.839844 76.648438 179.460938 77.113281 C 179.261719 77.277344 179.152344 77.269531 178.898438 77.261719 C 178.789062 77.257812 178.789062 77.257812 178.683594 77.257812 C 178.484375 77.238281 178.484375 77.238281 178.210938 77.148438 C 178.070312 76.863281 178.09375 76.636719 178.121094 76.324219 C 178.273438 76.0625 178.410156 75.980469 178.699219 75.894531 C 179.089844 75.808594 179.457031 75.765625 179.855469 75.773438 Z M 179.855469 75.773438 "/>
</g>
</svg>
