<?xml version="1.0" encoding="UTF-8"?>
<svg version="1.1" xmlns="http://www.w3.org/2000/svg" width="3270" height="1650">

<path d="M0 0 C1.70736328 -0.00386719 1.70736328 -0.00386719 3.44921875 -0.0078125 C6.29264092 0.08993912 8.98044763 0.2975486 11.7949909 0.62542529 C17.68937613 1.22603088 23.53531282 1.26355511 29.45592684 1.25100785 C30.64935205 1.25248345 31.84277726 1.25395904 33.07236688 1.25547934 C36.37851815 1.25856122 39.68461258 1.2571881 42.99076001 1.25392171 C46.60347255 1.2514672 50.21618055 1.25484747 53.82889232 1.25747326 C60.18292451 1.2612932 66.53694844 1.26140924 72.89098125 1.25912289 C82.40346888 1.25572556 91.91594901 1.25814499 101.42843626 1.26172375 C117.64104455 1.26766507 133.85365019 1.26895332 150.06625938 1.26774788 C166.49887937 1.26655537 182.93149705 1.26757919 199.36411667 1.2713356 C200.92040129 1.27169067 200.92040129 1.27169067 202.50812601 1.27205291 C207.79845337 1.27327428 213.08878071 1.2745401 218.37910806 1.27582836 C229.22612133 1.27846025 240.07313466 1.28081398 250.92014802 1.28308237 C252.55889008 1.28342607 252.55889008 1.28342607 254.23073805 1.28377671 C271.23691953 1.28729706 288.24310095 1.28959058 305.24928272 1.29114306 C306.39839618 1.29124837 307.54750964 1.29135368 308.73144472 1.29146218 C313.39834823 1.29188671 318.06525174 1.29230466 322.73215525 1.29271799 C379.78320736 1.29777654 436.83425312 1.31243632 493.88530218 1.33140401 C507.23550609 1.3358413 520.58571003 1.34015984 533.93591398 1.34447271 C536.38140322 1.34526324 538.82689245 1.3460538 541.27238169 1.34684439 C546.1784829 1.34843022 551.08458411 1.35001483 555.99068533 1.35159888 C560.91500203 1.35318925 565.83931873 1.35478373 570.76363542 1.35638161 C627.57166963 1.37480949 684.37970424 1.39161509 741.18773937 1.40692069 C745.03929732 1.40795925 748.89085526 1.40900269 752.74241321 1.41004662 C812.0510127 1.42608684 871.35961146 1.43913559 930.66821289 1.44506836 C931.94347275 1.44519645 933.2187326 1.44532455 934.5326367 1.44545652 C955.09410633 1.44751259 975.65557598 1.44941153 996.21704564 1.45127667 C1055.45413014 1.45665087 1114.69121104 1.46444636 1173.92829227 1.48563671 C1175.14684251 1.48607139 1176.36539275 1.48650606 1177.62086875 1.48695391 C1203.17150173 1.49609961 1228.7221343 1.50608851 1254.27276652 1.51716815 C1266.23847029 1.52235437 1278.20417412 1.5273539 1290.16987801 1.53224754 C1291.34795491 1.53273271 1292.52603181 1.53321787 1293.73980801 1.53371774 C1331.66997793 1.54924532 1369.60013485 1.55166152 1407.53030726 1.5470174 C1445.7440285 1.54238141 1483.95772568 1.54996487 1522.1714399 1.57462113 C1527.45664828 1.57802687 1532.74185675 1.58128807 1538.02706528 1.58446121 C1539.0630744 1.58508815 1540.09908353 1.58571509 1541.16648687 1.58636103 C1557.54491346 1.59590141 1573.92330819 1.59203745 1590.30173365 1.58251835 C1606.42238315 1.57342385 1622.54297619 1.57861997 1638.66361615 1.59881646 C1648.10394082 1.61021594 1657.54411292 1.61082421 1666.98443219 1.59506904 C1673.27014123 1.58568067 1679.55573151 1.59101258 1685.84142463 1.60783859 C1689.39436809 1.61694996 1692.94700975 1.62027662 1696.49994021 1.60527276 C1750.17135096 1.42706997 1804.37621147 16.56024534 1848.3125 48.125 C1848.90417969 48.54297852 1849.49585937 48.96095703 1850.10546875 49.39160156 C1861.01840049 57.13358509 1870.7506675 65.78376666 1880.3125 75.125 C1881.43096742 76.20314799 1882.54945585 77.28127419 1883.66796875 78.359375 C1891.5050577 85.98316838 1898.34285411 94.19538339 1904.93701172 102.91235352 C1905.55600342 103.72917603 1905.55600342 103.72917603 1906.1875 104.5625 C1906.6014502 105.10898193 1907.01540039 105.65546387 1907.44189453 106.21850586 C1910.38005182 110.04466721 1913.51041735 113.61062818 1916.8125 117.125 C1926.82028621 127.83145292 1934.82453687 139.55418812 1942.3125 152.125 C1942.69792969 152.76276367 1943.08335937 153.40052734 1943.48046875 154.05761719 C1974.82043912 206.17502526 1983.30876585 270.19768454 1968.77563477 328.92993164 C1957.36753176 373.0611871 1935.25020552 409.19288265 1904.3125 442.125 C1903.69890625 442.78113281 1903.0853125 443.43726563 1902.453125 444.11328125 C1897.47961519 449.26441641 1891.89678744 453.65911267 1886.3125 458.125 C1885.46171875 458.81980469 1884.6109375 459.51460937 1883.734375 460.23046875 C1845.71258291 491.1381205 1798.67029907 509.09520129 1750.3125 515.125 C1749.65302693 515.21433754 1748.99355386 515.30367507 1748.31409676 515.39571981 C1739.61058755 516.43647933 1730.86890108 516.26405027 1722.11907756 516.2526505 C1720.2517612 516.2538942 1718.38444509 516.2555755 1716.51712947 516.25765286 C1711.37023686 516.2621044 1706.22336224 516.26032394 1701.07646915 516.25755108 C1695.46203392 516.25562958 1689.84760221 516.2595102 1684.23316795 516.26264787 C1674.34997144 516.26736482 1664.46677995 516.26834524 1654.58358251 516.26691952 C1643.92201058 516.26539283 1633.26044256 516.26600005 1622.59887125 516.26926073 C1621.58492696 516.26956868 1621.58492696 516.26956868 1620.55049896 516.26988285 C1617.09911571 516.27094037 1613.64773248 516.27203186 1610.19634925 516.2731343 C1584.98201692 516.28110962 1559.76768584 516.28410461 1534.55335236 516.28458023 C1508.9920482 516.28507467 1483.43074562 516.28771914 1457.86944199 516.29298782 C1456.24015033 516.29332136 1454.61085868 516.29365483 1452.98156703 516.29398823 C1446.41231354 516.29533633 1439.84306005 516.29669963 1433.27380657 516.29808033 C1361.00565944 516.31324785 1288.73751271 516.32002332 1216.46936424 516.3245023 C1215.55521959 516.32455899 1214.64107494 516.32461568 1213.69922893 516.32467409 C1209.07528124 516.32496061 1204.45133355 516.32524564 1199.82738586 516.3255282 C1161.0870355 516.32790333 1122.34668531 516.33161301 1083.60633508 516.3355653 C1065.05370266 516.33745788 1046.50107024 516.33928639 1027.94843781 516.3410995 C1026.56437888 516.34123479 1026.56437888 516.34123479 1025.15235916 516.3413728 C980.74338355 516.34570906 936.3344079 516.34963739 891.92543221 516.35309982 C890.50444333 516.35321063 890.50444333 516.35321063 889.0547476 516.35332368 C828.68113093 516.35801873 768.30751432 516.3608417 707.9338975 516.3624866 C702.98394301 516.36262218 698.03398851 516.36276121 693.08403402 516.36290014 C685.14805338 516.36312262 677.21207274 516.36334399 669.2760921 516.36356402 C667.80098711 516.36360493 667.80098711 516.36360493 666.29608201 516.36364666 C664.30854489 516.36370177 662.32100778 516.36375688 660.33347067 516.36381199 C646.39146066 516.36419861 632.44945065 516.36458655 618.50744064 516.36498112 C613.51870075 516.36512223 608.52996086 516.3652623 603.54122096 516.36540002 C509.32406986 516.36800413 415.10692041 516.37333353 320.88977051 516.38928223 C319.8979857 516.38945002 318.90620088 516.38961781 317.88436199 516.38979069 C286.89670352 516.39504138 255.90904512 516.40061574 224.92138672 516.40625 C193.12576233 516.41203101 161.33013793 516.41776157 129.53451347 516.42320633 C128.06599403 516.42345804 128.06599403 516.42345804 126.56780754 516.42371484 C65.25009572 516.43420856 3.93238435 516.44106978 -57.38532829 516.44407272 C-58.33243551 516.44411953 -59.27954272 516.44416635 -60.25535015 516.44421458 C-101.85102651 516.44626527 -143.44670285 516.44750933 -185.04237926 516.44786063 C-201.7767259 516.4480039 -218.51107254 516.44824256 -235.24541919 516.44852469 C-238.02004677 516.44857022 -240.79467435 516.44861187 -243.56930193 516.4486528 C-286.00457708 516.44929882 -328.43985035 516.45225496 -370.87512445 516.46211338 C-371.79008513 516.46232575 -372.70504581 516.46253812 -373.64773256 516.46275693 C-388.3657788 516.46618566 -403.083825 516.46979864 -417.80187119 516.47343333 C-459.59097111 516.48374831 -501.38006872 516.49252756 -543.16917014 516.49058867 C-544.44149583 516.49053056 -544.44149583 516.49053056 -545.73952507 516.49047127 C-564.24646145 516.48959464 -582.75339767 516.48788243 -601.26033391 516.48535165 C-608.64183163 516.48435492 -616.02332937 516.48346826 -623.40482712 516.48261642 C-624.61261005 516.48247259 -624.61261005 516.48247259 -625.84479265 516.48232586 C-651.36659304 516.4793388 -676.88838 516.48556306 -702.41017765 516.49713529 C-727.54990816 516.50849577 -752.68962068 516.5107215 -777.82935195 516.49972978 C-781.27698953 516.49822375 -784.72462715 516.49682243 -788.1722648 516.49548396 C-788.8471755 516.49521792 -789.5220862 516.49495187 -790.21744873 516.49467777 C-801.47568317 516.49052868 -812.73388607 516.49815782 -823.9921167 516.50907158 C-833.75238709 516.51771316 -843.51261587 516.51545703 -853.27288369 516.50437287 C-858.8043851 516.49839512 -864.33577562 516.49700043 -869.86726963 516.50905773 C-911.52870953 516.59402925 -911.52870953 516.59402925 -931.6875 513.125 C-933.14510021 512.89744376 -934.60305459 512.67214086 -936.0614062 512.44945092 C-982.56102738 505.08291495 -1028.81632062 481.70802627 -1063.03515625 449.58984375 C-1065.14461064 447.62951132 -1067.27695942 445.76445317 -1069.5 443.9375 C-1072.57379893 441.33659321 -1075.14783349 438.44183911 -1077.75 435.375 C-1079.93767281 432.83447673 -1082.2165499 430.39220885 -1084.5 427.9375 C-1088.59625846 423.45702365 -1092.29737913 418.80498914 -1095.93896484 413.95996094 C-1098.66808594 410.36156423 -1101.54652954 406.99940898 -1104.625 403.6875 C-1124.89741091 381.76537803 -1139.89606417 355.88191285 -1150.6875 328.125 C-1151.14511719 326.99835938 -1151.60273437 325.87171875 -1152.07421875 324.7109375 C-1158.891677 307.03285965 -1162.47521413 287.88976742 -1164.6875 269.125 C-1164.81898437 268.01898437 -1164.95046875 266.91296875 -1165.0859375 265.7734375 C-1170.65653353 207.5080142 -1152.68419434 147.14139276 -1116.6875 101.125 C-1116.15640625 100.444375 -1115.6253125 99.76375 -1115.078125 99.0625 C-1104.50286543 85.62104858 -1092.90801901 73.02191264 -1079.6875 62.125 C-1078.87410156 61.4340625 -1078.06070312 60.743125 -1077.22265625 60.03125 C-1065.83511968 50.48989941 -1053.57954821 42.45655086 -1040.6875 35.125 C-1039.97883789 34.7213623 -1039.27017578 34.31772461 -1038.54003906 33.90185547 C-1016.64437242 21.57651211 -992.81666181 12.89667601 -968.3125 7.4375 C-967.04116211 7.15181152 -967.04116211 7.15181152 -965.74414062 6.86035156 C-962.73431255 6.22301546 -959.71463208 5.67494047 -956.6875 5.125 C-955.40073364 4.8750939 -954.11396729 4.62518781 -952.78820801 4.3677088 C-935.59014475 1.3134155 -918.2656894 1.69473618 -900.86708936 1.72946358 C-896.12456446 1.7355655 -891.3820744 1.72412384 -886.63955879 1.71499789 C-878.3452227 1.70140223 -870.05094069 1.69876012 -861.75659561 1.70346642 C-849.42313139 1.7104074 -837.08972288 1.70009426 -824.75626655 1.686303 C-804.0038305 1.66356126 -783.25140995 1.65450376 -762.4989624 1.65317917 C-741.9571651 1.65179384 -721.415387 1.64377839 -700.87359619 1.62712479 C-699.59478092 1.62608978 -698.31596565 1.62505478 -696.99839841 1.62398841 C-690.50343885 1.61869055 -684.00847941 1.61326413 -677.51352 1.60778125 C-664.30872706 1.59668069 -651.10393339 1.58655396 -637.8991394 1.5767765 C-637.23858957 1.57628697 -636.57803973 1.57579743 -635.89747323 1.57529305 C-604.49316697 1.5520897 -573.08885797 1.53887873 -541.68454564 1.52714511 C-538.21262328 1.52584786 -534.74070092 1.5245442 -531.26877856 1.52324052 C-530.58068673 1.52298216 -529.89259489 1.5227238 -529.18365178 1.52245761 C-521.52433067 1.51957947 -513.86500957 1.51667331 -506.20568848 1.51373291 C-505.51525105 1.51346836 -504.82481362 1.51320382 -504.11345385 1.51293125 C-471.99986661 1.50059901 -439.88628281 1.48325055 -407.77269896 1.46413217 C-405.6870745 1.46289095 -403.60145003 1.46165349 -401.51582557 1.46041664 C-370.77327431 1.44216702 -340.03072412 1.42256349 -309.28817498 1.40103797 C-307.2887341 1.39963832 -305.28929323 1.39824163 -303.28985235 1.39684495 C-291.42571377 1.38855514 -279.56157521 1.38025738 -267.69743681 1.37171336 C-236.82178239 1.34950558 -205.94613255 1.33174454 -175.07047164 1.32176055 C-155.72175995 1.31543739 -136.37305159 1.30590265 -117.02434266 1.29379199 C-104.76547566 1.28626005 -92.50661504 1.28165036 -80.24774571 1.281046 C-72.07068946 1.2803832 -63.89364014 1.27617511 -55.71658699 1.26903976 C-51.05069373 1.2650805 -46.38481457 1.26275276 -41.71891975 1.26480167 C-37.47958115 1.26663982 -33.2402712 1.26394949 -29.00093724 1.2575554 C-27.47197012 1.25606341 -25.94300023 1.25626654 -24.41403376 1.25831752 C-22.34566877 1.26085374 -20.27740161 1.25728532 -18.2090435 1.25215852 C-17.06151317 1.25173788 -15.91398283 1.25131723 -14.73167884 1.25088384 C-9.73329279 1.04418901 -5.05110356 -0.01131266 0 0 Z " fill="#303039" transform="translate(1250.6875,575.875)"/>
<path d="M0 0 C-1.485 0.495 -1.485 0.495 -3 1 C-3 155.44 -3 309.88 -3 469 C-6.41088152 470.13696051 -8.66257945 469.96914931 -12.2421875 469.73828125 C-13.47324219 469.67189453 -14.70429687 469.60550781 -15.97265625 469.53710938 C-18.56713267 469.38777765 -21.16094378 469.22638191 -23.75390625 469.05273438 C-24.98753906 468.99021484 -26.22117187 468.92769531 -27.4921875 468.86328125 C-28.61995605 468.79407471 -29.74772461 468.72486816 -30.90966797 468.65356445 C-34.11119665 468.71584413 -34.11119665 468.71584413 -36.28532311 470.9907876 C-39.63812498 473.47229511 -41.39020209 473.4981573 -45.52516222 473.49383396 C-46.17098966 473.49862457 -46.81681709 473.50341518 -47.48221506 473.50835096 C-49.6538579 473.51954889 -51.82432803 473.50214365 -53.99591827 473.48495388 C-55.57219926 473.48711435 -57.14847866 473.49103068 -58.72475147 473.49654719 C-63.07837616 473.506645 -67.43161516 473.49164553 -71.7851973 473.47272965 C-76.51356965 473.4565655 -81.24191558 473.46355023 -85.97030592 473.46763808 C-94.26537704 473.47157858 -102.56032493 473.46054503 -110.85536957 473.43982124 C-123.19140247 473.40904969 -135.52737567 473.40110671 -147.8634427 473.39778439 C-169.89908033 473.39109477 -191.93464341 473.36157 -213.97024504 473.32264253 C-233.26872833 473.28863637 -252.56720282 473.26249033 -271.8657074 473.24414253 C-273.1449122 473.2429166 -274.424117 473.24169067 -275.74208559 473.24042759 C-280.93481626 473.23546379 -286.12754696 473.23053925 -291.32027773 473.22567209 C-305.83863933 473.21203488 -320.3569994 473.19707372 -334.87535858 473.18106174 C-335.53658729 473.18033291 -336.197816 473.17960407 -336.87908195 473.17885315 C-357.95750556 473.15552479 -379.03591659 473.12625725 -400.11432648 473.09281063 C-401.14013606 473.09118368 -401.14013606 473.09118368 -402.18666906 473.08952386 C-413.29217384 473.07188871 -424.39767808 473.05391608 -435.50318228 473.0359216 C-479.48778991 472.96467416 -523.47238186 472.91067583 -567.45703125 472.87329102 C-570.23303892 472.87092704 -573.0090466 472.86856118 -575.78505427 472.86619502 C-576.47142152 472.86561008 -577.15778877 472.86502513 -577.86495502 472.86442247 C-585.46697945 472.85794001 -593.06900382 472.85140121 -600.67102814 472.84479427 C-601.693709 472.84390719 -601.693709 472.84390719 -602.73705009 472.84300219 C-639.60813671 472.81095697 -676.4792035 472.76486505 -713.35026884 472.71397978 C-717.24710614 472.70861567 -721.14394345 472.70325587 -725.04078076 472.69790306 C-727.62577838 472.6943503 -730.21077597 472.69078718 -732.79577355 472.68721363 C-752.06225574 472.66071199 -771.32873695 472.64108084 -790.5952301 472.62464714 C-812.52993049 472.60586303 -834.46458735 472.57613953 -856.39925271 472.53238713 C-868.66188709 472.50821131 -880.924468 472.49202131 -893.1871258 472.48768353 C-901.39791685 472.48394227 -909.60864319 472.46925046 -917.81940192 472.44597256 C-922.48517309 472.43303643 -927.15082424 472.42449517 -931.81661373 472.42931949 C-1002.74114579 472.49046663 -1070.92016644 456.05889045 -1123 405 C-1123.45193726 404.55795227 -1123.90387451 404.11590454 -1124.36950684 403.66046143 C-1127.63286154 400.46679114 -1130.88465546 397.2617398 -1134.1267395 394.04647827 C-1135.23505806 392.94754969 -1136.34462207 391.84987551 -1137.45553589 390.75357056 C-1144.11790308 384.16735767 -1150.35407504 377.50244916 -1156 370 C-1156.46365967 369.39027344 -1156.92731934 368.78054688 -1157.4050293 368.15234375 C-1170.76184907 350.33279323 -1181.29307732 330.88529149 -1189 310 C-1189.24991699 309.33871094 -1189.49983398 308.67742187 -1189.75732422 307.99609375 C-1209.21182089 255.98584773 -1205.34859592 197.0193066 -1182.95996094 146.66064453 C-1181.10664347 142.65961654 -1179.1154518 138.74689064 -1177.01367188 134.87109375 C-1175.96423202 132.93397741 -1174.94348952 130.98316155 -1173.921875 129.03125 C-1160.45833459 103.77257061 -1138.99547406 78.4698115 -1116.6875 60.5625 C-1115.74003906 59.80066406 -1114.79257813 59.03882813 -1113.81640625 58.25390625 C-1112.42228516 57.13822266 -1112.42228516 57.13822266 -1111 56 C-1110.18402344 55.32839844 -1109.36804687 54.65679688 -1108.52734375 53.96484375 C-1056.6451009 11.5310744 -995.2725764 -0.34088575 -930.0021585 -0.27327023 C-925.28670316 -0.27063125 -920.57126662 -0.27967398 -915.85581845 -0.28715843 C-907.61342321 -0.29867637 -899.37104975 -0.30294942 -891.12864685 -0.30232811 C-878.87203174 -0.30144442 -866.61544484 -0.31204309 -854.35883743 -0.32494953 C-833.73241942 -0.3463686 -813.10600544 -0.35876308 -792.47957802 -0.36609077 C-772.06028003 -0.37340369 -751.64099236 -0.38526867 -731.22170067 -0.40299797 C-729.949798 -0.40410171 -728.67789534 -0.40520546 -727.36745017 -0.40634265 C-720.90726393 -0.41197906 -714.44707777 -0.41770683 -707.98689165 -0.42347669 C-662.96034062 -0.46359735 -617.93378875 -0.49573664 -572.9072279 -0.52198645 C-570.83663281 -0.52319367 -568.76603772 -0.52440276 -566.69544263 -0.52561248 C-563.93168218 -0.52722717 -561.16792172 -0.52884147 -558.40416127 -0.53045533 C-552.1735462 -0.53409398 -545.94293114 -0.53773527 -539.71231608 -0.54138469 C-538.32577356 -0.54219669 -536.93923103 -0.54300819 -535.5526885 -0.5438192 C-503.63574198 -0.56249323 -471.71879726 -0.58356747 -439.80185299 -0.60573808 C-437.72931183 -0.60717735 -435.65677066 -0.60861401 -433.5842295 -0.61005028 C-402.3594847 -0.63170353 -371.13474108 -0.65455462 -339.90999889 -0.67970943 C-337.94179785 -0.68129321 -337.94179785 -0.68129321 -335.93383516 -0.68290898 C-324.13099956 -0.69241675 -312.32816401 -0.7019716 -300.52532866 -0.71177601 C-271.09321756 -0.73622131 -241.66110923 -0.75774235 -212.22899132 -0.77204772 C-191.72965577 -0.78202099 -171.23032459 -0.79516268 -150.73099325 -0.81169481 C-138.55155613 -0.82138744 -126.3721248 -0.82823384 -114.19268412 -0.83109079 C-106.05846785 -0.83326266 -97.92425917 -0.83900266 -89.7900472 -0.84763607 C-85.15523766 -0.8524472 -80.52044179 -0.85568341 -75.88562957 -0.85451955 C-71.6651664 -0.8534858 -67.44473248 -0.8570511 -63.22427547 -0.86420328 C-61.71112025 -0.86597328 -60.19796192 -0.86609986 -58.6848067 -0.86433049 C-50.66307584 -0.85590336 -42.71581841 -1.060663 -34.72038425 -1.76952535 C-22.99003848 -2.7633362 -11.58262033 -1.88828745 0 0 Z " fill="#303039" transform="translate(1295,585)"/>
<path d="M0 0 C1.70736328 -0.00386719 1.70736328 -0.00386719 3.44921875 -0.0078125 C6.29264092 0.08993912 8.98044763 0.2975486 11.7949909 0.62542529 C17.68937613 1.22603088 23.53531282 1.26355511 29.45592684 1.25100785 C30.64935205 1.25248345 31.84277726 1.25395904 33.07236688 1.25547934 C36.37851815 1.25856122 39.68461258 1.2571881 42.99076001 1.25392171 C46.60347255 1.2514672 50.21618055 1.25484747 53.82889232 1.25747326 C60.18292451 1.2612932 66.53694844 1.26140924 72.89098125 1.25912289 C82.40346888 1.25572556 91.91594901 1.25814499 101.42843626 1.26172375 C117.64104455 1.26766507 133.85365019 1.26895332 150.06625938 1.26774788 C166.49887937 1.26655537 182.93149705 1.26757919 199.36411667 1.2713356 C200.92040129 1.27169067 200.92040129 1.27169067 202.50812601 1.27205291 C207.79845337 1.27327428 213.08878071 1.2745401 218.37910806 1.27582836 C229.22612133 1.27846025 240.07313466 1.28081398 250.92014802 1.28308237 C252.55889008 1.28342607 252.55889008 1.28342607 254.23073805 1.28377671 C271.23691953 1.28729706 288.24310095 1.28959058 305.24928272 1.29114306 C306.39839618 1.29124837 307.54750964 1.29135368 308.73144472 1.29146218 C313.39834823 1.29188671 318.06525174 1.29230466 322.73215525 1.29271799 C379.78320736 1.29777654 436.83425312 1.31243632 493.88530218 1.33140401 C507.23550609 1.3358413 520.58571003 1.34015984 533.93591398 1.34447271 C536.38140322 1.34526324 538.82689245 1.3460538 541.27238169 1.34684439 C546.1784829 1.34843022 551.08458411 1.35001483 555.99068533 1.35159888 C560.91500203 1.35318925 565.83931873 1.35478373 570.76363542 1.35638161 C627.57166963 1.37480949 684.37970424 1.39161509 741.18773937 1.40692069 C745.03929732 1.40795925 748.89085526 1.40900269 752.74241321 1.41004662 C812.0510127 1.42608684 871.35961146 1.43913559 930.66821289 1.44506836 C931.94347275 1.44519645 933.2187326 1.44532455 934.5326367 1.44545652 C955.09410633 1.44751259 975.65557598 1.44941153 996.21704564 1.45127667 C1055.45413014 1.45665087 1114.69121104 1.46444636 1173.92829227 1.48563671 C1175.14684251 1.48607139 1176.36539275 1.48650606 1177.62086875 1.48695391 C1203.17150173 1.49609961 1228.7221343 1.50608851 1254.27276652 1.51716815 C1266.23847029 1.52235437 1278.20417412 1.5273539 1290.16987801 1.53224754 C1291.34795491 1.53273271 1292.52603181 1.53321787 1293.73980801 1.53371774 C1331.66997793 1.54924532 1369.60013485 1.55166152 1407.53030726 1.5470174 C1445.7440285 1.54238141 1483.95772568 1.54996487 1522.1714399 1.57462113 C1527.45664828 1.57802687 1532.74185675 1.58128807 1538.02706528 1.58446121 C1539.0630744 1.58508815 1540.09908353 1.58571509 1541.16648687 1.58636103 C1557.54491346 1.59590141 1573.92330819 1.59203745 1590.30173365 1.58251835 C1606.42238315 1.57342385 1622.54297619 1.57861997 1638.66361615 1.59881646 C1648.10394082 1.61021594 1657.54411292 1.61082421 1666.98443219 1.59506904 C1673.27014123 1.58568067 1679.55573151 1.59101258 1685.84142463 1.60783859 C1689.39436809 1.61694996 1692.94700975 1.62027662 1696.49994021 1.60527276 C1750.17135096 1.42706997 1804.37621147 16.56024534 1848.3125 48.125 C1848.90417969 48.54297852 1849.49585937 48.96095703 1850.10546875 49.39160156 C1861.01840049 57.13358509 1870.7506675 65.78376666 1880.3125 75.125 C1881.43096742 76.20314799 1882.54945585 77.28127419 1883.66796875 78.359375 C1891.5050577 85.98316838 1898.34285411 94.19538339 1904.93701172 102.91235352 C1905.55600342 103.72917603 1905.55600342 103.72917603 1906.1875 104.5625 C1906.6014502 105.10898193 1907.01540039 105.65546387 1907.44189453 106.21850586 C1910.38005182 110.04466721 1913.51041735 113.61062818 1916.8125 117.125 C1926.82028621 127.83145292 1934.82453687 139.55418812 1942.3125 152.125 C1942.69792969 152.76276367 1943.08335937 153.40052734 1943.48046875 154.05761719 C1974.82043912 206.17502526 1983.30876585 270.19768454 1968.77563477 328.92993164 C1957.36753176 373.0611871 1935.25020552 409.19288265 1904.3125 442.125 C1903.69890625 442.78113281 1903.0853125 443.43726563 1902.453125 444.11328125 C1897.47961519 449.26441641 1891.89678744 453.65911267 1886.3125 458.125 C1885.46171875 458.81980469 1884.6109375 459.51460937 1883.734375 460.23046875 C1845.71258291 491.1381205 1798.67029907 509.09520129 1750.3125 515.125 C1749.65302693 515.21433754 1748.99355386 515.30367507 1748.31409676 515.39571981 C1739.61058755 516.43647933 1730.86890108 516.26405027 1722.11907756 516.2526505 C1720.2517612 516.2538942 1718.38444509 516.2555755 1716.51712947 516.25765286 C1711.37023686 516.2621044 1706.22336224 516.26032394 1701.07646915 516.25755108 C1695.46203392 516.25562958 1689.84760221 516.2595102 1684.23316795 516.26264787 C1674.34997144 516.26736482 1664.46677995 516.26834524 1654.58358251 516.26691952 C1643.92201058 516.26539283 1633.26044256 516.26600005 1622.59887125 516.26926073 C1621.58492696 516.26956868 1621.58492696 516.26956868 1620.55049896 516.26988285 C1617.09911571 516.27094037 1613.64773248 516.27203186 1610.19634925 516.2731343 C1584.98201692 516.28110962 1559.76768584 516.28410461 1534.55335236 516.28458023 C1508.9920482 516.28507467 1483.43074562 516.28771914 1457.86944199 516.29298782 C1456.24015033 516.29332136 1454.61085868 516.29365483 1452.98156703 516.29398823 C1446.41231354 516.29533633 1439.84306005 516.29669963 1433.27380657 516.29808033 C1361.00565944 516.31324785 1288.73751271 516.32002332 1216.46936424 516.3245023 C1215.55521959 516.32455899 1214.64107494 516.32461568 1213.69922893 516.32467409 C1209.07528124 516.32496061 1204.45133355 516.32524564 1199.82738586 516.3255282 C1161.0870355 516.32790333 1122.34668531 516.33161301 1083.60633508 516.3355653 C1065.05370266 516.33745788 1046.50107024 516.33928639 1027.94843781 516.3410995 C1026.56437888 516.34123479 1026.56437888 516.34123479 1025.15235916 516.3413728 C980.74338355 516.34570906 936.3344079 516.34963739 891.92543221 516.35309982 C890.50444333 516.35321063 890.50444333 516.35321063 889.0547476 516.35332368 C828.68113093 516.35801873 768.30751432 516.3608417 707.9338975 516.3624866 C702.98394301 516.36262218 698.03398851 516.36276121 693.08403402 516.36290014 C685.14805338 516.36312262 677.21207274 516.36334399 669.2760921 516.36356402 C667.80098711 516.36360493 667.80098711 516.36360493 666.29608201 516.36364666 C664.30854489 516.36370177 662.32100778 516.36375688 660.33347067 516.36381199 C646.39146066 516.36419861 632.44945065 516.36458655 618.50744064 516.36498112 C613.51870075 516.36512223 608.52996086 516.3652623 603.54122096 516.36540002 C509.32406986 516.36800413 415.10692041 516.37333353 320.88977051 516.38928223 C319.8979857 516.38945002 318.90620088 516.38961781 317.88436199 516.38979069 C286.89670352 516.39504138 255.90904512 516.40061574 224.92138672 516.40625 C193.12576233 516.41203101 161.33013793 516.41776157 129.53451347 516.42320633 C128.06599403 516.42345804 128.06599403 516.42345804 126.56780754 516.42371484 C65.25009572 516.43420856 3.93238435 516.44106978 -57.38532829 516.44407272 C-58.33243551 516.44411953 -59.27954272 516.44416635 -60.25535015 516.44421458 C-101.85102651 516.44626527 -143.44670285 516.44750933 -185.04237926 516.44786063 C-201.7767259 516.4480039 -218.51107254 516.44824256 -235.24541919 516.44852469 C-238.02004677 516.44857022 -240.79467435 516.44861187 -243.56930193 516.4486528 C-286.00457708 516.44929882 -328.43985035 516.45225496 -370.87512445 516.46211338 C-371.79008513 516.46232575 -372.70504581 516.46253812 -373.64773256 516.46275693 C-388.3657788 516.46618566 -403.083825 516.46979864 -417.80187119 516.47343333 C-459.59097111 516.48374831 -501.38006872 516.49252756 -543.16917014 516.49058867 C-544.44149583 516.49053056 -544.44149583 516.49053056 -545.73952507 516.49047127 C-564.24646145 516.48959464 -582.75339767 516.48788243 -601.26033391 516.48535165 C-608.64183163 516.48435492 -616.02332937 516.48346826 -623.40482712 516.48261642 C-624.61261005 516.48247259 -624.61261005 516.48247259 -625.84479265 516.48232586 C-651.36659304 516.4793388 -676.88838 516.48556306 -702.41017765 516.49713529 C-727.54990816 516.50849577 -752.68962068 516.5107215 -777.82935195 516.49972978 C-781.27698953 516.49822375 -784.72462715 516.49682243 -788.1722648 516.49548396 C-788.8471755 516.49521792 -789.5220862 516.49495187 -790.21744873 516.49467777 C-801.47568317 516.49052868 -812.73388607 516.49815782 -823.9921167 516.50907158 C-833.75238709 516.51771316 -843.51261587 516.51545703 -853.27288369 516.50437287 C-858.8043851 516.49839512 -864.33577562 516.49700043 -869.86726963 516.50905773 C-911.52870953 516.59402925 -911.52870953 516.59402925 -931.6875 513.125 C-933.14510021 512.89744376 -934.60305459 512.67214086 -936.0614062 512.44945092 C-982.56102738 505.08291495 -1028.81632062 481.70802627 -1063.03515625 449.58984375 C-1065.14461064 447.62951132 -1067.27695942 445.76445317 -1069.5 443.9375 C-1072.57379893 441.33659321 -1075.14783349 438.44183911 -1077.75 435.375 C-1079.93767281 432.83447673 -1082.2165499 430.39220885 -1084.5 427.9375 C-1088.59625846 423.45702365 -1092.29737913 418.80498914 -1095.93896484 413.95996094 C-1098.66808594 410.36156423 -1101.54652954 406.99940898 -1104.625 403.6875 C-1124.89741091 381.76537803 -1139.89606417 355.88191285 -1150.6875 328.125 C-1151.14511719 326.99835938 -1151.60273437 325.87171875 -1152.07421875 324.7109375 C-1158.891677 307.03285965 -1162.47521413 287.88976742 -1164.6875 269.125 C-1164.81898437 268.01898437 -1164.95046875 266.91296875 -1165.0859375 265.7734375 C-1170.65653353 207.5080142 -1152.68419434 147.14139276 -1116.6875 101.125 C-1116.15640625 100.444375 -1115.6253125 99.76375 -1115.078125 99.0625 C-1104.50286543 85.62104858 -1092.90801901 73.02191264 -1079.6875 62.125 C-1078.87410156 61.4340625 -1078.06070312 60.743125 -1077.22265625 60.03125 C-1065.83511968 50.48989941 -1053.57954821 42.45655086 -1040.6875 35.125 C-1039.97883789 34.7213623 -1039.27017578 34.31772461 -1038.54003906 33.90185547 C-1016.64437242 21.57651211 -992.81666181 12.89667601 -968.3125 7.4375 C-967.04116211 7.15181152 -967.04116211 7.15181152 -965.74414062 6.86035156 C-962.73431255 6.22301546 -959.71463208 5.67494047 -956.6875 5.125 C-955.40073364 4.8750939 -954.11396729 4.62518781 -952.78820801 4.3677088 C-935.59014475 1.3134155 -918.2656894 1.69473618 -900.86708936 1.72946358 C-896.12456446 1.7355655 -891.3820744 1.72412384 -886.63955879 1.71499789 C-878.3452227 1.70140223 -870.05094069 1.69876012 -861.75659561 1.70346642 C-849.42313139 1.7104074 -837.08972288 1.70009426 -824.75626655 1.686303 C-804.0038305 1.66356126 -783.25140995 1.65450376 -762.4989624 1.65317917 C-741.9571651 1.65179384 -721.415387 1.64377839 -700.87359619 1.62712479 C-699.59478092 1.62608978 -698.31596565 1.62505478 -696.99839841 1.62398841 C-690.50343885 1.61869055 -684.00847941 1.61326413 -677.51352 1.60778125 C-664.30872706 1.59668069 -651.10393339 1.58655396 -637.8991394 1.5767765 C-637.23858957 1.57628697 -636.57803973 1.57579743 -635.89747323 1.57529305 C-604.49316697 1.5520897 -573.08885797 1.53887873 -541.68454564 1.52714511 C-538.21262328 1.52584786 -534.74070092 1.5245442 -531.26877856 1.52324052 C-530.58068673 1.52298216 -529.89259489 1.5227238 -529.18365178 1.52245761 C-521.52433067 1.51957947 -513.86500957 1.51667331 -506.20568848 1.51373291 C-505.51525105 1.51346836 -504.82481362 1.51320382 -504.11345385 1.51293125 C-471.99986661 1.50059901 -439.88628281 1.48325055 -407.77269896 1.46413217 C-405.6870745 1.46289095 -403.60145003 1.46165349 -401.51582557 1.46041664 C-370.77327431 1.44216702 -340.03072412 1.42256349 -309.28817498 1.40103797 C-307.2887341 1.39963832 -305.28929323 1.39824163 -303.28985235 1.39684495 C-291.42571377 1.38855514 -279.56157521 1.38025738 -267.69743681 1.37171336 C-236.82178239 1.34950558 -205.94613255 1.33174454 -175.07047164 1.32176055 C-155.72175995 1.31543739 -136.37305159 1.30590265 -117.02434266 1.29379199 C-104.76547566 1.28626005 -92.50661504 1.28165036 -80.24774571 1.281046 C-72.07068946 1.2803832 -63.89364014 1.27617511 -55.71658699 1.26903976 C-51.05069373 1.2650805 -46.38481457 1.26275276 -41.71891975 1.26480167 C-37.47958115 1.26663982 -33.2402712 1.26394949 -29.00093724 1.2575554 C-27.47197012 1.25606341 -25.94300023 1.25626654 -24.41403376 1.25831752 C-22.34566877 1.26085374 -20.27740161 1.25728532 -18.2090435 1.25215852 C-17.06151317 1.25173788 -15.91398283 1.25131723 -14.73167884 1.25088384 C-9.73329279 1.04418901 -5.05110356 -0.01131266 0 0 Z M9.63331448 7.36234111 C0.88520235 8.12717701 -7.81453649 8.26833766 -16.58806324 8.25807858 C-18.16494606 8.25992312 -19.74182842 8.26220337 -21.31871006 8.26487562 C-25.63654471 8.27094651 -29.95436044 8.27088694 -34.2721984 8.26980268 C-38.97575606 8.26972975 -43.67930728 8.27545533 -48.38286179 8.28044754 C-56.62175887 8.28840807 -64.86065155 8.29273177 -73.09955215 8.29466438 C-85.35172903 8.29756811 -97.60389719 8.30619647 -109.8560702 8.3160775 C-130.47360315 8.33258328 -151.09113645 8.34477438 -171.70867348 8.35479546 C-201.17549441 8.3692217 -230.64230572 8.391983 -260.10911979 8.41646057 C-271.93857935 8.42625053 -283.76803912 8.43577161 -295.59749889 8.44529057 C-296.91174792 8.44634933 -298.22599695 8.4474081 -299.58007171 8.44849895 C-330.16793388 8.47309079 -360.75579771 8.49518817 -391.3436624 8.51638557 C-393.41679035 8.51782263 -395.4899183 8.51926232 -397.56304625 8.52070238 C-429.48211373 8.54285962 -461.40118175 8.56372757 -493.32025146 8.58239746 C-494.7064622 8.58320927 -496.09267293 8.58402114 -497.47888366 8.58483307 C-503.70775029 8.58848008 -509.93661692 8.5921184 -516.16548356 8.59575565 C-518.92835618 8.59736911 -521.6912288 8.59898339 -524.45410142 8.60059757 C-526.52411336 8.60180632 -528.59412529 8.6030132 -530.66413723 8.60421998 C-576.29774769 8.63084833 -621.93134831 8.66424087 -667.56494872 8.70499813 C-674.01303263 8.7107478 -680.46111662 8.71640645 -686.90920067 8.72200203 C-688.17817645 8.72310383 -689.44715224 8.72420564 -690.75458184 8.72534083 C-711.15431446 8.74282746 -731.55404449 8.75300732 -751.95378305 8.76025448 C-772.46697909 8.7676566 -792.98016034 8.78207945 -813.49334643 8.80368023 C-825.67042 8.81627478 -837.84746744 8.82334795 -850.02454764 8.82243004 C-858.17162311 8.82236021 -866.31867189 8.82954891 -874.46573702 8.84248009 C-879.09907146 8.84962808 -883.73235006 8.8537574 -888.36568884 8.84895759 C-922.90891443 8.62226547 -922.90891443 8.62226547 -957.0625 13.25 C-958.07666992 13.46172852 -959.09083984 13.67345703 -960.13574219 13.89160156 C-991.62211338 20.75661534 -1023.50276503 33.03124346 -1049.6875 52.125 C-1050.62070068 52.79982422 -1050.62070068 52.79982422 -1051.57275391 53.48828125 C-1060.02903881 59.62359013 -1068.03523477 65.99952114 -1075.6875 73.125 C-1077.01687633 74.27542183 -1078.35007608 75.42144388 -1079.6875 76.5625 C-1086.4980897 82.50628737 -1092.87650517 88.95547804 -1098.734375 95.83984375 C-1100.24138283 97.60304291 -1101.77863503 99.34042112 -1103.328125 101.06640625 C-1140.81116199 143.13153794 -1160.6578778 199.86363849 -1157.6875 256.125 C-1154.76078586 295.29149764 -1143.54198421 332.26758371 -1121.6875 365.125 C-1121.06125732 366.06762695 -1121.06125732 366.06762695 -1120.42236328 367.02929688 C-1110.82560061 381.29691547 -1099.31527805 393.85628048 -1087.16113281 405.96704102 C-1085.31161852 407.81337996 -1083.47592092 409.67274274 -1081.640625 411.53320312 C-1073.7947533 419.41985378 -1065.6010435 426.47321013 -1056.6875 433.125 C-1055.84227783 433.75792969 -1054.99705566 434.39085937 -1054.1262207 435.04296875 C-1010.79270247 466.94972582 -957.92619526 481.27348408 -904.62174892 481.27483845 C-903.0268752 481.27850698 -901.43200241 481.28260265 -899.83713076 481.2870827 C-895.46948715 481.29811253 -891.10185491 481.3030794 -886.73419992 481.30701085 C-881.97693504 481.31236533 -877.2196826 481.32338294 -872.46242625 481.33365077 C-863.03435708 481.35309865 -853.60628671 481.36725989 -844.17820609 481.37977719 C-832.88325827 481.39501187 -821.58832261 481.41589725 -810.29338416 481.43682492 C-783.0058448 481.48707255 -755.71829332 481.52713041 -728.4307351 481.56550932 C-715.52652015 481.58369203 -702.6223067 481.60285856 -689.71809321 481.62205052 C-646.24691501 481.68660056 -602.77573402 481.74859523 -559.30454183 481.80293684 C-555.84219677 481.80726655 -552.37985172 481.81160962 -548.91750667 481.81595192 C-548.23069893 481.81681312 -547.54389119 481.81767431 -546.8362711 481.8185616 C-539.87811894 481.82728725 -532.9199668 481.83602486 -525.96181469 481.84478022 C-524.56670217 481.84653501 -523.17158965 481.84828843 -521.77647713 481.85004046 C-476.93021726 481.90636209 -432.0839992 481.97727113 -387.23777738 482.05822419 C-354.99940236 482.11641071 -322.76103061 482.17280767 -290.52262974 482.21475506 C-289.86004593 482.21561801 -289.19746213 482.21648097 -288.51480003 482.21737007 C-273.3194311 482.23711613 -258.12406077 482.25551671 -242.92868906 482.27299136 C-237.73030215 482.27902568 -232.53191531 482.28512223 -227.33352852 482.29126549 C-226.05352222 482.29277183 -224.77351592 482.29427817 -223.45472155 482.29583016 C-202.8204141 482.32046405 -182.18615176 482.35846472 -161.55187486 482.40124668 C-140.83740211 482.44387046 -120.12295047 482.47182826 -99.40843748 482.4846885 C-87.08935378 482.49277098 -74.77040495 482.51208605 -62.45136805 482.5472153 C-54.2351952 482.56955123 -46.01909193 482.57749634 -37.80288986 482.57347097 C-33.11360729 482.57159031 -28.42456759 482.57620323 -23.73533129 482.59825668 C-19.47580767 482.61816459 -15.21669212 482.6198958 -10.95714607 482.60666183 C-9.41976471 482.60515201 -7.88235896 482.61046274 -6.34502925 482.62315472 C-4.26727242 482.63934621 -2.1910213 482.63111378 -0.11328644 482.61653262 C1.03993334 482.61818065 2.19315311 482.61982868 3.38131893 482.62152665 C6.42770857 482.41664401 6.42770857 482.41664401 8.13970136 480.10496374 C10.3125 478.125 10.3125 478.125 12.95998167 477.7608575 C13.96597932 477.82296219 14.97197696 477.88506689 16.00845939 477.94905354 C17.15101536 478.00654585 18.29357134 478.06403815 19.47075022 478.12327265 C20.70682382 478.20395409 21.94289743 478.28463552 23.2164278 478.36776185 C25.87067208 478.50040768 28.52487821 478.62920857 31.17948115 478.75397614 C31.85894198 478.78790519 32.5384028 478.82183425 33.23845335 478.85679146 C40.01754796 479.18669107 46.78937753 479.2462229 53.57615185 479.24623847 C54.7845524 479.24750776 55.99295295 479.24877704 57.23797169 479.25008479 C60.43395084 479.25089202 63.62989786 479.24798447 66.82587261 479.24318198 C70.37014399 479.2390286 73.91441397 479.24090196 77.45868695 479.24191421 C83.66248742 479.24289143 89.86627741 479.24019604 96.07007563 479.2349647 C105.35739012 479.22714954 114.6446998 479.22523855 123.93201721 479.22438092 C139.76846633 479.22274413 155.60491022 479.21631699 171.44135666 479.20720482 C187.47414499 479.1979919 203.50693204 479.1909744 219.53972244 479.18658638 C221.06267163 479.18616667 221.06267163 479.18616667 222.61638748 479.18573848 C226.75202108 479.18460426 230.88765468 479.18348293 235.02328829 479.18237863 C280.40314286 479.17023462 325.78299166 479.14967766 371.1628419 479.12677004 C372.88277597 479.12590186 372.88277597 479.12590186 374.63745618 479.12501615 C376.95757131 479.12384441 379.27768645 479.12267147 381.59780158 479.12149735 C405.93250484 479.10919718 430.26720864 479.09825734 454.60191265 479.08757466 C532.70302788 479.05328415 610.80414197 479.01714053 688.9052526 478.97349904 C692.63454935 478.97141524 696.3638461 478.96933473 700.09314286 478.9672552 C707.57193748 478.96308449 715.05073209 478.95891022 722.52952671 478.95473552 C731.28483127 478.94984836 740.04013583 478.94496362 748.7954404 478.94008375 C751.30124904 478.93868661 753.80705767 478.93728847 756.31286631 478.93588934 C836.81842856 478.89094199 917.32398885 478.85751759 997.8295596 478.83231978 C1055.70982623 478.81419675 1113.59009043 478.79481519 1171.47035217 478.76453018 C1172.66103052 478.76390773 1173.85170888 478.76328529 1175.07846839 478.76264398 C1201.21832699 478.74894579 1227.35818505 478.73438823 1253.49804273 478.71903208 C1262.85145594 478.71354687 1272.2048692 478.70813378 1281.55828248 478.70275927 C1283.88506625 478.70142212 1286.21185001 478.70008173 1288.53863378 478.69873811 C1325.5817878 478.6773888 1362.62493801 478.66501522 1399.66809716 478.65722771 C1436.97931144 478.64932514 1474.29050868 478.63186937 1511.60171171 478.60139245 C1516.76290026 478.59717765 1521.92408888 478.5930668 1527.08527756 478.58901787 C1528.60279173 478.5878213 1528.60279173 478.5878213 1530.15096275 478.58660056 C1546.13699444 478.57426736 1562.12301116 478.57192272 1578.10904685 478.5737922 C1593.84731024 478.57542317 1609.58553766 478.56632452 1625.32378832 478.54600006 C1634.5368457 478.53441884 1643.74981858 478.53086239 1652.96287965 478.53955511 C1659.10046098 478.54451851 1665.23797069 478.53843545 1671.37553634 478.52379964 C1674.84250611 478.51582895 1678.30930483 478.51212493 1681.77627315 478.52219599 C1714.21033756 478.59386362 1745.44236808 475.3206399 1776.3125 465.125 C1777.31579346 464.79725586 1777.31579346 464.79725586 1778.33935547 464.46289062 C1812.03079212 453.24679136 1842.05291909 433.83657644 1867.3125 409.125 C1868.14539551 408.31788574 1868.97829102 407.51077148 1869.83642578 406.67919922 C1880.42242275 396.39965412 1890.8041531 386.21974511 1899.3125 374.125 C1899.71936035 373.55716797 1900.1262207 372.98933594 1900.54541016 372.40429688 C1933.52264434 326.07455363 1948.33773967 267.81852064 1939.2890625 211.4453125 C1931.57291744 167.88024503 1912.29556744 125.15126841 1880.21484375 94.0234375 C1878.29474311 92.10727957 1876.51860163 90.11864711 1874.75 88.0625 C1868.24548572 80.54942058 1861.06825775 74.33175759 1853.3125 68.125 C1852.49652344 67.45339844 1851.68054687 66.78179688 1850.83984375 66.08984375 C1844.26066328 60.70882298 1837.37728385 55.8404297 1830.3125 51.125 C1828.94158203 50.18914063 1828.94158203 50.18914063 1827.54296875 49.234375 C1796.40028258 28.95541656 1758.25156405 16.32391573 1721.3125 13.125 C1720.48932907 13.04271018 1719.66615815 12.96042037 1718.81804265 12.87563692 C1706.53525262 11.80607512 1694.22981032 11.98344289 1681.91082136 11.99607829 C1678.41039503 11.99854388 1674.90997326 11.99514787 1671.40954772 11.99252674 C1665.25971136 11.9887156 1659.10988355 11.98858617 1652.96004657 11.99087711 C1643.7533106 11.9942812 1634.54658237 11.99185051 1625.3398468 11.98827625 C1609.64662759 11.98234148 1593.95341111 11.98104559 1578.26019096 11.98225212 C1562.35816991 11.98344539 1546.45615124 11.98241825 1530.55413055 11.9786644 C1529.54942951 11.97842769 1528.54472846 11.97819098 1527.50958193 11.97794709 C1522.38644716 11.97672569 1517.2633124 11.97545988 1512.14017765 11.97417164 C1501.63702563 11.97154004 1491.13387355 11.9691862 1480.63072145 11.96691763 C1479.57294932 11.9666885 1478.51517719 11.96645936 1477.42535137 11.96622329 C1460.96504794 11.96270403 1444.50474459 11.96040984 1428.04444087 11.95885694 C1426.93252131 11.95875163 1425.82060176 11.95864632 1424.67498767 11.95853782 C1420.15925943 11.95811329 1415.64353119 11.95769534 1411.12780295 11.95728201 C1355.90683109 11.9522217 1300.68586576 11.93755875 1245.46489705 11.91859599 C1232.54002624 11.91415884 1219.6151554 11.90984026 1206.69028455 11.90552729 C1204.32277841 11.90473676 1201.95527227 11.9039462 1199.58776614 11.90315561 C1194.83816492 11.90156979 1190.08856371 11.89998518 1185.3389625 11.89840112 C1180.57177064 11.89681075 1175.80457878 11.89521627 1171.03738692 11.89361839 C1116.05253025 11.87519396 1061.06767316 11.85838654 1006.08281553 11.84307931 C1002.35526288 11.84204075 998.62771023 11.84099731 994.90015758 11.83995338 C937.4972002 11.82391209 880.09424357 11.81086372 822.69128418 11.80493164 C821.45685405 11.80480355 820.22242392 11.80467545 818.95058681 11.80454348 C799.04705653 11.80248738 779.14352623 11.80058845 759.23999593 11.79872333 C701.89645879 11.79334899 644.55292537 11.78555322 587.20939159 11.76436329 C586.02977025 11.76392861 584.85014891 11.76349394 583.63478147 11.76304609 C558.9003922 11.75390038 534.16600334 11.74391145 509.43161486 11.73283185 C497.84825649 11.72764568 486.26489804 11.72264615 474.68153954 11.71775246 C472.97090729 11.71702471 472.97090729 11.71702471 471.22571681 11.71628226 C434.51223997 11.70075647 397.79877655 11.69833801 361.08529714 11.7029826 C324.09898509 11.70761886 287.11269791 11.70003338 250.12639312 11.67537887 C245.01062324 11.67197315 239.89485328 11.66871195 234.77908325 11.66553879 C233.27489889 11.66459838 233.27489889 11.66459838 231.74032696 11.66363897 C215.8895718 11.65410004 200.03884958 11.65796144 184.18809561 11.66748165 C168.58548864 11.67657795 152.98294002 11.67137597 137.38034291 11.65118354 C128.24443253 11.63978753 119.1086798 11.63917028 109.97277501 11.65493096 C103.88868739 11.6643239 97.80472239 11.65897989 91.72065119 11.64216141 C88.28231648 11.63305559 84.84454519 11.63199762 81.40618593 11.64472724 C65.66353755 11.69877786 50.64105769 10.66522587 35.11237432 8.01276313 C26.61153935 6.59997524 18.20427953 6.6030647 9.63331448 7.36234111 Z " fill="#000000" transform="translate(1250.6875,575.875)"/>
<path d="M0 0 C1.05445313 -0.02449219 2.10890625 -0.04898438 3.1953125 -0.07421875 C4.21109375 -0.07808594 5.226875 -0.08195313 6.2734375 -0.0859375 C7.20333496 -0.09415527 8.13323242 -0.10237305 9.09130859 -0.11083984 C12.48830157 0.54053961 13.49556606 1.66915508 15.625 4.375 C16.87920844 6.60963321 18.01039055 8.79239143 19.09375 11.10546875 C19.56929321 12.09430557 19.56929321 12.09430557 20.05444336 13.1031189 C21.08587001 15.25256304 22.10541101 17.40741906 23.125 19.5625 C23.83969349 21.05694272 24.55519578 22.5509989 25.27148438 24.04467773 C27.06379578 27.78636267 28.84708736 31.53226465 30.62792969 35.27941895 C32.61888281 39.46388175 34.62429718 43.6414007 36.62890625 47.81933594 C37.61724339 49.87923181 38.60424812 51.93976756 39.58984375 54.00097656 C42.36997921 59.80576079 45.21400672 65.57236793 48.125 71.3125 C50.51329857 76.02347804 52.62750876 80.75048971 54.50390625 85.6875 C56.86797398 91.35467281 59.76347756 96.78473525 62.54760742 102.25439453 C66.45768763 109.9505098 70.23416628 117.70246546 73.9375 125.5 C77.08829849 132.1132549 80.25917892 138.71150358 83.5625 145.25 C88.58358548 155.21069823 93.41416573 165.26322945 98.18847656 175.34423828 C99.11318909 177.29518684 100.04191093 179.24424271 100.97558594 181.19091797 C102.16691783 183.68242741 103.33695819 186.18268728 104.5 188.6875 C104.85191406 189.41565918 105.20382812 190.14381836 105.56640625 190.89404297 C106.4921875 192.92578125 106.4921875 192.92578125 107.625 196.375 C106.69580078 198.59057617 106.69580078 198.59057617 105.625 200.375 C99.30842088 200.57804215 92.99268372 200.71801513 86.67358398 200.81445312 C84.52482664 200.8546562 82.37628776 200.90923005 80.22827148 200.97851562 C77.13731054 201.07571116 74.04924262 201.1209562 70.95703125 201.15625 C69.99851761 201.19754028 69.04000397 201.23883057 68.05244446 201.28137207 C65.35368701 201.28318286 63.19750018 201.19668831 60.625 200.375 C58.25907241 198.00020965 56.95888692 195.42490807 55.625 192.375 C55.20694092 191.58351563 54.78888184 190.79203125 54.3581543 189.9765625 C54.05820557 189.32429687 53.75825684 188.67203125 53.44921875 188 C53.10101074 187.25194092 52.75280273 186.50388184 52.39404297 185.7331543 C52.03713379 184.95496338 51.68022461 184.17677246 51.3125 183.375 C50.5182379 181.67256491 49.72264641 179.97074947 48.92578125 178.26953125 C48.53471191 177.43373535 48.14364258 176.59793945 47.74072266 175.73681641 C45.23354956 170.4295095 42.56964852 165.19984556 39.92724609 159.95898438 C37.04860259 154.24703034 34.17810016 148.53100692 31.3125 142.8125 C30.98714264 142.16330597 30.66178528 141.51411194 30.3265686 140.84524536 C25.5666052 131.33961628 20.90460774 121.79298102 16.35424805 112.18481445 C13.69548104 106.57746224 10.94633164 101.02705108 8.125 95.5 C5.44628842 90.23789052 3.24923306 85.0598157 1.625 79.375 C-1.24063967 80.80781983 -1.58246461 82.65409083 -2.87890625 85.5625 C-3.3680249 86.64587646 -3.85714355 87.72925293 -4.36108398 88.84545898 C-4.88130127 90.01020752 -5.40151855 91.17495605 -5.9375 92.375 C-9.5296104 100.30295695 -13.16385269 108.15896099 -17.3125 115.8125 C-20.09851172 120.95590626 -22.71265264 126.10231472 -25.078125 131.45703125 C-30.11336576 142.78632295 -35.58494807 153.90998116 -41.16796875 164.97705078 C-43.66482336 169.9374282 -46.14282769 174.90726444 -48.625 179.875 C-51.58387411 185.79321788 -51.58387411 185.79321788 -53.05664062 188.7265625 C-53.90132821 190.42344601 -54.73447944 192.12615107 -55.55273438 193.8359375 C-58.16926626 199.27213313 -58.16926626 199.27213313 -60.375 200.375 C-61.783795 200.47427682 -63.1971036 200.51328309 -64.609375 200.52026367 C-65.48368164 200.52664352 -66.35798828 200.53302338 -67.25878906 200.53959656 C-68.20463867 200.54070938 -69.15048828 200.5418222 -70.125 200.54296875 C-71.09405273 200.54629715 -72.06310547 200.54962555 -73.06152344 200.55305481 C-75.11262537 200.5581227 -77.16373556 200.56046318 -79.21484375 200.56030273 C-82.36211629 200.56249104 -85.50903945 200.58065324 -88.65625 200.59960938 C-90.64583213 200.60254289 -92.63541593 200.60452797 -94.625 200.60546875 C-95.57084961 200.61265427 -96.51669922 200.61983978 -97.49121094 200.62724304 C-98.8026709 200.6226281 -98.8026709 200.6226281 -100.140625 200.61791992 C-101.29739746 200.62005745 -101.29739746 200.62005745 -102.47753906 200.62223816 C-104.375 200.375 -104.375 200.375 -106.375 198.375 C-106.22825899 192.25100842 -102.9625126 186.87704765 -100.3125 181.5 C-99.81516357 180.47640381 -99.31782715 179.45280762 -98.80541992 178.39819336 C-97.33804644 175.38571884 -95.85931139 172.37915973 -94.375 169.375 C-93.98795898 168.59108887 -93.60091797 167.80717773 -93.20214844 166.99951172 C-90.64278038 161.82977801 -88.04536688 156.67933703 -85.44293213 151.53117371 C-80.69421369 142.13076707 -76.11100144 132.66548549 -71.64923096 123.12582397 C-64.89988794 108.70549325 -57.99802445 94.36365467 -51 80.0625 C-50.57175934 79.18725677 -50.14351868 78.31201355 -49.70230103 77.4102478 C-49.27822968 76.54356476 -48.85415833 75.67688171 -48.41723633 74.78393555 C-47.58411857 73.08123142 -46.7510288 71.37851361 -45.91796875 69.67578125 C-45.51808243 68.85851059 -45.11819611 68.04123993 -44.70619202 67.19920349 C-40.28820599 58.1632811 -35.94514895 49.0923103 -31.62695312 40.00830078 C-12.61303956 0.01530709 -12.61303956 0.01530709 0 0 Z " fill="#FCFDFD" transform="translate(318.375,704.625)"/>
<path d="M0 0 C8.91 0 17.82 0 27 0 C31.49968038 11.24920094 31.49968038 11.24920094 33.06787109 15.65698242 C33.60095383 17.15071381 33.60095383 17.15071381 34.14480591 18.67462158 C34.51725433 19.72430115 34.88970276 20.77398071 35.2734375 21.85546875 C35.67432587 22.98015564 36.07521423 24.10484253 36.48825073 25.26361084 C37.78558898 28.90428484 39.08032111 32.54587954 40.375 36.1875 C41.9436777 40.59278748 43.51320271 44.9977727 45.082901 49.40269661 C45.75771283 51.29659527 46.43227285 53.1905835 47.10681152 55.08457947 C49.86880518 62.8368784 52.64226735 70.58493311 55.4296875 78.328125 C55.76136932 79.24978958 56.09305115 80.17145416 56.43478394 81.12104797 C57.67472615 84.56555945 58.91506621 88.00992268 60.15838623 91.45321655 C60.987082 93.74829897 61.81400061 96.04401466 62.640625 98.33984375 C62.88336151 99.00997498 63.12609802 99.6801062 63.37619019 100.37054443 C65 104.88657428 65 104.88657428 65 106 C57.41 106 49.82 106 42 106 C37.54692557 94.86731392 37.54692557 94.86731392 35.8125 89.4375 C34.90247635 85.93618626 34.90247635 85.93618626 33 83 C30.04294679 82.91131701 27.10934944 82.88479704 24.15234375 82.90234375 C23.2659169 82.9037587 22.37949005 82.90517365 21.46620178 82.90663147 C18.62326746 82.91224785 15.78041069 82.92480309 12.9375 82.9375 C11.01497509 82.94251289 9.09244896 82.94707616 7.16992188 82.95117188 C2.44658451 82.96222259 -2.27669458 82.97949817 -7 83 C-9.40962469 88.50978633 -9.40962469 88.50978633 -11.38671875 94.18359375 C-11.58225342 94.81579834 -11.77778809 95.44800293 -11.97924805 96.09936523 C-12.21297119 96.87094971 -12.44669434 97.64253418 -12.6875 98.4375 C-13.450625 100.933125 -14.21375 103.42875 -15 106 C-22.59 106 -30.18 106 -38 106 C-34.62471059 94.7490353 -34.62471059 94.7490353 -32.95385742 90.14355469 C-32.57837769 89.10451996 -32.20289795 88.06548523 -31.81604004 86.9949646 C-31.41655151 85.89834503 -31.01706299 84.80172546 -30.60546875 83.671875 C-30.18092407 82.49992584 -29.75637939 81.32797668 -29.31896973 80.12051392 C-28.17931503 76.97671666 -27.03716352 73.83385098 -25.89364243 70.69145966 C-24.94805885 68.09168333 -24.0045474 65.49115696 -23.06098652 62.89064598 C-15.44447102 41.90114044 -7.7571991 20.93791892 0 0 Z " fill="#FEE1A9" transform="translate(510,766)"/>
<path d="M0 0 C0.9583374 0.00523682 1.9166748 0.01047363 2.90405273 0.01586914 C4.45576172 0.02070312 4.45576172 0.02070312 6.03881836 0.02563477 C7.12743164 0.03401367 8.21604492 0.04239258 9.33764648 0.05102539 C10.97636719 0.05779297 10.97636719 0.05779297 12.64819336 0.06469727 C15.35723144 0.07652713 18.06616248 0.09300996 20.77514648 0.11352539 C27.73036227 19.29278598 34.64755236 38.48573315 41.50317383 57.70083618 C42.22684771 59.72790096 42.95162215 61.75457317 43.67749023 63.78085327 C44.6987955 66.63284472 45.71602519 69.48625719 46.73217773 72.34008789 C47.04093338 73.19992783 47.34968903 74.05976776 47.6678009 74.94566345 C49.77514648 80.8849824 49.77514648 80.8849824 49.77514648 83.11352539 C42.84514648 83.11352539 35.91514648 83.11352539 28.77514648 83.11352539 C27.95014648 80.51477539 27.12514648 77.91602539 26.27514648 75.23852539 C26.01411133 74.4214209 25.75307617 73.60431641 25.48413086 72.76245117 C23.77514648 67.33574761 23.77514648 67.33574761 23.77514648 65.11352539 C13.54514648 65.11352539 3.31514648 65.11352539 -7.22485352 65.11352539 C-7.55485352 67.42352539 -7.88485352 69.73352539 -8.22485352 72.11352539 C-9.40171007 75.85205365 -10.82257771 79.44951442 -12.22485352 83.11352539 C-18.82485352 83.11352539 -25.42485352 83.11352539 -32.22485352 83.11352539 C-30.89915539 77.14788383 -29.55495692 71.78985133 -27.42407227 66.15258789 C-27.15111328 65.41589371 -26.8781543 64.67919952 -26.59692383 63.92018127 C-25.70765608 61.52417347 -24.81016343 59.13134394 -23.91235352 56.73852539 C-23.28984973 55.06724897 -22.6678683 53.3957779 -22.04638672 51.72412109 C-20.75972806 48.26546434 -19.46988388 44.80801851 -18.17797852 41.35131836 C-16.25266596 36.19510568 -14.34644269 31.03197189 -12.44360352 25.86743164 C-11.553078 23.45421715 -10.66220647 21.04113079 -9.77114868 18.62811279 C-9.199313 17.0786029 -8.62816457 15.52883922 -8.05770874 13.9788208 C-7.26581821 11.82871909 -6.47042123 9.67994779 -5.67407227 7.53149414 C-5.22378662 6.31228271 -4.77350098 5.09307129 -4.30957031 3.83691406 C-2.83903918 0.14486483 -2.83903918 0.14486483 0 0 Z " fill="#FBDEA8" transform="translate(2195.224853515625,772.886474609375)"/>
<path d="M0 0 C5.72319313 6.28155344 7.69599372 13.8786304 7.67602539 22.24536133 C7.67591209 23.83644463 7.67591209 23.83644463 7.67579651 25.45967102 C7.67063522 26.5931749 7.66547394 27.72667877 7.66015625 28.89453125 C7.6587413 30.06384689 7.65732635 31.23316254 7.65586853 32.43791199 C7.65027793 36.16696751 7.63772709 39.89596267 7.625 43.625 C7.61998379 46.15559809 7.61542109 48.68619712 7.61132812 51.21679688 C7.60031156 57.41538779 7.58305332 63.61393366 7.5625 69.8125 C1.2925 69.8125 -4.9775 69.8125 -11.4375 69.8125 C-11.9325 65.3575 -11.9325 65.3575 -12.4375 60.8125 C-13.4275 60.8125 -14.4175 60.8125 -15.4375 60.8125 C-16.9073772 62.25377342 -16.9073772 62.25377342 -18.25 64.125 C-22.08714331 68.82645034 -26.39040766 71.10934973 -32.4375 71.8125 C-40.18417968 72.43405356 -46.6924899 71.17348463 -53.3125 67 C-58.21434004 61.95398819 -59.08877641 56.73795897 -59.50390625 49.91796875 C-59.3766847 43.96849023 -57.7451473 39.04034354 -54.75 33.9375 C-45.49105154 25.42927709 -31.62511962 24.65898485 -19.65234375 23.33984375 C-16.79011156 22.87034029 -14.89734828 22.29086268 -12.4375 20.8125 C-12.46883992 15.63763142 -12.46883992 15.63763142 -14.734375 11.203125 C-20.35807113 6.47031142 -25.41604082 6.27165787 -32.4375 6.8125 C-39.09215142 8.03702342 -45.33377415 9.89935811 -51.4375 12.8125 C-51.4375 8.1925 -51.4375 3.5725 -51.4375 -1.1875 C-34.90438613 -6.41736255 -15.35826363 -10.92143192 0 0 Z " fill="#FEE1A9" transform="translate(746.4375,802.1875)"/>
<path d="M0 0 C5.32361786 2.87416103 7.86680667 6.2671987 9.79467773 11.97558594 C12.89420749 24.4371022 12.26526122 37.0601967 12.125 49.8125 C12.10992485 52.20572074 12.09624146 54.59895067 12.08398438 56.9921875 C12.05120592 62.80752188 11.99957944 68.62240762 11.9375 74.4375 C5.3375 74.4375 -1.2625 74.4375 -8.0625 74.4375 C-8.11857422 69.61318359 -8.11857422 69.61318359 -8.17578125 64.69140625 C-8.22207968 61.55372574 -8.27328311 58.4161606 -8.32495117 55.27856445 C-8.35806998 53.10904027 -8.38614193 50.93943262 -8.40893555 48.76977539 C-8.44272212 45.63912611 -8.49504978 42.50923274 -8.55078125 39.37890625 C-8.55717117 38.41916397 -8.5635611 37.45942169 -8.57014465 36.47059631 C-8.72977893 29.04884114 -9.8360928 22.58066311 -14.1875 16.4375 C-18.08284067 13.7276978 -21.35697061 13.16266377 -26.0625 13.4375 C-31.25049 15.13357365 -33.94561997 18.02191996 -37.0625 22.4375 C-39.46990482 27.90925804 -39.40699886 33.21293458 -39.4765625 39.0859375 C-39.49592865 40.09846588 -39.5152948 41.11099426 -39.5352478 42.15420532 C-39.59480723 45.37355242 -39.64133448 48.59293574 -39.6875 51.8125 C-39.72570151 54.00131728 -39.7647545 56.19011988 -39.8046875 58.37890625 C-39.90208467 63.73169244 -39.98184162 69.08433091 -40.0625 74.4375 C-46.6625 74.4375 -53.2625 74.4375 -60.0625 74.4375 C-60.0625 50.0175 -60.0625 25.5975 -60.0625 0.4375 C-53.4625 0.4375 -46.8625 0.4375 -40.0625 0.4375 C-39.4025 3.7375 -38.7425 7.0375 -38.0625 10.4375 C-34.82270773 9.66573602 -34.82270773 9.66573602 -32.875 6.625 C-25.53224021 -2.65946223 -10.47162105 -4.13214052 0 0 Z " fill="#FFE2AA" transform="translate(1074.0625,797.5625)"/>
<path d="M0 0 C6.9652804 6.84779374 8.62936664 13.84758739 8.75 23.375 C8.6476745 32.81929698 6.87338157 39.18038253 0.5 46.3125 C-0.28375 46.993125 -1.0675 47.67375 -1.875 48.375 C-2.32875 48.91125 -2.7825 49.4475 -3.25 50 C-9.00534662 54.86990868 -15.51488434 54.86628239 -22.6875 54.8125 C-23.62142578 54.83248047 -24.55535156 54.85246094 -25.51757812 54.87304688 C-33.4043849 54.86757373 -40.08396543 53.16601502 -46.49609375 48.4453125 C-54.90661889 39.43791139 -56.37990631 31.41974976 -56.1484375 19.3984375 C-55.80498997 12.11802992 -53.42655989 6.67374057 -48.375 1.4375 C-47.22199798 0.40125768 -46.05714798 -0.62213513 -44.875 -1.625 C-43.946875 -2.5221875 -43.946875 -2.5221875 -43 -3.4375 C-30.73753289 -10.29005515 -10.99597707 -8.27047848 0 0 Z " fill="#FADEA7" transform="translate(1879.875,802.625)"/>
<path d="M0 0 C5.35974651 4.30063492 8.79732538 9.46879661 9.75 16.3125 C9.86822522 18.97119263 9.93503215 21.59212186 9.9375 24.25 C9.94974609 24.94029297 9.96199219 25.63058594 9.97460938 26.34179688 C10.00073767 35.53024583 6.35780311 42.53289675 0.125 49.0625 C-9.63112367 56.3303194 -21.19013525 56.33788004 -32.76953125 55.02734375 C-40.02876688 53.55258779 -45.48639519 49.84963955 -49.625 43.8125 C-55.51580004 34.46620273 -55.68889498 23.94154047 -53.66796875 13.2265625 C-51.12348996 5.86035449 -45.7938054 -0.39736373 -38.81640625 -3.9140625 C-26.35321854 -7.97360918 -10.92866317 -7.4137142 0 0 Z " fill="#FBDEA7" transform="translate(2420.25,801.6875)"/>
<path d="M0 0 C0.87873779 -0.01409912 1.75747559 -0.02819824 2.6628418 -0.04272461 C8.7825862 0.002692 13.59687939 1.18603892 19.3125 3.375 C19.3125 8.985 19.3125 14.595 19.3125 20.375 C16.3425 19.385 13.3725 18.395 10.3125 17.375 C10.3125 16.715 10.3125 16.055 10.3125 15.375 C7.60355233 15.29355057 4.89708737 15.23429386 2.1875 15.1875 C1.42695312 15.16236328 0.66640625 15.13722656 -0.1171875 15.11132812 C-5.08487498 15.04709079 -8.34587795 15.69022749 -12.6875 18.375 C-14.04604025 19.52640868 -14.04604025 19.52640868 -14.0625 22.625 C-13.57863907 27.46360931 -12.39555145 28.2984093 -8.6875 31.375 C-5.70598113 32.98473351 -2.61400607 34.29429581 0.5 35.625 C8.71594909 39.32315565 17.14977416 43.36179196 21.5390625 51.70703125 C22.49105079 54.99091006 22.6138667 57.89457837 22.625 61.3125 C22.64175781 62.49714844 22.65851563 63.68179688 22.67578125 64.90234375 C21.87831614 72.52542426 17.50179257 76.56281973 12 81.4140625 C2.84215922 88.09609168 -11.83629653 87.25277844 -22.6875 86.375 C-24.0276848 86.07037958 -25.36381151 85.74478058 -26.6875 85.375 C-26.6875 84.715 -26.6875 84.055 -26.6875 83.375 C-27.450625 83.41625 -28.21375 83.4575 -29 83.5 C-31.6875 83.375 -31.6875 83.375 -34.6875 81.375 C-35.02807617 79.49560547 -35.02807617 79.49560547 -34.98046875 77.2421875 C-34.97080078 76.43652344 -34.96113281 75.63085938 -34.95117188 74.80078125 C-34.92603516 73.95902344 -34.90089844 73.11726562 -34.875 72.25 C-34.86146484 71.40050781 -34.84792969 70.55101562 -34.83398438 69.67578125 C-34.79858219 67.57525163 -34.74477401 65.47504707 -34.6875 63.375 C-31.7175 64.695 -28.7475 66.015 -25.6875 67.375 C-25.6875 68.035 -25.6875 68.695 -25.6875 69.375 C-21.51439011 70.36821617 -17.53461604 70.57322216 -13.25 70.625 C-11.97253906 70.65078125 -10.69507813 70.6765625 -9.37890625 70.703125 C-5.42777072 70.35191295 -3.03861668 69.45744355 0.3125 67.375 C1.80355779 64.39288442 1.82244661 62.68965295 1.3125 59.375 C-3.05978601 53.47749794 -9.94301712 51.44834917 -16.6875 49.375 C-16.6875 48.715 -16.6875 48.055 -16.6875 47.375 C-17.41839844 47.27316406 -18.14929687 47.17132812 -18.90234375 47.06640625 C-24.7984236 45.60272303 -30.12497483 40.99111314 -33.25 35.8125 C-35.90112559 29.55730966 -35.89538727 21.64790121 -34.0625 15.1640625 C-31.19254077 9.50101796 -25.96883689 4.85604999 -20.23828125 2.26953125 C-13.59928607 0.25226167 -6.88623899 0.08135488 0 0 Z " fill="#FADDA7" transform="translate(1792.6875,771.625)"/>
<path d="M0 0 C6.93 0 13.86 0 21 0 C21.02505615 2.66054443 21.0501123 5.32108887 21.07592773 8.06225586 C21.15922972 16.83138896 21.2479374 25.60046128 21.33933926 34.36951351 C21.39461407 39.68862221 21.44804122 45.00773635 21.49731445 50.3269043 C21.54489094 55.45568867 21.59723104 60.5844039 21.65294075 65.71310616 C21.67339484 67.67439628 21.69210275 69.63570538 21.70907402 71.59702873 C21.73305069 74.33420584 21.76311404 77.071251 21.79467773 79.80834961 C21.80331093 81.03725418 21.80331093 81.03725418 21.81211853 82.29098511 C21.51772994 85.94663295 21.51772994 85.94663295 23 89 C25.80976518 89.16017166 28.59773596 89.25950534 31.41015625 89.31640625 C32.25219101 89.33718735 33.09422577 89.35796844 33.96177673 89.37937927 C36.66193179 89.44496812 39.36218717 89.50380276 42.0625 89.5625 C43.88868241 89.60567637 45.71485454 89.64929036 47.54101562 89.69335938 C52.02723992 89.80065894 56.5135655 89.90189966 61 90 C61 95.28 61 100.56 61 106 C40.87 106 20.74 106 0 106 C0 71.02 0 36.04 0 0 Z " fill="#FFE2AA" transform="translate(892,766)"/>
<path d="M0 0 C5.94 0 11.88 0 18 0 C18.33 18.15 18.66 36.3 19 55 C22.96 48.73 26.92 42.46 31 36 C36 29 36 29 38.5871582 28.20532227 C39.48265381 28.24197998 40.37814941 28.2786377 41.30078125 28.31640625 C42.27724609 28.33896484 43.25371094 28.36152344 44.25976562 28.38476562 C45.77086914 28.47274414 45.77086914 28.47274414 47.3125 28.5625 C48.85260742 28.60987305 48.85260742 28.60987305 50.42382812 28.65820312 C52.95215184 28.74052064 55.4745986 28.85540989 58 29 C53.75976178 35.58203198 49.16234516 41.6635086 44.1484375 47.66796875 C41.43318298 50.98278455 39.30145508 53.84169232 38 58 C38.64001953 58.76957031 38.64001953 58.76957031 39.29296875 59.5546875 C44.06132813 65.39469879 48.56405166 71.40488704 53 77.5 C53.5880542 78.30163574 54.1761084 79.10327148 54.78198242 79.92919922 C55.32830322 80.68475098 55.87462402 81.44030273 56.4375 82.21875 C56.93121094 82.89873047 57.42492188 83.57871094 57.93359375 84.27929688 C59 86 59 86 59 88 C51.72916492 89.63372608 44.07443578 90.84830373 37 88 C30.45624564 81.89959615 26.33066246 73.54233304 22.34667969 65.63549805 C21.00018674 62.87531285 21.00018674 62.87531285 19 60 C18.67 69.24 18.34 78.48 18 88 C12.06 88 6.12 88 0 88 C0 58.96 0 29.92 0 0 Z " fill="#FDE0A9" transform="translate(1660,768)"/>
<path d="M0 0 C4.98848497 4.73266522 7.12660163 11.09277536 7.34057617 17.85546875 C7.34010802 19.63288328 7.32356777 21.41034881 7.29296875 23.1875 C7.28872391 24.13061035 7.28447906 25.0737207 7.28010559 26.04541016 C7.2634357 29.03057518 7.22580575 32.01504218 7.1875 35 C7.17243804 37.03514644 7.15875229 39.07030355 7.14648438 41.10546875 C7.11357055 46.0705777 7.06186999 51.03517087 7 56 C1.06 56 -4.88 56 -11 56 C-11.495 52.535 -11.495 52.535 -12 49 C-12.886875 49.78375 -13.77375 50.5675 -14.6875 51.375 C-20.22152689 56.26553539 -25.77355349 56.37866608 -32.8984375 56.25 C-38.04378707 55.8352615 -40.7507296 54.31867431 -44.25 50.625 C-47.87273597 45.19089604 -48.86334902 40.46432579 -48 34 C-45.90613421 27.34959671 -42.08894202 23.5252587 -36.22265625 19.90234375 C-33.27370938 18.70514388 -30.60904398 18.60708199 -27.4375 18.4375 C-24.0056926 18.24662762 -21.26512402 18.08837467 -18 17 C-15.66700175 16.96045766 -13.33291811 16.95598268 -11 17 C-12.09786425 11.59212615 -12.09786425 11.59212615 -16 8 C-19.33414666 7.65059564 -22.6546955 7.84544793 -26 8 C-26.71027344 8.02964844 -27.42054687 8.05929687 -28.15234375 8.08984375 C-33.5447636 8.52764417 -37.34950867 10.42562087 -42 13 C-42 8.38 -42 3.76 -42 -1 C-28.75717392 -5.68592307 -12.10987648 -8.92825923 0 0 Z " fill="#F8DCA6" transform="translate(1978,801)"/>
<path d="M0 0 C0.029729 0.89307861 0.029729 0.89307861 0.06005859 1.80419922 C0.15516126 4.49492153 0.26489842 7.18485148 0.375 9.875 C0.4059375 10.81214844 0.436875 11.74929688 0.46875 12.71484375 C0.52675781 14.05869141 0.52675781 14.05869141 0.5859375 15.4296875 C0.6173584 16.25710449 0.6487793 17.08452148 0.68115234 17.93701172 C0.82599137 20.21986085 0.82599137 20.21986085 3 22 C5.56916657 22.30599063 8.04758384 22.51087087 10.625 22.625 C11.68460938 22.68300781 11.68460938 22.68300781 12.765625 22.7421875 C14.50998524 22.83647724 16.25495691 22.91932891 18 23 C18 27.62 18 32.24 18 37 C16.85660156 37.06058594 15.71320312 37.12117187 14.53515625 37.18359375 C13.04425695 37.26798428 11.55337225 37.35263302 10.0625 37.4375 C8.93038086 37.49647461 8.93038086 37.49647461 7.77539062 37.55664062 C4.08055813 37.44038024 4.08055813 37.44038024 1 39 C0.87417182 41.43916028 0.81134969 43.84843075 0.796875 46.2890625 C0.78832489 47.3940358 0.78832489 47.3940358 0.77960205 48.52133179 C0.77013378 50.08663491 0.76361085 51.65195812 0.75976562 53.21728516 C0.75012395 55.59444016 0.71914651 57.9707068 0.6875 60.34765625 C0.68096355 61.86978654 0.67571561 63.39192302 0.671875 64.9140625 C0.6595282 65.61850494 0.6471814 66.32294739 0.63446045 67.04873657 C0.66010213 72.83265731 2.03825687 77.16381418 5.33203125 81.92578125 C7.79883339 83.51447115 9.79118691 83.28972281 12.6875 83.1875 C14.440625 83.125625 16.19375 83.06375 18 83 C18 87.62 18 92.24 18 97 C8.23944175 99.94658362 -1.54502199 100.27440236 -11 96 C-16.77174077 91.45628918 -19.07352938 86.14669145 -20 79 C-20.17434535 75.90066418 -20.23114336 72.80276386 -20.28125 69.69921875 C-20.29965942 68.82223831 -20.31806885 67.94525787 -20.33703613 67.04170227 C-20.41544404 63.30648517 -20.48381205 59.57110469 -20.55224609 55.83569336 C-20.60379147 53.10260619 -20.66106545 50.36968211 -20.71875 47.63671875 C-20.73232544 46.78575119 -20.74590088 45.93478363 -20.7598877 45.05802917 C-20.47159579 41.21694837 -20.47159579 41.21694837 -22 38 C-23.68183948 37.76712992 -25.3712416 37.58735834 -27.0625 37.4375 C-28.691875 37.293125 -30.32125 37.14875 -32 37 C-32 32.38 -32 27.76 -32 23 C-29.42838542 22.77213542 -26.85677083 22.54427083 -24.28515625 22.31640625 C-22.03840268 22.23955024 -22.03840268 22.23955024 -21 21 C-20.76321284 18.30764224 -20.57801975 15.63501844 -20.4375 12.9375 C-20.39431641 12.17888672 -20.35113281 11.42027344 -20.30664062 10.63867188 C-20.20026367 8.75934562 -20.09960066 6.87969756 -20 5 C-17.41877492 4.15960114 -14.83536099 3.32749444 -12.25 2.5 C-11.52039063 2.26152344 -10.79078125 2.02304687 -10.0390625 1.77734375 C-9.33007812 1.55175781 -8.62109375 1.32617188 -7.890625 1.09375 C-7.24125977 0.88427734 -6.59189453 0.67480469 -5.92285156 0.45898438 C-4 0 -4 0 0 0 Z " fill="#FFE2AA" transform="translate(613,775)"/>
<path d="M0 0 C0.96534668 0.00805664 1.93069336 0.01611328 2.92529297 0.02441406 C9.88402521 0.22030173 15.40171453 1.15561166 21 5.5625 C21.804375 6.14 22.60875 6.7175 23.4375 7.3125 C27.91781012 13.76414657 28.42836276 21.00179863 28.29296875 28.62890625 C28.28872391 29.54840561 28.28447906 30.46790497 28.28010559 31.41526794 C28.26346776 34.31882459 28.22584467 37.22165726 28.1875 40.125 C28.17243386 42.10741177 28.15874886 44.08983454 28.14648438 46.07226562 C28.11617965 50.90283921 28.05743153 55.73187037 28 60.5625 C22.06 60.5625 16.12 60.5625 10 60.5625 C9.505 57.5925 9.505 57.5925 9 54.5625 C8.113125 55.34625 7.22625 56.13 6.3125 56.9375 C1.76432781 60.95681496 -2.50345621 61.84052123 -8.5 61.8125 C-9.6034375 61.81765625 -10.706875 61.8228125 -11.84375 61.828125 C-15.87760762 61.48864193 -18.66528574 60.66559357 -21.80078125 58.07421875 C-26.18078191 52.78879159 -26.7401338 48.41056897 -26.38671875 41.625 C-25.66992172 35.94854672 -24.58320234 32.82259982 -19.9375 29.125 C-17 27.5625 -17 27.5625 -15 27.5625 C-15 26.9025 -15 26.2425 -15 25.5625 C-6.75 24.5725 1.5 23.5825 10 22.5625 C8.84448274 15.65774241 8.84448274 15.65774241 5 13.5625 C-3.25495604 12.53252383 -12.36949582 13.41327866 -19 18.5625 C-19.66 18.5625 -20.32 18.5625 -21 18.5625 C-21 13.9425 -21 9.3225 -21 4.5625 C-13.72959892 1.24998936 -7.96678323 -0.12484947 0 0 Z " fill="#FADEA7" transform="translate(2094,795.4375)"/>
<path d="M0 0 C0 4.62 0 9.24 0 14 C-1.93875 13.505 -3.8775 13.01 -5.875 12.5 C-13.06924453 10.85604858 -19.4970076 9.62382441 -26.5 12.375 C-29.04384762 13.90551148 -29.04384762 13.90551148 -31 16 C-31.31044613 19.42616073 -31.31044613 19.42616073 -30 23 C-24.66691847 27.46237434 -18.32208398 29.53768022 -11.81225586 31.76977539 C-6.28689933 33.70428852 -0.46990934 35.97867824 2.375 41.4375 C5.31602173 47.99634763 5.08936509 55.78923974 2.8125 62.5 C-3.07814587 70.62502878 -10.47853985 74.01513183 -20.21875 75.68359375 C-31.34212102 76.94903343 -41.20198083 75.44483453 -52 73 C-52 68.05 -52 63.1 -52 58 C-50.783125 58.45375 -49.56625 58.9075 -48.3125 59.375 C-39.0865137 62.40680996 -29.36398712 64.50475526 -20 61 C-17.06753631 58.97520364 -16.23135025 58.00251773 -15.4375 54.5625 C-16.226001 50.97043987 -18.10910275 49.1068564 -21 47 C-25.2538249 45.01811993 -29.72006603 43.61762141 -34.1640625 42.12695312 C-40.85795878 39.76018265 -46.6589115 37.03377056 -50.33984375 30.69140625 C-52.51556762 22.94127873 -52.70576184 16.86850102 -49.4453125 9.3671875 C-45.99307223 3.71297776 -40.16439305 1.16209353 -34.0625 -0.875 C-23.0797924 -3.48919378 -10.85452774 -2.80116845 0 0 Z " fill="#FFE2AA" transform="translate(824,798)"/>
<path d="M0 0 C5.45678718 2.51450423 8.82015836 6.0791212 11.72607422 11.34838867 C13.05648607 15.83862099 12.84981684 20.21002657 12.80078125 24.8671875 C12.79795135 25.88113083 12.79512146 26.89507416 12.79220581 27.93974304 C12.781035 31.16958552 12.75593586 34.39914796 12.73046875 37.62890625 C12.72043495 39.82226161 12.7113098 42.01562133 12.703125 44.20898438 C12.68110576 49.57823245 12.646597 54.94727191 12.60546875 60.31640625 C6.66546875 60.31640625 0.72546875 60.31640625 -5.39453125 60.31640625 C-5.43191406 57.55910156 -5.46929688 54.80179688 -5.5078125 51.9609375 C-5.55405582 49.28336768 -5.60527924 46.6059361 -5.65698242 43.9284668 C-5.69018674 42.07113075 -5.71823266 40.21369488 -5.7409668 38.35620117 C-5.77459567 35.68234827 -5.82691499 33.00940632 -5.8828125 30.3359375 C-5.88920242 29.50866653 -5.89559235 28.68139557 -5.9021759 27.82905579 C-6.01892889 23.22579247 -6.33662322 20.00835332 -9.39453125 16.31640625 C-13.09251133 15.08374622 -16.54974828 14.73503786 -20.39453125 15.31640625 C-22.82572748 17.18655719 -24.03522298 18.5977897 -25.39453125 21.31640625 C-25.55186374 24.3040398 -25.6531454 27.27181776 -25.7109375 30.26171875 C-25.7317186 31.14673065 -25.75249969 32.03174255 -25.77391052 32.943573 C-25.83939723 35.77610366 -25.89828687 38.6087285 -25.95703125 41.44140625 C-26.00021731 43.35938482 -26.04383162 45.27735379 -26.08789062 47.1953125 C-26.19588526 51.90224855 -26.29496503 56.60925408 -26.39453125 61.31640625 C-32.66453125 61.31640625 -38.93453125 61.31640625 -45.39453125 61.31640625 C-45.39453125 41.51640625 -45.39453125 21.71640625 -45.39453125 1.31640625 C-39.12453125 1.31640625 -32.85453125 1.31640625 -26.39453125 1.31640625 C-26.06453125 3.62640625 -25.73453125 5.93640625 -25.39453125 8.31640625 C-24.76804687 7.75050781 -24.1415625 7.18460938 -23.49609375 6.6015625 C-22.67882813 5.86808594 -21.8615625 5.13460937 -21.01953125 4.37890625 C-20.20742187 3.64800781 -19.3953125 2.91710937 -18.55859375 2.1640625 C-13.51649298 -2.14083581 -6.19236144 -1.76780302 0 0 Z " fill="#FADEA7" transform="translate(2044.39453125,795.68359375)"/>
<path d="M0 0 C4.48858864 1.66464215 7.05690399 4.66963599 9.70703125 8.53125 C12.11300834 13.98152463 11.96559573 19.11923124 11.90234375 24.9609375 C11.89951385 25.95126984 11.89668396 26.94160217 11.89376831 27.96194458 C11.88261595 31.11017176 11.85752032 34.25810949 11.83203125 37.40625 C11.82199507 39.54687088 11.81287033 41.68749624 11.8046875 43.828125 C11.78269278 49.06261072 11.74819688 54.29688136 11.70703125 59.53125 C5.76703125 59.53125 -0.17296875 59.53125 -6.29296875 59.53125 C-6.34904297 55.52097656 -6.34904297 55.52097656 -6.40625 51.4296875 C-6.45251771 48.82820656 -6.50373222 46.22686652 -6.55541992 43.62548828 C-6.58858648 41.82349271 -6.616644 40.02139533 -6.6394043 38.21923828 C-6.67310307 35.62228177 -6.72542524 33.02625134 -6.78125 30.4296875 C-6.78763992 29.6294516 -6.79402985 28.8292157 -6.8006134 28.00473022 C-6.92647609 23.17007916 -7.55010944 19.68376345 -10.29296875 15.53125 C-13.99094883 14.29858997 -17.44818578 13.94988161 -21.29296875 14.53125 C-23.72416498 16.40140094 -24.93366048 17.81263345 -26.29296875 20.53125 C-26.45030124 23.51888355 -26.5515829 26.48666151 -26.609375 29.4765625 C-26.6301561 30.3615744 -26.65093719 31.2465863 -26.67234802 32.15841675 C-26.73783473 34.99094741 -26.79672437 37.82357225 -26.85546875 40.65625 C-26.89865481 42.57422857 -26.94226912 44.49219754 -26.98632812 46.41015625 C-27.09432276 51.1170923 -27.19340253 55.82409783 -27.29296875 60.53125 C-33.56296875 60.53125 -39.83296875 60.53125 -46.29296875 60.53125 C-46.29296875 40.73125 -46.29296875 20.93125 -46.29296875 0.53125 C-40.02296875 0.53125 -33.75296875 0.53125 -27.29296875 0.53125 C-26.96296875 2.84125 -26.63296875 5.15125 -26.29296875 7.53125 C-25.57109375 6.768125 -24.84921875 6.005 -24.10546875 5.21875 C-17.04210421 -1.53068723 -9.44062253 -1.92993987 0 0 Z " fill="#FBDEA8" transform="translate(2561.29296875,796.46875)"/>
<path d="M0 0 C5.40911651 5.28891392 7.06086998 10.48528245 7.22705078 17.83374023 C7.22673764 19.65872204 7.21564823 21.48372522 7.1953125 23.30859375 C7.1924826 24.27531509 7.18965271 25.24203644 7.18673706 26.23805237 C7.17560407 29.30466452 7.15051224 32.37097715 7.125 35.4375 C7.11496131 37.52538639 7.10583701 39.61327738 7.09765625 41.70117188 C7.07568727 46.80089544 7.04120507 51.90039705 7 57 C1.06 57 -4.88 57 -11 57 C-11.03738281 54.24269531 -11.07476563 51.48539063 -11.11328125 48.64453125 C-11.15952457 45.96696143 -11.21074799 43.28952985 -11.26245117 40.61206055 C-11.29565549 38.7547245 -11.32370141 36.89728863 -11.34643555 35.03979492 C-11.38006442 32.36594202 -11.43238374 29.69300007 -11.48828125 27.01953125 C-11.49467117 26.19226028 -11.5010611 25.36498932 -11.50764465 24.51264954 C-11.62439764 19.90938622 -11.94209197 16.69194707 -15 13 C-18.69798008 11.76733997 -22.15521703 11.41863161 -26 12 C-28.43119623 13.87015094 -29.64069173 15.28138345 -31 18 C-31.15720097 20.9148537 -31.25855654 23.80939636 -31.31640625 26.7265625 C-31.33718735 27.58937836 -31.35796844 28.45219421 -31.37937927 29.34115601 C-31.44486034 32.10235493 -31.50375298 34.86365038 -31.5625 37.625 C-31.6056866 39.49480172 -31.64930093 41.36459362 -31.69335938 43.234375 C-31.80134674 47.8228191 -31.90043062 52.41133453 -32 57 C-38.27 57 -44.54 57 -51 57 C-51 37.53 -51 18.06 -51 -2 C-44.73 -2 -38.46 -2 -32 -2 C-31.67 0.31 -31.34 2.62 -31 5 C-30.319375 4.236875 -29.63875 3.47375 -28.9375 2.6875 C-21.03105527 -4.54605581 -9.22071092 -5.64533322 0 0 Z " fill="#FCDFA8" transform="translate(1638,799)"/>
<path d="M0 0 C5.94 0 11.88 0 18 0 C18.01417969 2.82949219 18.02835938 5.65898438 18.04296875 8.57421875 C18.07360219 11.32132825 18.1126875 14.06819686 18.15258789 16.81518555 C18.17575277 18.72102307 18.19016007 20.62698833 18.19555664 22.53295898 C18.20485741 25.27668723 18.24587071 28.01841063 18.29296875 30.76171875 C18.2890361 31.61086349 18.28510345 32.46000824 18.28105164 33.33488464 C18.38874495 37.72336644 18.59018511 39.48110129 21.39941406 43.03808594 C24.84701498 45.63899853 26.74367925 45.66236869 30.91015625 45.43359375 C33.92686488 44.80769719 35.25075932 43.47809096 37 41 C38.66349319 37.67301363 38.24378057 33.93570615 38.31640625 30.2734375 C38.33718735 29.41062164 38.35796844 28.54780579 38.37937927 27.65884399 C38.44486034 24.89764507 38.50375298 22.13634962 38.5625 19.375 C38.6056866 17.50519828 38.64930093 15.63540638 38.69335938 13.765625 C38.80134674 9.1771809 38.90043062 4.58866547 39 0 C44.94 0 50.88 0 57 0 C57 19.47 57 38.94 57 59 C51.06 59 45.12 59 39 59 C38.505 55.535 38.505 55.535 38 52 C37.55269531 52.40992188 37.10539062 52.81984375 36.64453125 53.2421875 C36.03996094 53.78101563 35.43539062 54.31984375 34.8125 54.875 C34.22082031 55.40867187 33.62914063 55.94234375 33.01953125 56.4921875 C27.40138356 60.68678132 21.72516559 60.43544238 15 60 C9.3494481 59.16631201 6.80580005 57.28035294 3.26171875 53.046875 C-0.38758869 47.12663631 -0.26808049 41.29088046 -0.1953125 34.5703125 C-0.1924826 33.57998016 -0.18965271 32.58964783 -0.18673706 31.56930542 C-0.1755847 28.42107824 -0.15048907 25.27314051 -0.125 22.125 C-0.11496382 19.98437912 -0.10583908 17.84375376 -0.09765625 15.703125 C-0.07566153 10.46863928 -0.04116563 5.23436864 0 0 Z " fill="#FDE0A9" transform="translate(2442,797)"/>
<path d="M0 0 C6.6 0 13.2 0 20 0 C20.1306049 9.33581903 20.26103379 18.67164048 20.39115143 28.00746632 C20.45157504 32.34230006 20.51207628 36.67713269 20.57275391 41.01196289 C20.63129079 45.19406066 20.6896251 49.37616121 20.74781799 53.55826378 C20.77007305 55.15507801 20.79240153 56.75189122 20.81480408 58.34870338 C20.84613054 60.58248255 20.87719769 62.81626518 20.90820312 65.05004883 C20.93485046 66.95866447 20.93485046 66.95866447 20.96203613 68.90583801 C21.02132459 73.73801404 20.91433424 78.55680878 20.78125 83.38671875 C20.75905396 84.20372757 20.73685791 85.02073639 20.71398926 85.86250305 C20.64303981 88.47084589 20.57152678 91.07917293 20.5 93.6875 C20.45178579 95.4563792 20.40360826 97.22525939 20.35546875 98.99414062 C20.23747372 103.32944084 20.11871673 107.66471925 20 112 C13.4 112 6.8 112 0 112 C0 75.04 0 38.08 0 0 Z " fill="#FFE2AA" transform="translate(1109,760)"/>
<path d="M0 0 C6.6 0 13.2 0 20 0 C20 36.96 20 73.92 20 112 C13.4 112 6.8 112 0 112 C0 75.04 0 38.08 0 0 Z " fill="#FFE2AA" transform="translate(649,760)"/>
<path d="M0 0 C6.27 0 12.54 0 19 0 C19 22.44 19 44.88 19 68 C29.23 68 39.46 68 50 68 C50 72.95 50 77.9 50 83 C33.5 83 17 83 0 83 C0 55.61 0 28.22 0 0 Z " fill="#FADEA7" transform="translate(1494,773)"/>
<path d="M0 0 C0 5.61 0 11.22 0 17 C4.29 17 8.58 17 13 17 C13 21.95 13 26.9 13 32 C8.71 32 4.42 32 0 32 C0.33 41.9 0.66 51.8 1 62 C3.88211302 62.96070434 5.69850044 63.10581883 8.6875 63.0625 C10.110625 63.041875 11.53375 63.02125 13 63 C13 67.62 13 72.24 13 77 C7.8910225 78.7029925 5.27273621 79.23005584 0.125 79.125 C-1.02742188 79.10695313 -2.17984375 79.08890625 -3.3671875 79.0703125 C-4.23601563 79.04710937 -5.10484375 79.02390625 -6 79 C-6 78.34 -6 77.68 -6 77 C-6.886875 76.95875 -7.77375 76.9175 -8.6875 76.875 C-12.26327655 75.93045525 -13.61690092 74.71376586 -15.921875 71.86328125 C-18.82522855 66.84552891 -19.24100789 62.12598632 -19.1953125 56.4140625 C-19.1924826 55.71227875 -19.18965271 55.010495 -19.18673706 54.28744507 C-19.17562512 52.06644972 -19.15053834 49.84587155 -19.125 47.625 C-19.11495854 46.11068295 -19.10583473 44.59635951 -19.09765625 43.08203125 C-19.07571554 39.38788742 -19.04124875 35.69398449 -19 32 C-22.3 32 -25.6 32 -29 32 C-29 27.38 -29 22.76 -29 18 C-25.7 18 -22.4 18 -19 18 C-19 13.71 -19 9.42 -19 5 C-16.58570231 4.15919981 -14.16896007 3.32718598 -11.75 2.5 C-11.06808594 2.26152344 -10.38617187 2.02304687 -9.68359375 1.77734375 C-6.23586997 0.60578713 -3.68297096 0 0 0 Z " fill="#F8DCA6" transform="translate(2611,779)"/>
<path d="M0 0 C0.99 0 1.98 0 3 0 C3 154.11 3 308.22 3 467 C2.01 467.33 1.02 467.66 0 468 C-1.70562684 466.29437316 -1.12441142 464.14682423 -1.13293558 461.87143698 C-1.13059442 461.12861506 -1.12825325 460.38579314 -1.12584114 459.62046146 C-1.12729458 458.83481305 -1.12874802 458.04916463 -1.13024551 457.23970869 C-1.1339323 454.57312212 -1.13040678 451.90659177 -1.12698364 449.24000549 C-1.12813441 447.32253535 -1.12972163 445.40506543 -1.13171089 443.48759598 C-1.13591039 438.19197881 -1.13381073 432.89637951 -1.13072467 427.60076225 C-1.12847328 421.89993723 -1.13194888 416.19911541 -1.13470459 410.49829102 C-1.13916419 399.3196055 -1.13818496 388.14092667 -1.13529195 376.96224088 C-1.13303854 367.8809489 -1.13272512 358.7996588 -1.13381577 349.71836662 C-1.13404561 347.78362156 -1.13404561 347.78362156 -1.13428011 345.80979074 C-1.13459982 343.18995874 -1.13492403 340.57012673 -1.1352527 337.95029473 C-1.13802659 314.05361858 -1.13514413 290.15694624 -1.1299101 266.2602707 C-1.12516474 244.42863879 -1.12558832 222.59701271 -1.13037109 200.76538086 C-1.13572173 176.25952979 -1.13783282 151.75368246 -1.13475883 127.24783081 C-1.13444026 124.63703692 -1.13412589 122.02624303 -1.13381577 119.41544914 C-1.13366149 118.13071428 -1.13350721 116.84597942 -1.13334826 115.5223132 C-1.13248304 106.44720766 -1.1339461 97.37210419 -1.13629532 88.29699898 C-1.13909345 77.24417556 -1.1383548 66.19135924 -1.13301457 55.13853664 C-1.13037766 49.4938602 -1.12937233 43.84919563 -1.13266373 38.20451927 C-1.13562692 33.04485034 -1.13403347 27.88520436 -1.12868617 22.72553753 C-1.12756208 20.85138564 -1.128153 18.97723185 -1.13056196 17.10308117 C-1.13356945 14.57048579 -1.13051775 12.03797074 -1.12584114 9.50537968 C-1.12818231 8.76489892 -1.13052347 8.02441817 -1.13293558 7.2614986 C-1.11415036 2.22830072 -1.11415036 2.22830072 0 0 Z " fill="#87F4F1" transform="translate(1289,587)"/>
<path d="M0 0 C20.13 0 40.26 0 61 0 C58.74986573 6.7504028 58.74986573 6.7504028 57.15576172 9.83959961 C56.80134003 10.53149887 56.44691833 11.22339813 56.08175659 11.93626404 C55.70157379 12.66757034 55.32139099 13.39887665 54.9296875 14.15234375 C54.52976593 14.92953262 54.12984436 15.7067215 53.71780396 16.50746155 C52.44086672 18.98622662 51.157914 21.46182402 49.875 23.9375 C49.03608875 25.56556482 48.19754391 27.1938185 47.359375 28.82226562 C42.3225517 38.59296483 37.2025241 48.31656887 32 58 C31.34 58 30.68 58 30 58 C29.73074707 57.48131348 29.46149414 56.96262695 29.18408203 56.42822266 C23.89320343 46.24399515 18.57776465 36.07362613 13.1953125 25.9375 C12.78656891 25.16739594 12.37782532 24.39729187 11.95669556 23.60385132 C9.90505111 19.73913985 7.8508942 15.87579081 5.79345703 12.01416016 C5.0341062 10.58499998 4.27482555 9.15580252 3.515625 7.7265625 C3.15993439 7.06092285 2.80424377 6.3952832 2.43777466 5.70947266 C0 1.11340177 0 1.11340177 0 0 Z " fill="#31FBFC" transform="translate(288,888)"/>
<path d="M0 0 C1.18529297 -0.01836914 1.18529297 -0.01836914 2.39453125 -0.03710938 C3.16925781 -0.03904297 3.94398438 -0.04097656 4.7421875 -0.04296875 C5.78802002 -0.04913208 5.78802002 -0.04913208 6.85498047 -0.05541992 C9.125 0.1875 9.125 0.1875 15.125 2.1875 C15.125 7.4675 15.125 12.7475 15.125 18.1875 C12.815 17.1975 10.505 16.2075 8.125 15.1875 C2.35469917 14.38893158 -3.49623367 14.92841814 -8.875 17.1875 C-13.30857339 21.62107339 -14.0253511 25.46911493 -14.1875 31.5625 C-14.120562 36.58284993 -13.4949366 39.47474451 -9.875 43.1875 C-4.61425985 46.28205303 0.16926421 46.95789368 6.125 46.1875 C9.23240239 45.3670326 12.11349519 44.33473993 15.125 43.1875 C15.125 48.1375 15.125 53.0875 15.125 58.1875 C9.39084634 61.11277189 4.71060633 61.7015194 -1.6875 61.625 C-2.5746167 61.61670166 -3.4617334 61.60840332 -4.37573242 61.59985352 C-13.08034873 61.37497559 -19.3673615 59.82381365 -25.8125 53.75 C-32.8399268 45.99673569 -34.41812474 38.39377146 -34.24609375 28.08203125 C-33.38391398 19.03368141 -29.69928169 11.8498181 -22.99609375 5.7421875 C-16.11663213 0.69978285 -8.22899609 0.00664701 0 0 Z " fill="#F9DCA6" transform="translate(2341.875,795.8125)"/>
<path d="M0 0 C1.52850586 0.00193359 1.52850586 0.00193359 3.08789062 0.00390625 C8.29912703 0.06525501 11.32845921 0.38138368 16.3125 2.375 C16.3125 7.655 16.3125 12.935 16.3125 18.375 C15.013125 17.88 13.71375 17.385 12.375 16.875 C5.50319083 14.61311924 -1.2024599 14.32575134 -7.95703125 17.2109375 C-11.32535014 19.47675924 -12.62206384 22.55274779 -13.6875 26.375 C-14.77642252 32.88584922 -13.28190796 37.9046784 -9.6875 43.375 C-6.13167525 46.93082475 -2.16990708 46.53419343 2.6875 46.5625 C3.78835937 46.57667969 4.88921875 46.59085938 6.0234375 46.60546875 C9.42725276 46.36695913 12.13666186 45.58872666 15.3125 44.375 C15.36634521 46.66641286 15.40522087 48.95818188 15.4375 51.25 C15.46070312 52.52617188 15.48390625 53.80234375 15.5078125 55.1171875 C15.3125 58.375 15.3125 58.375 13.3125 60.375 C8.68244984 61.75341188 3.85306946 61.59501208 -0.9375 61.625 C-1.74574219 61.645625 -2.55398437 61.66625 -3.38671875 61.6875 C-11.73789111 61.7409475 -18.91061631 59.90908223 -25.1171875 54.12109375 C-32.52075129 45.88877282 -33.31028727 37.74984067 -33.09375 27.015625 C-32.63811462 19.02898763 -29.1564162 12.30245321 -23.3125 6.875 C-15.52712591 1.30986614 -9.61680811 -0.23380596 0 0 Z " fill="#F8DCA6" transform="translate(2283.6875,795.625)"/>
<path d="M0 0 C1.09441406 0.07541016 2.18882813 0.15082031 3.31640625 0.22851562 C4.43402344 0.26912109 5.55164062 0.30972656 6.703125 0.3515625 C9.45369482 0.45735365 12.19529236 0.60495162 14.94140625 0.79101562 C13.61722877 3.61468093 12.12856377 6.01598839 10.21875 8.47851562 C9.6839502 9.17178955 9.14915039 9.86506348 8.59814453 10.5793457 C8.0307959 11.30919678 7.46344727 12.03904785 6.87890625 12.79101562 C5.70830623 14.3157344 4.53773348 15.84047411 3.3671875 17.36523438 C1.28002087 20.07151038 -0.82447467 22.7618183 -2.953125 25.43554688 C-3.37650146 25.97630859 -3.79987793 26.51707031 -4.23608398 27.07421875 C-5.36351999 28.51402693 -6.50362425 29.94388951 -7.64453125 31.37304688 C-9.28743968 33.60957245 -9.28743968 33.60957245 -8.78857422 35.72485352 C-8.0268989 37.88072583 -7.12556537 39.41467862 -5.79296875 41.26757812 C-5.32093018 41.93007568 -4.8488916 42.59257324 -4.36254883 43.27514648 C-3.84974365 43.9816333 -3.33693848 44.68812012 -2.80859375 45.41601562 C-2.01908325 46.51925171 -2.01908325 46.51925171 -1.21362305 47.64477539 C0.49766889 50.03202134 2.21839967 52.4122131 3.94140625 54.79101562 C5.7556567 57.29987869 7.5698717 59.80876719 9.38378906 62.31787109 C10.53327631 63.90573303 11.68491725 65.49203844 12.83886719 67.07666016 C13.36125977 67.7957959 13.88365234 68.51493164 14.421875 69.25585938 C14.88489014 69.89128662 15.34790527 70.52671387 15.82495117 71.18139648 C16.94140625 72.79101562 16.94140625 72.79101562 17.94140625 74.79101562 C13.92212202 75.08308211 9.90556791 75.25951017 5.87890625 75.41601562 C4.74517578 75.49980469 3.61144531 75.58359375 2.44335938 75.66992188 C-5.82440082 75.91096445 -5.82440082 75.91096445 -9.25561523 72.79736328 C-11.0830189 70.20955184 -12.589578 67.595939 -14.05859375 64.79101562 C-14.9107843 63.43243292 -15.77308971 62.08010711 -16.6484375 60.73632812 C-17.43333348 59.46433397 -18.21588393 58.19088953 -18.99609375 56.91601562 C-23.20564723 50.10534476 -27.56482117 43.41870255 -32.05859375 36.79101562 C-27.21180581 28.17272051 -22.0203252 19.83174798 -16.33007812 11.74438477 C-14.98351199 9.75874957 -14.98351199 9.75874957 -13.84960938 7.35131836 C-10.32250934 0.74969354 -7.37931117 -0.20125394 0 0 Z " fill="#FFE2AA" transform="translate(1164.05859375,797.208984375)"/>
<path d="M0 0 C5.94 0 11.88 0 18 0 C18 29.04 18 58.08 18 88 C12.06 88 6.12 88 0 88 C0 58.96 0 29.92 0 0 Z " fill="#FEE1A9" transform="translate(1901,768)"/>
<path d="M0 0 C6.6 0 13.2 0 20 0 C20 24.42 20 48.84 20 74 C13.4 74 6.8 74 0 74 C0 49.58 0 25.16 0 0 Z " fill="#FFE2AA" transform="translate(970,798)"/>
<path d="M0 0 C6.27 0 12.54 0 19 0 C19 19.8 19 39.6 19 60 C12.73 60 6.46 60 0 60 C0 40.2 0 20.4 0 0 Z " fill="#FADDA7" transform="translate(1553,797)"/>
<path d="M0 0 C3.95137302 2.78740267 6.14606109 6.26288628 7 11 C7.72316597 17.86414912 7.10483145 24.24853129 3 30 C-1.60268931 33.48568554 -5.55894734 33.61354292 -11.17578125 33.49609375 C-14.23287148 32.9590945 -15.23156194 32.4709785 -17.1875 30.125 C-21.09900623 23.38102374 -20.91993496 15.67439522 -20 8 C-18.74141298 4.59174635 -17.74904485 3.49913169 -15 1 C-10.21074489 -0.63038472 -4.95564355 -0.88800549 0 0 Z " fill="#34343B" transform="translate(2405,810)"/>
<path d="M0 0 C3.66179148 2.65924275 5.5835579 5.75067369 7 10 C7.59015335 17.02509466 7.06854639 22.63560748 4 29 C1.40553837 32.03044554 -0.74237555 32.85847246 -4.7421875 33.30859375 C-12.99302934 33.64809223 -12.99302934 33.64809223 -15.86328125 31.80078125 C-20.7483485 26.07992079 -20.34083266 19.5909605 -20.28125 12.43359375 C-19.89688588 7.74114846 -19.01892012 5.59006717 -16 2 C-10.84326878 -0.54340472 -5.63596361 -1.1057381 0 0 Z " fill="#34333B" transform="translate(1863,810)"/>
<path d="M0 0 C0.66 0 1.32 0 2 0 C2.42539062 1.75376953 2.42539062 1.75376953 2.859375 3.54296875 C3.85311095 7.51355404 5.01363218 11.40969891 6.25 15.3125 C6.46035889 15.98039551 6.67071777 16.64829102 6.88745117 17.33642578 C8.13456297 21.2914351 9.39671232 25.24158936 10.66015625 29.19140625 C10.93504883 30.05403076 11.20994141 30.91665527 11.49316406 31.80541992 C12.03280991 33.49784321 12.57506309 35.18943767 13.12011719 36.88012695 C15 42.7760669 15 42.7760669 15 45 C5.76 45 -3.48 45 -13 45 C-9.68470588 31.73882353 -9.68470588 31.73882353 -7.625 26.4375 C-4.43535758 17.79928907 -2.23583743 8.92432132 0 0 Z " fill="#39383E" transform="translate(522,786)"/>
<path d="M0 0 C0.85991911 11.63757199 0.85991911 11.63757199 -2.125 16.0625 C-5.69099088 20.15789569 -9.58992543 22.09810875 -15 22.5 C-17.99738113 22.35589514 -20.01402039 21.75695308 -22.5 20.0625 C-25.42196439 16.48309363 -25.8564166 14.65997609 -25.50390625 10.15234375 C-24.628776 6.4143843 -23.17565517 5.09593241 -20 3 C-16.70209719 1.9761228 -13.41921612 1.4462103 -10 1 C-9.22269531 0.88914062 -8.44539062 0.77828125 -7.64453125 0.6640625 C-5.09235307 0.32005305 -2.57819451 0 0 0 Z " fill="#34343B" transform="translate(733,837)"/>
<path d="M0 0 C2.84718642 2.25293421 3.01041407 3.04537558 3.875 6.8125 C4.24865182 10.95317225 3.39485608 13.53158775 1 17 C-3.395324 19.77199699 -7.96698896 19.65785814 -13 19 C-18.61971831 16.14084507 -18.61971831 16.14084507 -20 12 C-20.23297308 7.7288269 -20.37466992 4.621745 -18 1 C-12.26119239 -2.46997669 -6.10009892 -2.62132765 0 0 Z " fill="#FFE2AA" transform="translate(988,762)"/>
<path d="M0 0 C2.02871289 3.64796079 3.17548843 7.52494543 4.375 11.5 C6.23750261 17.59020948 8.20209997 23.63052364 10.30078125 29.64453125 C11 32 11 32 11 35 C4.4 35 -2.2 35 -9 35 C-7.87617781 26.00942246 -7.87617781 26.00942246 -6.40625 21.8359375 C-6.09816406 20.94132813 -5.79007813 20.04671875 -5.47265625 19.125 C-4.99119141 17.76375 -4.99119141 17.76375 -4.5 16.375 C-1.64156556 8.34579762 -1.64156556 8.34579762 0 0 Z " fill="#39373D" transform="translate(2203,788)"/>
<path d="M0 0 C4.51315789 2.02631579 4.51315789 2.02631579 6 5 C6.39447548 9.18144011 6.45035186 11.30946048 4.125 14.875 C1.14352873 17.85647127 -0.68798258 18.23343842 -4.8125 18.4375 C-7.59520961 18.40528339 -9.38847208 18.37798635 -11.76953125 16.90625 C-14.21167022 14.26001296 -15.01008724 11.94250271 -15.625 8.4375 C-15 5 -15 5 -13.125 2.0625 C-8.74468985 -0.8285047 -5.11050126 -0.788813 0 0 Z " fill="#F8DCA6" transform="translate(1567,769)"/>
<path d="M0 0 C0.4998202 6.12279743 -0.54649711 9.10753758 -4 14 C-7.04166228 15.97120603 -9.53354136 16.29641884 -13.125 16.3125 C-14.42824219 16.33763672 -14.42824219 16.33763672 -15.7578125 16.36328125 C-16.49773438 16.24339844 -17.23765625 16.12351562 -18 16 C-20.48038907 12.2794164 -20.46337203 10.40203429 -20 6 C-18.31910473 3.17303977 -16.84934988 2.25451409 -13.71875 1.31640625 C-9.12061273 0.31229495 -4.71991568 -0.24841661 0 0 Z " fill="#3C3B40" transform="translate(2105,828)"/>
<path d="M0 0 C0.32515854 6.39478454 -0.19357646 9.56440776 -4.32421875 14.62109375 C-6.50006142 16.41147245 -7.71731804 16.34275607 -10.5 16.25 C-11.66015625 16.22679687 -11.66015625 16.22679687 -12.84375 16.203125 C-15 16 -15 16 -18 15 C-19.54586876 11.90826248 -19.29359521 9.40570448 -19 6 C-17.30931751 3.15657946 -15.83574856 2.24663743 -12.68359375 1.31640625 C-8.39797881 0.39030466 -4.3895801 -0.0942307 0 0 Z " fill="#38373D" transform="translate(1967,828)"/>
</svg>
